<svg xmlns="http://www.w3.org/2000/svg" xmlns:xlink="http://www.w3.org/1999/xlink" width="56" height="56" viewBox="0 0 56 56">
  <defs>
    <clipPath id="clip-path">
      <rect id="Rectángulo_403308" data-name="Rectángulo 403308" width="32.894" height="33.595" transform="translate(0 0)" fill="none"/>
    </clipPath>
  </defs>
  <g id="Grupo_1130695" data-name="Grupo 1130695" transform="translate(-180 -3027)">
    <g id="Grupo_1130694" data-name="Grupo 1130694">
      <g id="Grupo_1106274" data-name="Grupo 1106274">
        <circle id="Elipse_12227" data-name="Elipse 12227" cx="28" cy="28" r="28" transform="translate(180 3027)" fill="#faf8f2"/>
        <path id="Elipse_12227_-_Contorno" data-name="Elipse 12227 - Contorno" d="M28,2A26.007,26.007,0,0,0,17.88,51.958,26.007,26.007,0,0,0,38.12,4.042,25.835,25.835,0,0,0,28,2m0-2A28,28,0,1,1,0,28,28,28,0,0,1,28,0Z" transform="translate(180 3027)" fill="#d0b57a"/>
        <g id="Grupo_1106273" data-name="Grupo 1106273" transform="translate(193.553 3038.703)">
          <g id="Grupo_1106272" data-name="Grupo 1106272" clip-path="url(#clip-path)">
            <path id="Trazado_902261" data-name="Trazado 902261" d="M13.3,19.256V5.6a4.9,4.9,0,0,0-9.8,0V19.256A7.7,7.7,0,1,0,14.337,20.3,7.779,7.779,0,0,0,13.3,19.256" fill="#e9edf5"/>
            <path id="Trazado_902262" data-name="Trazado 902262" d="M11.2,20.351V5.6a2.8,2.8,0,0,0-5.6,0V20.351a5.6,5.6,0,1,0,5.6,0" fill="#cdd2e1"/>
            <path id="Trazado_902263" data-name="Trazado 902263" d="M8.4,28.694A5.6,5.6,0,0,1,2.907,24.17a5.594,5.594,0,0,0,11,2.063,5.316,5.316,0,0,0-.01-2.063A5.6,5.6,0,0,1,8.4,28.694Z" fill="#9da3b5"/>
            <path id="Trazado_902264" data-name="Trazado 902264" d="M16.1,25.194a7.683,7.683,0,0,0-2.8-5.938V5.6A4.9,4.9,0,0,0,8.4.7V2.8a2.8,2.8,0,0,1,2.8,2.8V20.35a5.6,5.6,0,0,1,2.76,4.256,4.812,4.812,0,0,1,.039.588,5.6,5.6,0,0,1-5.6,5.6v2.1a7.7,7.7,0,0,0,7.7-7.7" fill="#f7faff"/>
            <path id="Trazado_902265" data-name="Trazado 902265" d="M13.893,24.17c.027.144.048.29.066.437a5.593,5.593,0,0,0-2.76-4.256V5.6A2.8,2.8,0,0,0,8.4,2.8V28.694A5.6,5.6,0,0,0,13.893,24.17Z" fill="#dce1eb"/>
            <path id="Trazado_902266" data-name="Trazado 902266" d="M8.4,28.694v2.1A5.521,5.521,0,0,0,14,25.353a5.624,5.624,0,0,0-.04-.746c-.018-.147-.039-.293-.066-.437A5.6,5.6,0,0,1,8.4,28.694Z" fill="#afb4c8"/>
            <path id="Trazado_902267" data-name="Trazado 902267" d="M8.4,28.694v2.1A5.521,5.521,0,0,0,14,25.353a5.624,5.624,0,0,0-.04-.746c-.018-.147-.039-.293-.066-.437A5.6,5.6,0,0,1,8.4,28.694Z" fill="#f03049"/>
            <path id="Trazado_902268" data-name="Trazado 902268" d="M11.2,20.351V9.1H8.4v19.6a5.6,5.6,0,0,0,5.489-4.506,5.59,5.59,0,0,0-2.69-3.837" fill="#ff636e"/>
            <path id="Trazado_902269" data-name="Trazado 902269" d="M8.4,28.694v2.1a5.521,5.521,0,0,1-5.6-5.441,5.624,5.624,0,0,1,.04-.746c.018-.147.039-.293.066-.437A5.6,5.6,0,0,0,8.4,28.694" fill="#a30034"/>
            <path id="Trazado_902270" data-name="Trazado 902270" d="M5.6,20.351V9.1H8.4v19.6a5.6,5.6,0,0,1-5.488-4.506A5.586,5.586,0,0,1,5.6,20.351" fill="#d1093a"/>
            <path id="Trazado_902271" data-name="Trazado 902271" d="M9.84,23.857a1.432,1.432,0,0,1,1.944.319,1.431,1.431,0,0,1,.318,1.943,1.431,1.431,0,0,1-1.943-.318,1.432,1.432,0,0,1-.319-1.944" fill="#f6fafd"/>
            <path id="Trazado_902272" data-name="Trazado 902272" d="M11.1,22.33a.719.719,0,0,1,.976.16.719.719,0,0,1,.16.976.719.719,0,0,1-.976-.16.719.719,0,0,1-.16-.976" fill="#f6fafd"/>
            <path id="Trazado_902273" data-name="Trazado 902273" d="M24.5,7a4.2,4.2,0,1,1-4.2,4.2A4.2,4.2,0,0,1,24.5,7" fill="#ffd747"/>
            <path id="Trazado_902274" data-name="Trazado 902274" d="M21.7,8.4c0-.115.008-.227.017-.339a4.2,4.2,0,1,0,6.964,3.478A4.194,4.194,0,0,1,21.7,8.4Z" fill="#ffb13b"/>
            <path id="Trazado_902275" data-name="Trazado 902275" d="M21,11.2a3.5,3.5,0,0,1,6.8-1.168l1.32-.467A4.9,4.9,0,0,0,19.6,11.2Z"/>
            <path id="Trazado_902276" data-name="Trazado 902276" d="M28,11.2a3.5,3.5,0,0,1-6.8,1.165l-1.32.466A4.9,4.9,0,0,0,29.4,11.2Z"/>
            <rect id="Rectángulo_403299" data-name="Rectángulo 403299" width="1.4" height="2.799" transform="translate(23.796 2.799)"/>
            <rect id="Rectángulo_403300" data-name="Rectángulo 403300" width="1.4" height="2.799" transform="translate(23.796 16.796)"/>
            <rect id="Rectángulo_403301" data-name="Rectángulo 403301" width="2.799" height="1.4" transform="translate(30.095 10.498)"/>
            <rect id="Rectángulo_403302" data-name="Rectángulo 403302" width="2.799" height="1.4" transform="translate(16.098 10.498)"/>
            <rect id="Rectángulo_403303" data-name="Rectángulo 403303" width="2.799" height="1.4" transform="translate(27.957 6.746) rotate(-45)"/>
            <rect id="Rectángulo_403304" data-name="Rectángulo 403304" width="2.799" height="1.4" transform="translate(18.059 16.641) rotate(-45)"/>
            <rect id="Rectángulo_403305" data-name="Rectángulo 403305" width="1.4" height="2.799" transform="translate(27.956 15.653) rotate(-45)"/>
            <rect id="Rectángulo_403306" data-name="Rectángulo 403306" width="1.4" height="2.799" transform="translate(18.06 5.755) rotate(-45)"/>
            <rect id="Rectángulo_403307" data-name="Rectángulo 403307" width="1.4" height="1.4" transform="translate(2.801 15.397)"/>
            <path id="Trazado_902277" data-name="Trazado 902277" d="M14,18.935V5.6a5.6,5.6,0,0,0-11.2,0V14H4.2V5.6a4.2,4.2,0,1,1,8.4,0H9.1V7h3.5V8.4H6.3V5.6a2.1,2.1,0,0,1,4.133-.526l1.355-.35A3.5,3.5,0,0,0,4.9,5.6V19.963a6.3,6.3,0,1,0,7,0V18.9H10.5v1.455a.7.7,0,0,0,.35.6,4.9,4.9,0,1,1-4.9,0,.7.7,0,0,0,.35-.6V9.8h6.3v1.4H9.1v1.4h3.5V14H9.1v1.4h3.5v1.4H9.1v1.4h3.5v1.06a.7.7,0,0,0,.254.54,7,7,0,1,1-8.906,0,.7.7,0,0,0,.254-.54V18.2H2.8v.739a8.4,8.4,0,1,0,11.2,0"/>
          </g>
        </g>
      </g>
    </g>
  </g>
</svg>
