<svg xmlns="http://www.w3.org/2000/svg" width="56" height="56" viewBox="0 0 56 56">
  <g id="Grupo_1106498" data-name="Grupo 1106498" transform="translate(-180 -7546)">
    <g id="Grupo_1106446" data-name="Grupo 1106446" transform="translate(0 2899)">
      <circle id="Elipse_12296" data-name="Elipse 12296" cx="28" cy="28" r="28" transform="translate(180 4647)" fill="#faf8f2"/>
      <path id="Elipse_12296_-_Contorno" data-name="Elipse 12296 - Contorno" d="M28,2A26.007,26.007,0,0,0,17.88,51.958,26.007,26.007,0,0,0,38.12,4.042,25.835,25.835,0,0,0,28,2m0-2A28,28,0,1,1,0,28,28,28,0,0,1,28,0Z" transform="translate(180 4647)" fill="#d0b57a"/>
    </g>
    <g id="comida-dietetica" transform="translate(189.91 7559)">
      <path id="Trazado_902680" data-name="Trazado 902680" d="M45.8,16.925a5.1,5.1,0,0,1,.014-3.277,2.385,2.385,0,0,1,.98-1.069,1.851,1.851,0,0,1,1.477-.131,2.136,2.136,0,0,1,.858.539s1.659-3.647,3.647-1.659-1.659,3.647-1.659,3.647a2.139,2.139,0,0,1-.891,3.413,5.478,5.478,0,0,1-3.084-.1l-.08.033a1.816,1.816,0,0,0-.323-.436l-.52-.52a1.815,1.815,0,0,0-.6-.4Z" transform="translate(-22.011 -5.703)" fill="#c8ea61"/>
      <path id="Trazado_902681" data-name="Trazado 902681" d="M54.362,11.523a2.3,2.3,0,0,0-.555-.42,6.45,6.45,0,0,1-3.195,3.7c-.408.408-1.171,1.527-.125,2.119a.361.361,0,0,1,0,.62,6.2,6.2,0,0,1-1.981.748,1.838,1.838,0,0,1,.143.226l.08-.033a5.478,5.478,0,0,0,3.084.1A2.139,2.139,0,0,0,52.7,15.17S56.35,13.511,54.362,11.523Z" transform="translate(-23.595 -5.898)" fill="#95cc2d"/>
      <path id="Trazado_902682" data-name="Trazado 902682" d="M31.828,8.344c2-1,3.53.136,3.394,1.72a2.385,2.385,0,0,0-.98,1.069,5.1,5.1,0,0,0-.014,3.277l-.183.042a1.853,1.853,0,0,0-1.139-.084l-.53.131a3.445,3.445,0,0,0-1.842,1.177L28.7,17.939A2.3,2.3,0,0,0,27.052,16.6,10.311,10.311,0,0,0,24.8,12.094c-2.344-2.344-.469-5.156,2.344-3.75A2.3,2.3,0,0,1,29.484,6a2.268,2.268,0,0,1,1.584.544A2.682,2.682,0,0,1,31.828,8.344Z" transform="translate(-10.436 -3.187)" fill="#c8ea61"/>
      <path id="Trazado_902683" data-name="Trazado 902683" d="M34.173,16c-.469.469-.469,1.875-.469,2.344-.937,1.875-2.344-.469-3.75,0a2.623,2.623,0,0,0-.923,1.212,14.936,14.936,0,0,1,.833,2.36,2.3,2.3,0,0,1,1.645,1.336l1.837-2.264a3.445,3.445,0,0,1,1.842-1.177l.53-.131a1.853,1.853,0,0,1,1.139.084l.183-.042a7,7,0,0,1-.237-1.154,6.385,6.385,0,0,1-1.225-.224C34.642,17.875,35.579,16,34.173,16Z" transform="translate(-13.25 -8.5)" fill="#deeda6"/>
      <path id="Trazado_902684" data-name="Trazado 902684" d="M37.861,25.229a1.841,1.841,0,0,1,.159,1.3l-.131.53A3.445,3.445,0,0,1,36.713,28.9l-2.447,1.988H28.2l2.869-3.53L32.906,25.1a3.445,3.445,0,0,1,1.842-1.177l.53-.131a1.853,1.853,0,0,1,1.139.084,1.815,1.815,0,0,1,.6.4l.52.52A1.816,1.816,0,0,1,37.861,25.229Z" transform="translate(-12.808 -12.61)" fill="#ffb03e"/>
      <path id="Trazado_902685" data-name="Trazado 902685" d="M38.02,27.267l-.131.53a3.445,3.445,0,0,1-1.177,1.842l-2.447,1.988H28.2l1.523-1.875h2.345a3.549,3.549,0,0,0,2.238-.795l1.469-1.193a3.445,3.445,0,0,0,1.177-1.842l.131-.53a1.834,1.834,0,0,0,.047-.272l.408.408a1.815,1.815,0,0,1,.323.436A1.841,1.841,0,0,1,38.02,27.267Z" transform="translate(-12.808 -13.345)" fill="#f7931e"/>
      <path id="Trazado_902686" data-name="Trazado 902686" d="M29.453,39a.939.939,0,0,1,.937,1c-.164,2.269-.914,7.786-4.411,10.1a.894.894,0,0,1-.511.15H10.014A.9.9,0,0,1,9.5,50.1C6.011,47.789,5.256,42.272,5.1,40a.932.932,0,0,1,.933-1h23.4Z" transform="translate(-0.533 -20.719)" fill="#f2f2f2"/>
      <path id="Trazado_902687" data-name="Trazado 902687" d="M33.209,40c-.164,2.269-.914,7.786-4.411,10.1a.894.894,0,0,1-.511.15H12.833a.9.9,0,0,1-.511-.15A7.294,7.294,0,0,1,10.4,48.192l.047.033a.9.9,0,0,0,.511.15H26.413a.894.894,0,0,0,.511-.15c3.108-2.053,4.045-6.638,4.331-9.225h1.017a.939.939,0,0,1,.938,1Z" transform="translate(-3.352 -20.719)" fill="#a2b1c2"/>
      <path id="Trazado_902688" data-name="Trazado 902688" d="M48.106,28.327s1.875,0,.938,1.875c0,0,2.344.938-.469,2.344H41.14l2.447-1.987a3.445,3.445,0,0,0,1.177-1.842l.131-.53a1.841,1.841,0,0,0-.159-1.3l.08-.033a5.478,5.478,0,0,0,3.084.1A1.438,1.438,0,0,1,48.106,28.327Z" transform="translate(-19.683 -14.264)" fill="#6e9617"/>
      <path id="Trazado_902689" data-name="Trazado 902689" d="M43.889,1C48.108,1,45.3,4.75,45.3,4.75a2.713,2.713,0,0,1-.286,2.527,1.851,1.851,0,0,0-1.477.131c.136-1.584-1.392-2.723-3.394-1.72a2.682,2.682,0,0,0-.759-1.8,3.2,3.2,0,0,1,1.7-1.012S40.139,1,43.889,1Z" transform="translate(-18.748 -0.531)" fill="#6e9617"/>
      <path id="Trazado_902690" data-name="Trazado 902690" d="M20.783,29.865l-2.869,3.53H8.933a8.079,8.079,0,0,1-.019-2.344c.469-3.75,4.219-2.344,4.219-2.344l.722.361a2.346,2.346,0,0,0,.6.211,2.411,2.411,0,0,0,.952.023,2.349,2.349,0,0,0,.755-.234l.722-.361a4.457,4.457,0,0,1,2.255-.178,2.3,2.3,0,0,1,1.645,1.336Z" transform="translate(-2.523 -15.114)" fill="#e45081"/>
      <path id="Trazado_902691" data-name="Trazado 902691" d="M19.308,28.716a6.26,6.26,0,0,1-2.419,2.477c-2.227,1.591-5.1,1.454-8.039,1.349a7.107,7.107,0,0,0,.089,1H17.92l2.869-3.53A2.28,2.28,0,0,0,19.308,28.716Z" transform="translate(-2.529 -15.255)" fill="#ab3c61"/>
      <path id="Trazado_902692" data-name="Trazado 902692" d="M20,23h1.875a6.309,6.309,0,0,0-.539,3.408,2.411,2.411,0,0,1-.952-.023A17.659,17.659,0,0,1,20,23Z" transform="translate(-8.452 -12.219)" fill="#c8ea61"/>
      <ellipse id="Elipse_12303" data-name="Elipse 12303" cx="0.938" cy="0.703" rx="0.938" ry="0.703" transform="translate(7.798 14.531)" fill="#f4b9cd"/>
      <path id="Trazado_902693" data-name="Trazado 902693" d="M10.129,47.294A9.6,9.6,0,0,1,8.9,43.347a.566.566,0,0,1,.562-.608h.952a.561.561,0,0,1,.561.531l.207,3.714A.562.562,0,0,1,10.129,47.294Z" transform="translate(-2.552 -22.705)" fill="#fff"/>
      <g id="Grupo_1106497" data-name="Grupo 1106497" transform="translate(4.09 0)">
        <path id="Trazado_902694" data-name="Trazado 902694" d="M52.8,13.965l-3.977,3.977a.469.469,0,1,0,.663.663l3.977-3.977a.469.469,0,1,0-.663-.663Z" transform="translate(-27.782 -7.346)" fill="#31293a"/>
        <path id="Trazado_902695" data-name="Trazado 902695" d="M31.8,7.169a2.066,2.066,0,0,0-.7-1.875,2.063,2.063,0,0,0-1.875-.7,3.844,3.844,0,0,0-2.254,1.971c-.021-.013-.044-.021-.066-.034a3.2,3.2,0,0,0,.169-2.242c.378-.565,1.237-2.051.679-3.169C27.38.376,26.5,0,25.142,0c-1.658,0-2.724.364-3.167,1.082a1.494,1.494,0,0,0-.208.954,3.7,3.7,0,0,0-1.187.7,2.892,2.892,0,0,0-1.531-.391,2.626,2.626,0,0,0-2.733,2.145,2.581,2.581,0,0,0-3.043.783c-.669.928-.694,2.514.757,3.965a8.8,8.8,0,0,1,1.94,3.63,4.839,4.839,0,0,0-1.773.287l-.045.02-.721.36c-.043.022-.088.038-.133.056a6.144,6.144,0,0,1,.546-2.6.469.469,0,0,0-.42-.677H11.548a.469.469,0,0,0-.469.469,16.665,16.665,0,0,0,.24,2.643l-.5-.249a.484.484,0,0,0-.045-.02,4.357,4.357,0,0,0-3.4.149,3.286,3.286,0,0,0-1.453,2.575,9.064,9.064,0,0,0-.046,1.934H5.5a1.4,1.4,0,0,0-1.4,1.5c.166,2.335.95,8.028,4.616,10.457A1.392,1.392,0,0,0,9.482,30H24.935a1.393,1.393,0,0,0,.773-.226c3.665-2.428,4.449-8.122,4.616-10.457a1.408,1.408,0,0,0-.373-1.056c-.014-.015-.032-.026-.047-.041a1.634,1.634,0,0,0,.84-1.343,1.52,1.52,0,0,0-.784-1.151,1.6,1.6,0,0,0-.06-1.415,1.528,1.528,0,0,0-.938-.642,1.925,1.925,0,0,0-.1-.781,2.575,2.575,0,0,0,1.316-1.8,2.389,2.389,0,0,0-.353-1.664A3.845,3.845,0,0,0,31.8,7.169ZM22.458,2.795a.469.469,0,0,0,.291-.661.644.644,0,0,1,.023-.56c.119-.191.586-.637,2.37-.637.671,0,1.523.1,1.771.6.345.689-.438,2-.74,2.4a.478.478,0,0,0-.046.486,2.21,2.21,0,0,1-.117,1.791,2.335,2.335,0,0,0-.7,0c-.029,0-.056.014-.084.019a2.279,2.279,0,0,0-.96-1.5,2.785,2.785,0,0,0-2.479-.237,3.017,3.017,0,0,0-.5-1.118,3.249,3.249,0,0,1,1.182-.576Zm-7.766,5.78c-1.062-1.062-1.1-2.148-.66-2.754a1.882,1.882,0,0,1,2.462-.245.469.469,0,0,0,.679-.42,1.875,1.875,0,0,1,3.75,0,.469.469,0,0,0,.679.419A2.109,2.109,0,0,1,23.734,5.5a1.366,1.366,0,0,1,.578,1.124,2.975,2.975,0,0,0-.925,1.11,4.8,4.8,0,0,0-.21,2.941,2.287,2.287,0,0,0-.82.048l-.531.132a3.933,3.933,0,0,0-2.092,1.335L18.31,13.946a2.716,2.716,0,0,0-1.316-.906,10.192,10.192,0,0,0-2.3-4.465Zm4.142,7.657-.647-.648.594-.732.385.385a.469.469,0,1,0,.663-.663l-.453-.453.891-1.1.888.888a.469.469,0,0,0,.663-.663l-.9-.9a2.991,2.991,0,0,1,1.14-.578l.53-.131a1.369,1.369,0,0,1,1.295.36l.52.52a1.373,1.373,0,0,1,.359,1.3l-.131.527a2.991,2.991,0,0,1-1.018,1.592l-2.317,1.883H16.377l1.216-1.5.579.579a.469.469,0,0,0,.663-.663Zm-6.1-4.982a6.728,6.728,0,0,0-.364,2.5l-.039,0a17.651,17.651,0,0,1-.3-2.5h.7ZM6.857,16a2.41,2.41,0,0,1,1-1.888,3.41,3.41,0,0,1,2.565-.082l.7.348a3.075,3.075,0,0,0,2.724,0l.7-.349c.245-.087,2.251-.746,3.15.676l-2.528,3.112H6.824A8.064,8.064,0,0,1,6.857,16Zm18.333,13a.467.467,0,0,1-.255.071H9.482a.467.467,0,0,1-.255-.071c-3.319-2.2-4.042-7.545-4.2-9.742a.461.461,0,0,1,.123-.351.466.466,0,0,1,.345-.15H28.92a.466.466,0,0,1,.345.149.461.461,0,0,1,.124.351c-.157,2.2-.881,7.544-4.2,9.742ZM29.1,14.805c.106.174.049.5-.161.922a.47.47,0,0,0,.244.644c.25.1.615.355.622.544,0,.037-.026.373-1.034.9h-6l1.42-1.154a3.94,3.94,0,0,0,1.338-2.094l.131-.529a2.279,2.279,0,0,0,.048-.821,6.675,6.675,0,0,0,1.279.134,4.394,4.394,0,0,0,.994-.113,1.346,1.346,0,0,1-.019.712.469.469,0,0,0,.085.4.473.473,0,0,0,.367.183.925.925,0,0,1,.682.275ZM30.877,7c-.153.847-1.469,1.619-1.963,1.845a.469.469,0,0,0-.137.758,1.544,1.544,0,0,1,.478,1.334,1.731,1.731,0,0,1-1.019,1.23,4.637,4.637,0,0,1-2.931-.017,2.282,2.282,0,0,0-.246-.3l-.52-.52a2.237,2.237,0,0,0-.3-.245,4.646,4.646,0,0,1-.017-2.931,1.729,1.729,0,0,1,1.23-1.02,1.542,1.542,0,0,1,1.334.478.469.469,0,0,0,.758-.137c.226-.494,1-1.809,1.845-1.963a1.183,1.183,0,0,1,1.044.442A1.178,1.178,0,0,1,30.877,7Z" transform="translate(-4.09 0)" fill="#31293a"/>
        <path id="Trazado_902696" data-name="Trazado 902696" d="M30.615,16.764a.469.469,0,0,0,.21-.629l-.937-1.875a.469.469,0,1,0-.839.42l.938,1.875a.47.47,0,0,0,.629.21Z" transform="translate(-17.323 -7.438)" fill="#31293a"/>
        <path id="Trazado_902697" data-name="Trazado 902697" d="M38.259,15.826a.47.47,0,0,0,.629-.21l.469-.938a.469.469,0,1,0-.839-.42l-.469.937A.469.469,0,0,0,38.259,15.826Z" transform="translate(-22.105 -7.437)" fill="#31293a"/>
        <path id="Trazado_902698" data-name="Trazado 902698" d="M46.354,5.8a.48.48,0,0,0,.114.014.469.469,0,0,0,.454-.355l.469-1.875a.469.469,0,0,0-.91-.227L46.013,5.23A.469.469,0,0,0,46.354,5.8Z" transform="translate(-26.354 -1.594)" fill="#31293a"/>
        <path id="Trazado_902699" data-name="Trazado 902699" d="M52.2,32.049l-.937.469a.469.469,0,0,0,.419.839l.938-.469a.469.469,0,0,0-.419-.839Z" transform="translate(-29.011 -17)" fill="#31293a"/>
      </g>
    </g>
  </g>
</svg>
