<svg xmlns="http://www.w3.org/2000/svg" width="56" height="56" viewBox="0 0 56 56">
  <g id="Grupo_1106537" data-name="Grupo 1106537" transform="translate(-180 -4553)">
    <g id="Grupo_1106422" data-name="Grupo 1106422" transform="translate(0 -94)">
      <circle id="Elipse_12296" data-name="Elipse 12296" cx="28" cy="28" r="28" transform="translate(180 4647)" fill="#faf8f2"/>
      <path id="Elipse_12296_-_Contorno" data-name="Elipse 12296 - Contorno" d="M28,2A26.007,26.007,0,0,0,17.88,51.958,26.007,26.007,0,0,0,38.12,4.042,25.835,25.835,0,0,0,28,2m0-2A28,28,0,1,1,0,28,28,28,0,0,1,28,0Z" transform="translate(180 4647)" fill="#d0b57a"/>
    </g>
    <g id="calendario_1_" data-name="calendario (1)" transform="translate(176.442 4565)">
      <g id="Grupo_1106535" data-name="Grupo 1106535" transform="translate(17.016 0.458)">
        <g id="Grupo_1106534" data-name="Grupo 1106534" transform="translate(0)">
          <path id="Trazado_902821" data-name="Trazado 902821" d="M37.647,359.447H26.083a2.024,2.024,0,0,1-2.024-2.024V355.4H39.591Z" transform="translate(-24.059 -334.15)" fill="#d3dcfb"/>
          <path id="Trazado_902822" data-name="Trazado 902822" d="M50.37,78.826V92.992H26.083a2.024,2.024,0,0,1-2.024-2.024V78.826l14.167-5.059Z" transform="translate(-24.059 -69.718)" fill="#ebf5fc"/>
          <g id="Grupo_1106533" data-name="Grupo 1106533" transform="translate(2.024 11.131)">
            <path id="Trazado_902823" data-name="Trazado 902823" d="M58.738,191.758H57.692a.489.489,0,0,1-.489-.489v-1.046a.489.489,0,0,1,.489-.489h1.046a.489.489,0,0,1,.489.489v1.046A.489.489,0,0,1,58.738,191.758Z" transform="translate(-57.203 -189.734)" fill="#3c58a0"/>
            <path id="Trazado_902824" data-name="Trazado 902824" d="M125.005,191.758h-1.046a.489.489,0,0,1-.489-.489v-1.046a.489.489,0,0,1,.489-.489h1.046a.489.489,0,0,1,.489.489v1.046A.489.489,0,0,1,125.005,191.758Z" transform="translate(-119.422 -189.734)" fill="#3c58a0"/>
            <path id="Trazado_902825" data-name="Trazado 902825" d="M191.271,191.758h-1.047a.489.489,0,0,1-.489-.489v-1.046a.489.489,0,0,1,.489-.489h1.047a.489.489,0,0,1,.489.489v1.046A.489.489,0,0,1,191.271,191.758Z" transform="translate(-181.641 -189.734)" fill="#3c58a0"/>
            <path id="Trazado_902826" data-name="Trazado 902826" d="M257.538,191.758h-1.046a.489.489,0,0,1-.489-.489v-1.046a.489.489,0,0,1,.489-.489h1.046a.489.489,0,0,1,.489.489v1.046A.489.489,0,0,1,257.538,191.758Z" transform="translate(-243.86 -189.734)" fill="#3c58a0"/>
            <path id="Trazado_902827" data-name="Trazado 902827" d="M323.794,191.758h-1.046a.489.489,0,0,1-.489-.489v-1.046a.489.489,0,0,1,.489-.489h1.046a.489.489,0,0,1,.489.489v1.046A.489.489,0,0,1,323.794,191.758Z" transform="translate(-306.069 -189.734)" fill="#3c58a0"/>
            <path id="Trazado_902828" data-name="Trazado 902828" d="M390.06,191.758h-1.047a.489.489,0,0,1-.489-.489v-1.046a.489.489,0,0,1,.489-.489h1.047a.489.489,0,0,1,.489.489v1.046A.489.489,0,0,1,390.06,191.758Z" transform="translate(-368.288 -189.734)" fill="#3c58a0"/>
            <path id="Trazado_902829" data-name="Trazado 902829" d="M58.738,258.024H57.692a.489.489,0,0,1-.489-.489v-1.046a.489.489,0,0,1,.489-.489h1.046a.489.489,0,0,1,.489.489v1.046A.489.489,0,0,1,58.738,258.024Z" transform="translate(-57.203 -251.952)" fill="#3c58a0"/>
            <path id="Trazado_902830" data-name="Trazado 902830" d="M125.005,258.024h-1.046a.489.489,0,0,1-.489-.489v-1.046a.489.489,0,0,1,.489-.489h1.046a.489.489,0,0,1,.489.489v1.046A.489.489,0,0,1,125.005,258.024Z" transform="translate(-119.422 -251.952)" fill="#3c58a0"/>
            <path id="Trazado_902831" data-name="Trazado 902831" d="M191.271,258.024h-1.047a.489.489,0,0,1-.489-.489v-1.046a.489.489,0,0,1,.489-.489h1.047a.489.489,0,0,1,.489.489v1.046A.489.489,0,0,1,191.271,258.024Z" transform="translate(-181.641 -251.952)" fill="#3c58a0"/>
            <path id="Trazado_902832" data-name="Trazado 902832" d="M258.027,258.024v-1.518a.506.506,0,0,0-.506-.506h-1.012a.506.506,0,0,0-.506.506v1.012a.506.506,0,0,0,.506.506Z" transform="translate(-243.86 -251.952)" fill="#3c58a0"/>
            <path id="Trazado_902833" data-name="Trazado 902833" d="M58.738,324.291H57.692a.489.489,0,0,1-.489-.489v-1.047a.489.489,0,0,1,.489-.489h1.046a.489.489,0,0,1,.489.489V323.8A.489.489,0,0,1,58.738,324.291Z" transform="translate(-57.203 -314.172)" fill="#3c58a0"/>
            <path id="Trazado_902834" data-name="Trazado 902834" d="M125.005,324.291h-1.046a.489.489,0,0,1-.489-.489v-1.047a.489.489,0,0,1,.489-.489h1.046a.489.489,0,0,1,.489.489V323.8A.489.489,0,0,1,125.005,324.291Z" transform="translate(-119.422 -314.172)" fill="#3c58a0"/>
            <path id="Trazado_902835" data-name="Trazado 902835" d="M191.271,324.291h-1.047a.489.489,0,0,1-.489-.489v-1.047a.489.489,0,0,1,.489-.489h1.047a.489.489,0,0,1,.489.489V323.8A.489.489,0,0,1,191.271,324.291Z" transform="translate(-181.641 -314.172)" fill="#3c58a0"/>
          </g>
          <path id="Trazado_902836" data-name="Trazado 902836" d="M394.818,189.733h-1.046a.486.486,0,0,0-.179.034.489.489,0,0,1,.309.454v1.046a.488.488,0,0,1-.309.454.487.487,0,0,0,.179.034h1.046a.489.489,0,0,0,.489-.489v-1.046A.489.489,0,0,0,394.818,189.733Z" transform="translate(-371.021 -178.602)" fill="#2a428c"/>
          <path id="Trazado_902837" data-name="Trazado 902837" d="M328.552,189.733h-1.046a.487.487,0,0,0-.179.034.489.489,0,0,1,.309.454v1.046a.488.488,0,0,1-.309.454.487.487,0,0,0,.179.034h1.046a.489.489,0,0,0,.489-.489v-1.046A.489.489,0,0,0,328.552,189.733Z" transform="translate(-308.803 -178.602)" fill="#2a428c"/>
          <path id="Trazado_902838" data-name="Trazado 902838" d="M262.3,189.733h-1.046a.487.487,0,0,0-.179.034.489.489,0,0,1,.31.454v1.046a.488.488,0,0,1-.31.454.487.487,0,0,0,.179.034H262.3a.489.489,0,0,0,.489-.489v-1.046A.489.489,0,0,0,262.3,189.733Z" transform="translate(-246.593 -178.602)" fill="#2a428c"/>
          <path id="Trazado_902839" data-name="Trazado 902839" d="M196.029,189.733h-1.046a.487.487,0,0,0-.179.034.489.489,0,0,1,.309.454v1.046a.488.488,0,0,1-.309.454.487.487,0,0,0,.179.034h1.046a.489.489,0,0,0,.489-.489v-1.046A.489.489,0,0,0,196.029,189.733Z" transform="translate(-184.374 -178.602)" fill="#2a428c"/>
          <path id="Trazado_902840" data-name="Trazado 902840" d="M129.763,189.733h-1.046a.487.487,0,0,0-.179.034.489.489,0,0,1,.309.454v1.046a.488.488,0,0,1-.309.454.487.487,0,0,0,.179.034h1.046a.489.489,0,0,0,.489-.489v-1.046A.489.489,0,0,0,129.763,189.733Z" transform="translate(-122.155 -178.602)" fill="#2a428c"/>
          <path id="Trazado_902841" data-name="Trazado 902841" d="M63.5,189.733H62.449a.487.487,0,0,0-.179.034.489.489,0,0,1,.309.454v1.046a.488.488,0,0,1-.309.454.487.487,0,0,0,.179.034H63.5a.489.489,0,0,0,.489-.489v-1.046A.489.489,0,0,0,63.5,189.733Z" transform="translate(-59.936 -178.602)" fill="#2a428c"/>
          <path id="Trazado_902842" data-name="Trazado 902842" d="M63.5,256H62.449a.487.487,0,0,0-.179.034.489.489,0,0,1,.309.454v1.046a.488.488,0,0,1-.309.454.488.488,0,0,0,.179.034H63.5a.489.489,0,0,0,.489-.489v-1.047A.489.489,0,0,0,63.5,256Z" transform="translate(-59.936 -240.822)" fill="#2a428c"/>
          <path id="Trazado_902843" data-name="Trazado 902843" d="M63.5,322.267H62.449a.486.486,0,0,0-.179.034.488.488,0,0,1,.309.454V323.8a.488.488,0,0,1-.309.454.486.486,0,0,0,.179.034H63.5a.489.489,0,0,0,.489-.489v-1.047A.489.489,0,0,0,63.5,322.267Z" transform="translate(-59.936 -303.041)" fill="#2a428c"/>
          <path id="Trazado_902844" data-name="Trazado 902844" d="M129.763,256h-1.046a.487.487,0,0,0-.179.034.489.489,0,0,1,.309.454v1.046a.488.488,0,0,1-.309.454.487.487,0,0,0,.179.034h1.046a.489.489,0,0,0,.489-.489v-1.047A.489.489,0,0,0,129.763,256Z" transform="translate(-122.155 -240.822)" fill="#2a428c"/>
          <path id="Trazado_902845" data-name="Trazado 902845" d="M129.763,322.267h-1.046a.486.486,0,0,0-.179.034.489.489,0,0,1,.309.454V323.8a.488.488,0,0,1-.309.454.486.486,0,0,0,.179.034h1.046a.489.489,0,0,0,.489-.489v-1.047A.489.489,0,0,0,129.763,322.267Z" transform="translate(-122.155 -303.041)" fill="#2a428c"/>
          <path id="Trazado_902846" data-name="Trazado 902846" d="M196.029,256h-1.046a.487.487,0,0,0-.179.034.489.489,0,0,1,.309.454v1.046a.488.488,0,0,1-.309.454.487.487,0,0,0,.179.034h1.046a.489.489,0,0,0,.489-.489v-1.047A.489.489,0,0,0,196.029,256Z" transform="translate(-184.374 -240.822)" fill="#2a428c"/>
          <path id="Trazado_902847" data-name="Trazado 902847" d="M262.784,258.024v-1.535A.489.489,0,0,0,262.3,256h-1.046a.487.487,0,0,0-.179.034.489.489,0,0,1,.31.454v1.046a.488.488,0,0,1-.31.454.487.487,0,0,0,.179.034h1.535Z" transform="translate(-246.593 -240.822)" fill="#2a428c"/>
          <path id="Trazado_902848" data-name="Trazado 902848" d="M196.029,322.267h-1.046a.486.486,0,0,0-.179.034.488.488,0,0,1,.309.454V323.8a.488.488,0,0,1-.309.454.486.486,0,0,0,.179.034h1.046a.489.489,0,0,0,.489-.489v-1.047A.489.489,0,0,0,196.029,322.267Z" transform="translate(-184.374 -303.041)" fill="#2a428c"/>
          <path id="Trazado_902849" data-name="Trazado 902849" d="M431.808,147.01v14.752h1.406V147.6Z" transform="translate(-406.903 -138.489)" fill="#d3dcfb"/>
          <path id="Trazado_902850" data-name="Trazado 902850" d="M50.37,47.717v-5.06a2.024,2.024,0,0,0-2.024-2.024H26.083a2.024,2.024,0,0,0-2.024,2.024v5.06Z" transform="translate(-24.059 -38.61)" fill="#ff8636"/>
          <path id="Trazado_902851" data-name="Trazado 902851" d="M125.989,11.295a1.265,1.265,0,1,1-2.53,0V8.765a1.265,1.265,0,1,1,2.53,0Z" transform="translate(-117.388 -7.5)" fill="#ebf5fc"/>
          <path id="Trazado_902852" data-name="Trazado 902852" d="M316.517,11.295a1.265,1.265,0,1,1-2.53,0V8.765a1.265,1.265,0,1,1,2.53,0Z" transform="translate(-296.278 -7.5)" fill="#ebf5fc"/>
          <path id="Trazado_902853" data-name="Trazado 902853" d="M323.907,7.5a1.259,1.259,0,0,0-.7.213,1.263,1.263,0,0,1,.563,1.052v2.53a1.263,1.263,0,0,1-.563,1.052,1.265,1.265,0,0,0,1.967-1.052V8.765A1.265,1.265,0,0,0,323.907,7.5Z" transform="translate(-304.933 -7.5)" fill="#d3dcfb"/>
          <path id="Trazado_902854" data-name="Trazado 902854" d="M133.38,7.5a1.259,1.259,0,0,0-.7.213,1.263,1.263,0,0,1,.563,1.052v2.53a1.263,1.263,0,0,1-.563,1.052,1.265,1.265,0,0,0,1.967-1.052V8.765A1.265,1.265,0,0,0,133.38,7.5Z" transform="translate(-126.044 -7.5)" fill="#d3dcfb"/>
          <path id="Trazado_902855" data-name="Trazado 902855" d="M400.089,40.633h-1.405a2.024,2.024,0,0,1,2.024,2.024v5.06h1.405V42.657A2.024,2.024,0,0,0,400.089,40.633Z" transform="translate(-375.802 -38.609)" fill="#cc6b2b"/>
        </g>
        <path id="Trazado_902873" data-name="Trazado 902873" d="M7.589,0A7.589,7.589,0,1,1,0,7.589,7.589,7.589,0,0,1,7.589,0Z" transform="translate(13.156 15.178)" fill="#1d98c6"/>
        <circle id="Elipse_12326" data-name="Elipse 12326" cx="5.565" cy="5.565" r="5.565" transform="translate(15.179 17.202)" fill="#ebf5fc"/>
        <path id="Trazado_902856" data-name="Trazado 902856" d="M352.894,256c-.237,0-.471.011-.7.033a7.589,7.589,0,0,1,0,15.113c.231.021.466.033.7.033a7.589,7.589,0,0,0,0-15.178Z" transform="translate(-332.149 -240.822)" fill="#177a9f"/>
        <path id="Trazado_902857" data-name="Trazado 902857" d="M352.9,289.133a5.626,5.626,0,0,0-.7.044,5.566,5.566,0,0,1,0,11.043,5.566,5.566,0,1,0,.7-11.087Z" transform="translate(-332.156 -271.931)" fill="#d3dcfb"/>
        <circle id="Elipse_12327" data-name="Elipse 12327" cx="1.012" cy="1.012" r="1.012" transform="translate(19.733 21.756)" fill="#ffdd40"/>
      </g>
      <g id="Grupo_1106536" data-name="Grupo 1106536" transform="translate(16.558 0)">
        <path id="Trazado_902858" data-name="Trazado 902858" d="M50.649,185.174H51.7a.948.948,0,0,0,.947-.947v-1.046a.948.948,0,0,0-.947-.947H50.649a.948.948,0,0,0-.947.947v1.046A.948.948,0,0,0,50.649,185.174Zm-.031-1.993a.031.031,0,0,1,.031-.031H51.7a.031.031,0,0,1,.031.031v1.046a.031.031,0,0,1-.031.031H50.649a.031.031,0,0,1-.031-.031Z" transform="translate(-47.678 -171.103)"/>
        <path id="Trazado_902859" data-name="Trazado 902859" d="M116.917,185.174h1.046a.948.948,0,0,0,.947-.947v-1.046a.948.948,0,0,0-.947-.947h-1.046a.948.948,0,0,0-.947.947v1.046A.948.948,0,0,0,116.917,185.174Zm-.031-1.993a.031.031,0,0,1,.031-.031h1.046a.031.031,0,0,1,.031.031v1.046a.031.031,0,0,1-.031.031h-1.046a.031.031,0,0,1-.031-.031Z" transform="translate(-109.898 -171.103)"/>
        <path id="Trazado_902860" data-name="Trazado 902860" d="M183.183,185.174h1.047a.948.948,0,0,0,.947-.947v-1.046a.948.948,0,0,0-.947-.947h-1.047a.948.948,0,0,0-.947.947v1.046A.948.948,0,0,0,183.183,185.174Zm-.031-1.993a.031.031,0,0,1,.031-.031h1.047a.031.031,0,0,1,.031.031v1.046a.031.031,0,0,1-.031.031h-1.047a.031.031,0,0,1-.031-.031Z" transform="translate(-172.116 -171.103)"/>
        <path id="Trazado_902861" data-name="Trazado 902861" d="M250.5,185.174a.948.948,0,0,0,.947-.947v-1.046a.948.948,0,0,0-.947-.947H249.45a.948.948,0,0,0-.947.947v1.046a.948.948,0,0,0,.947.947Zm-1.077-.947v-1.046a.031.031,0,0,1,.031-.031H250.5a.031.031,0,0,1,.031.031v1.046a.031.031,0,0,1-.031.031H249.45A.031.031,0,0,1,249.419,184.227Z" transform="translate(-234.336 -171.103)"/>
        <path id="Trazado_902862" data-name="Trazado 902862" d="M316.752,185.174a.948.948,0,0,0,.947-.947v-1.046a.948.948,0,0,0-.947-.947h-1.046a.948.948,0,0,0-.947.947v1.046a.948.948,0,0,0,.947.947Zm-1.077-.947v-1.046a.031.031,0,0,1,.031-.031h1.046a.031.031,0,0,1,.031.031v1.046a.031.031,0,0,1-.031.031h-1.046A.031.031,0,0,1,315.675,184.227Z" transform="translate(-296.545 -171.103)"/>
        <path id="Trazado_902863" data-name="Trazado 902863" d="M383.018,185.174a.948.948,0,0,0,.947-.947v-1.046a.948.948,0,0,0-.947-.947h-1.046a.948.948,0,0,0-.947.947v1.046a.948.948,0,0,0,.947.947Zm-1.077-.947v-1.046a.031.031,0,0,1,.031-.031h1.046a.031.031,0,0,1,.031.031v1.046a.031.031,0,0,1-.031.031h-1.046A.031.031,0,0,1,381.941,184.227Z" transform="translate(-358.763 -171.103)"/>
        <path id="Trazado_902864" data-name="Trazado 902864" d="M49.7,250.493a.948.948,0,0,0,.947.947H51.7a.948.948,0,0,0,.947-.947v-1.046a.948.948,0,0,0-.947-.947H50.649a.948.948,0,0,0-.947.947Zm.916-1.046a.031.031,0,0,1,.031-.031H51.7a.031.031,0,0,1,.031.031v1.046a.031.031,0,0,1-.031.031H50.649a.031.031,0,0,1-.031-.031Z" transform="translate(-47.678 -233.322)"/>
        <path id="Trazado_902865" data-name="Trazado 902865" d="M115.97,250.493a.948.948,0,0,0,.947.947h1.046a.948.948,0,0,0,.947-.947v-1.046a.948.948,0,0,0-.947-.947h-1.046a.948.948,0,0,0-.947.947Zm.916-1.046a.031.031,0,0,1,.031-.031h1.046a.031.031,0,0,1,.031.031v1.046a.031.031,0,0,1-.031.031h-1.046a.031.031,0,0,1-.031-.031Z" transform="translate(-109.898 -233.322)"/>
        <path id="Trazado_902866" data-name="Trazado 902866" d="M182.236,250.493a.948.948,0,0,0,.947.947h1.047a.948.948,0,0,0,.947-.947v-1.046a.948.948,0,0,0-.947-.947h-1.047a.948.948,0,0,0-.947.947Zm.916-1.046a.031.031,0,0,1,.031-.031h1.047a.031.031,0,0,1,.031.031v1.046a.031.031,0,0,1-.031.031h-1.047a.031.031,0,0,1-.031-.031Z" transform="translate(-172.116 -233.322)"/>
        <path id="Trazado_902867" data-name="Trazado 902867" d="M49.7,316.76a.948.948,0,0,0,.947.947H51.7a.948.948,0,0,0,.947-.947v-1.047a.948.948,0,0,0-.947-.947H50.649a.948.948,0,0,0-.947.947Zm.916-1.047a.031.031,0,0,1,.031-.031H51.7a.031.031,0,0,1,.031.031v1.047a.031.031,0,0,1-.031.031H50.649a.031.031,0,0,1-.031-.031Z" transform="translate(-47.678 -295.541)"/>
        <path id="Trazado_902868" data-name="Trazado 902868" d="M115.97,316.76a.948.948,0,0,0,.947.947h1.046a.948.948,0,0,0,.947-.947v-1.047a.948.948,0,0,0-.947-.947h-1.046a.948.948,0,0,0-.947.947Zm.916-1.047a.031.031,0,0,1,.031-.031h1.046a.031.031,0,0,1,.031.031v1.047a.031.031,0,0,1-.031.031h-1.046a.031.031,0,0,1-.031-.031Z" transform="translate(-109.898 -295.541)"/>
        <path id="Trazado_902869" data-name="Trazado 902869" d="M182.236,316.76a.948.948,0,0,0,.947.947h1.047a.948.948,0,0,0,.947-.947v-1.047a.948.948,0,0,0-.947-.947h-1.047a.948.948,0,0,0-.947.947Zm.916-1.047a.031.031,0,0,1,.031-.031h1.047a.031.031,0,0,1,.031.031v1.047a.031.031,0,0,1-.031.031h-1.047a.031.031,0,0,1-.031-.031Z" transform="translate(-172.116 -295.541)"/>
        <path id="Trazado_902870" data-name="Trazado 902870" d="M43.785,17.9V4.506A2.485,2.485,0,0,0,41.3,2.024H37.713v-.3a1.723,1.723,0,1,0-3.446,0v.3H26.075v-.3a1.723,1.723,0,0,0-3.446,0v.3H19.04a2.485,2.485,0,0,0-2.482,2.482v7.179a.458.458,0,1,0,.916,0V10.023H42.869v6.989a8.031,8.031,0,0,0-9.2-.711v-.159a.965.965,0,0,0-.964-.964H31.689a.965.965,0,0,0-.964.964v1.012a.965.965,0,0,0,.83.954,8.01,8.01,0,0,0-1.842,5.118c0,.016,0,.032,0,.048H19.04a1.567,1.567,0,0,1-1.566-1.566V13.517a.458.458,0,1,0-.916,0V23.732a2.485,2.485,0,0,0,2.482,2.482h1.108a.458.458,0,0,0,0-.916H19.04a1.567,1.567,0,0,1-1.566-1.566v-.1a2.47,2.47,0,0,0,1.566.558H29.772a8,8,0,0,0,.213,1.108h-8a.458.458,0,1,0,0,.916h8.309a8.046,8.046,0,1,0,13.5-8.317Zm-8.6-16.174a.807.807,0,1,1,1.613,0v2.53a.807.807,0,1,1-1.613,0Zm-11.637,0a.807.807,0,0,1,1.614,0v2.53a.807.807,0,1,1-1.614,0ZM19.04,2.94h3.589V4.048h-.554a.458.458,0,0,0,0,.916h.708a1.722,1.722,0,0,0,3.137,0h.708a.458.458,0,0,0,0-.916h-.554V2.94h8.191V4.048h-.554a.458.458,0,1,0,0,.916h.708a1.722,1.722,0,0,0,3.137,0h.708a.458.458,0,0,0,0-.916h-.554V2.94H41.3a1.567,1.567,0,0,1,1.566,1.566V7.083H17.474V4.506A1.567,1.567,0,0,1,19.04,2.94ZM17.474,9.107V8H42.869V9.107Zm14.167,7.035a.048.048,0,0,1,.048-.048H32.7a.048.048,0,0,1,.048.048v.792q-.163.13-.318.268h-.742a.048.048,0,0,1-.048-.048V16.142Zm6.119,14.214a7.131,7.131,0,1,1,7.131-7.131A7.139,7.139,0,0,1,37.761,30.357Z" transform="translate(-16.558 0)"/>
        <path id="Trazado_902871" data-name="Trazado 902871" d="M271.1,281.633a6.024,6.024,0,1,0,6.024,6.024A6.03,6.03,0,0,0,271.1,281.633Zm0,11.131a5.107,5.107,0,1,1,5.107-5.107A5.113,5.113,0,0,1,271.1,292.764Z" transform="translate(-249.896 -264.431)"/>
        <path id="Trazado_902872" data-name="Trazado 902872" d="M343.626,318.308h-1.133a1.476,1.476,0,0,0-.938-.938v-2.145a.458.458,0,1,0-.916,0v2.145a1.47,1.47,0,1,0,1.855,1.855h1.133a.458.458,0,1,0,0-.916Zm-2.53,1.012a.554.554,0,1,1,.554-.554A.554.554,0,0,1,341.1,319.32Z" transform="translate(-319.893 -295.541)"/>
      </g>
    </g>
  </g>
</svg>
