<svg xmlns="http://www.w3.org/2000/svg" width="56" height="56" viewBox="0 0 56 56">
  <g id="Grupo_1130700" data-name="Grupo 1130700" transform="translate(-180 -3568)">
    <circle id="Elipse_12293" data-name="Elipse 12293" cx="28" cy="28" r="28" transform="translate(180 3568)" fill="#faf8f2"/>
    <path id="Elipse_12293_-_Contorno" data-name="Elipse 12293 - Contorno" d="M28,2A26.007,26.007,0,0,0,17.88,51.958,26.007,26.007,0,0,0,38.12,4.042,25.835,25.835,0,0,0,28,2m0-2A28,28,0,1,1,0,28,28,28,0,0,1,28,0Z" transform="translate(180 3568)" fill="#d0b57a"/>
    <g id="ingredientes-de-lavado" transform="translate(192.015 3580)">
      <path id="Trazado_902068" data-name="Trazado 902068" d="M28.338,24.833,29.56,17.52V17h3.121v.52l1.394,8.353.166,1.009H28Z" transform="translate(-13.444 -8.158)" fill="#3f5093"/>
      <path id="Trazado_902069" data-name="Trazado 902069" d="M29,13h5.2v1.56a1.04,1.04,0,0,1-1.04,1.04H30.04A1.04,1.04,0,0,1,29,14.56Z" transform="translate(-13.924 -6.239)" fill="#bad3d6"/>
      <path id="Trazado_902070" data-name="Trazado 902070" d="M43,4h4.161V7.121H43Z" transform="translate(-20.642 -1.92)" fill="#bad3d6"/>
      <path id="Trazado_902071" data-name="Trazado 902071" d="M28.04,9H43.124a.52.52,0,0,1,.52.52v1.56a.52.52,0,0,1-.52.52H27.52a.52.52,0,0,1-.52-.52V10.04A1.04,1.04,0,0,1,28.04,9Z" transform="translate(-12.964 -4.319)" fill="#d1e6ea"/>
      <path id="Trazado_902072" data-name="Trazado 902072" d="M36.04,1h6.241a1.04,1.04,0,0,1,1.04,1.04V3.08H36.04a1.04,1.04,0,0,1,0-2.08Z" transform="translate(-16.803 -0.48)" fill="#a4bfc1"/>
      <path id="Trazado_902073" data-name="Trazado 902073" d="M17.156,36.41A1.9,1.9,0,0,1,17,35.64a2.076,2.076,0,0,1,1.566-2.013.3.3,0,0,1-.006-.068,1.56,1.56,0,0,1,2.751-1.009,2.074,2.074,0,0,1,3.188.458,2.1,2.1,0,0,1,1.342-.489,2.059,2.059,0,0,1,1.612.77,2.094,2.094,0,0,1,.988-.25,2.066,2.066,0,0,1,1.852,1.139,1.191,1.191,0,0,1,.489-.1,1.3,1.3,0,0,1,1.285,1.113,2.018,2.018,0,0,1,.536-.073,2.08,2.08,0,0,1,2.08,2.08,1.971,1.971,0,0,1-.14.744Z" transform="translate(-8.165 -15.355)" fill="#546cb7"/>
      <path id="Trazado_902074" data-name="Trazado 902074" d="M7.2,50.6l-.9,1.368a1.75,1.75,0,1,0,2.97,1.851c.016-.026.031-.057.047-.088l1.321-2.579L10.686,50Z" transform="translate(-2.892 -23.994)" fill="#96b23e"/>
      <path id="Trazado_902075" data-name="Trazado 902075" d="M7.2,41.09l-.9-1.368a1.75,1.75,0,1,1,2.97-1.851c.016.026.031.057.047.088l1.321,2.579.052,1.149Z" transform="translate(-2.892 -17.762)" fill="#96b23e"/>
      <path id="Trazado_902076" data-name="Trazado 902076" d="M7.956,47.844l-5.118.286a1.751,1.751,0,1,1-.1-3.5c.031,0,.062.005.1.005l5.118.286Z" transform="translate(-0.479 -21.418)" fill="#b0dd44"/>
      <path id="Trazado_902077" data-name="Trazado 902077" d="M14,43.2a5.111,5.111,0,0,0,5.049,5.2A43.268,43.268,0,0,0,37,43.873a.761.761,0,0,0,0-1.343A43.266,43.266,0,0,0,19.048,38,5.111,5.111,0,0,0,14,43.2Z" transform="translate(-6.725 -18.236)" fill="#e8823d"/>
      <path id="Trazado_902078" data-name="Trazado 902078" d="M23.918,6.761a.52.52,0,0,0,0,1.04h6.241a1.043,1.043,0,0,0,1.04-1.04V5.2a1.043,1.043,0,0,0-1.04-1.04H27.039V1.56A1.565,1.565,0,0,0,25.478,0H19.237a1.56,1.56,0,1,0,0,3.121h2.6v1.04H15.076a1.565,1.565,0,0,0-1.56,1.56v1.04a1.043,1.043,0,0,0,1.04,1.04v.52a1.56,1.56,0,0,0,.967,1.441l-1.066,6.366a2.617,2.617,0,0,0-1.279.39A2.085,2.085,0,0,0,9.9,17.892a2.6,2.6,0,0,0-1.581,2.393,2.511,2.511,0,0,0,.088.624,5.652,5.652,0,0,0-.635.775l-.884-1.722a.755.755,0,0,0-.062-.114A2.227,2.227,0,0,0,5.449,18.8a2.255,2.255,0,0,0-1.727.234,2.281,2.281,0,0,0-.749,3.209l.333.5L2.349,22.7l-.088-.005a2.273,2.273,0,1,0-.005,4.546c.042,0,.088-.005.135-.005l.915-.052-.333.5a2.269,2.269,0,1,0,3.844,2.408.954.954,0,0,0,.068-.125l.884-1.722a5.526,5.526,0,0,0,4.556,2.439c.208,0,.416-.01.629-.016a.122.122,0,0,0,.042.01c.021,0,.036-.01.052-.01A44.2,44.2,0,0,0,30.513,26.1a1.279,1.279,0,0,0,0-2.268A38.23,38.23,0,0,0,27,22.271a2.324,2.324,0,0,0,.042-.426,2.6,2.6,0,0,0-2.6-2.6c-.057,0-.114,0-.172.005A1.838,1.838,0,0,0,22.618,18.2a2.01,2.01,0,0,0-.249.016,2.567,2.567,0,0,0-1.28-.926L19.83,9.763A1.56,1.56,0,0,0,20.8,8.322V7.8h1.04a.52.52,0,0,0,0-1.04H14.556V5.721a.52.52,0,0,1,.52-.52H30.159v1.56ZM2.328,26.193a1.224,1.224,0,0,1-.91-.333,1.211,1.211,0,0,1-.385-.895,1.232,1.232,0,0,1,1.233-1.233.433.433,0,0,0,.062.005l4.515.25a5.451,5.451,0,0,0,0,1.956ZM5.958,29.5l-.031.057a1.232,1.232,0,1,1-2.091-1.3L4.6,27.108l2.512-.14c.021.052.036.109.057.161Zm1.155-6.538L4.6,22.823l-.765-1.149a1.232,1.232,0,1,1,2.1-1.3L7.17,22.8c-.021.052-.036.109-.057.161ZM30.04,24.757a.241.241,0,0,1,0,.416c-.869.442-1.888.9-3,1.352v-1.04a.52.52,0,1,0-1.04,0v1.441a46.427,46.427,0,0,1-5.721,1.727V27.566a.52.52,0,1,0-1.04,0v1.316a35.88,35.88,0,0,1-5.721.739V27.046a.52.52,0,1,0-1.04,0v2.6c-.052,0-.1.005-.151.005a4.614,4.614,0,0,1-4.53-4.681,4.693,4.693,0,0,1,2.6-4.229v3.188a.52.52,0,1,0,1.04,0V20.378a4.161,4.161,0,0,1,.889-.094,31.065,31.065,0,0,1,3.792.244v2.876a.52.52,0,1,0,1.04,0V20.674a42.063,42.063,0,0,1,5.2,1.139v2.112a.52.52,0,1,0,1.04,0v-1.81a42.865,42.865,0,0,1,6.642,2.642Zm-8.374-5.7a.516.516,0,0,0,.676.239.652.652,0,0,1,.276-.052.78.78,0,0,1,.77.666.52.52,0,0,0,.65.426A1.569,1.569,0,0,1,26,21.845c0,.016-.005.031-.005.047-.921-.333-1.9-.65-2.907-.952a.047.047,0,0,1-.026-.005,43.84,43.84,0,0,0-6.418-1.384h-.005a32.607,32.607,0,0,0-4.312-.307,5.414,5.414,0,0,0-1.571.234.165.165,0,0,0-.047.016,5.335,5.335,0,0,0-1.337.629,1.545,1.545,0,0,1,1.16-1.347.52.52,0,0,0,.385-.577,1.04,1.04,0,0,1,1.836-.666.536.536,0,0,0,.364.182.528.528,0,0,0,.385-.14,1.556,1.556,0,0,1,2.387.343.525.525,0,0,0,.359.25.537.537,0,0,0,.421-.114,1.6,1.6,0,0,1,2.216.208.52.52,0,0,0,.65.13,1.563,1.563,0,0,1,.744-.187,1.546,1.546,0,0,1,1.389.853Zm-1.649-1.872a2.648,2.648,0,0,0-.6.125,2.649,2.649,0,0,0-2.959-.359,2.551,2.551,0,0,0-.973-.645l1.077-6.423h2.236ZM15.6,7.8h4.161v.52a.52.52,0,0,1-.52.52H16.116a.52.52,0,0,1-.52-.52ZM26,4.161H22.878V3.121H26Zm0-2.08H19.237a.52.52,0,1,1,0-1.04h6.241a.52.52,0,0,1,.52.52Z" transform="translate(0)" fill="#262626"/>
    </g>
  </g>
</svg>
