<svg xmlns="http://www.w3.org/2000/svg" xmlns:xlink="http://www.w3.org/1999/xlink" width="56" height="56" viewBox="0 0 56 56">
  <defs>
    <clipPath id="clip-path">
      <rect id="Rectángulo_403309" data-name="Rectángulo 403309" width="30.608" height="30.608" transform="translate(0 -0.001)" fill="none"/>
    </clipPath>
  </defs>
  <g id="Grupo_1130696" data-name="Grupo 1130696" transform="translate(-180 -3933)">
    <g id="Grupo_1106277" data-name="Grupo 1106277">
      <circle id="Elipse_12284" data-name="Elipse 12284" cx="28" cy="28" r="28" transform="translate(180 3933)" fill="#faf8f2"/>
      <path id="Elipse_12284_-_Contorno" data-name="Elipse 12284 - Contorno" d="M28,2A26.007,26.007,0,0,0,17.88,51.958,26.007,26.007,0,0,0,38.12,4.042,25.835,25.835,0,0,0,28,2m0-2A28,28,0,1,1,0,28,28,28,0,0,1,28,0Z" transform="translate(180 3933)" fill="#d0b57a"/>
      <g id="Grupo_1106276" data-name="Grupo 1106276" transform="translate(193 3946)">
        <g id="Grupo_1106275" data-name="Grupo 1106275" clip-path="url(#clip-path)">
          <path id="Trazado_902278" data-name="Trazado 902278" d="M24.718,12.419V6.635h-7.2v5.784a8.862,8.862,0,1,0,7.2,0" fill="#86e0d5"/>
          <path id="Trazado_902279" data-name="Trazado 902279" d="M28.186,20.519a7.069,7.069,0,1,1-11.966-5.1h9.794a7.076,7.076,0,0,1,2.172,5.1" fill="#f7c421"/>
          <path id="Trazado_902280" data-name="Trazado 902280" d="M19.135,12.419v-1.6a1.57,1.57,0,0,1,1.57-1.57h4.013V7.531h-7.2v4.888A8.863,8.863,0,0,0,21.055,29.38c-2.666-.061-4.815-4-4.815-8.861,0-3.613,1.189-6.72,2.9-8.1" fill="#72cec0"/>
          <path id="Trazado_902281" data-name="Trazado 902281" d="M17.593,26.645A7.065,7.065,0,0,1,16.22,15.423h.907a14.262,14.262,0,0,0-.888,5.1,13.393,13.393,0,0,0,1.354,6.126" fill="#e5ae13"/>
          <path id="Trazado_902282" data-name="Trazado 902282" d="M18.077,25.527l-5.755-9.969V10.4H6.852v5.157L1.1,25.527a2.57,2.57,0,0,0,2.225,3.854H15.852a2.569,2.569,0,0,0,2.225-3.854" fill="#e6e6e6"/>
          <path id="Trazado_902283" data-name="Trazado 902283" d="M12.321,10.4H6.852v5.157L1.1,25.527A2.57,2.57,0,0,0,3.32,29.381H6.741c-.9,0-1.459-2.141-1.01-3.854l2.613-9.969V12.911a.985.985,0,0,1,.986-.986h2.991Z" fill="#ccc"/>
          <path id="Trazado_902284" data-name="Trazado 902284" d="M15.852,29.83H12.793a.448.448,0,1,1,0-.9h3.059a2.121,2.121,0,0,0,1.837-3.181l-5.755-9.968a.448.448,0,0,1-.06-.224V10.85H7.3v4.71a.449.449,0,0,1-.06.224L1.484,25.751a2.121,2.121,0,0,0,1.837,3.181H11a.448.448,0,1,1,0,.9H3.321A3.018,3.018,0,0,1,.707,25.3l5.7-9.864V10.4a.448.448,0,0,1,.448-.449h5.47a.448.448,0,0,1,.449.449v5.038L18.465,25.3a3.018,3.018,0,0,1-2.613,4.527Z"/>
          <path id="Trazado_902285" data-name="Trazado 902285" d="M13.056,17.28a.449.449,0,0,1-.407-.635,9.319,9.319,0,0,1,4.419-4.511v-4.6a.448.448,0,0,1,.448-.448h7.2a.448.448,0,0,1,.448.448V9.444a.448.448,0,1,1-.9,0V7.979H17.965v4.439a.448.448,0,0,1-.266.41,8.423,8.423,0,0,0-4.235,4.189A.449.449,0,0,1,13.056,17.28Z"/>
          <path id="Trazado_902286" data-name="Trazado 902286" d="M21.116,29.83a9.238,9.238,0,0,1-3.663-.749.449.449,0,0,1,.354-.824,8.416,8.416,0,0,0,6.729-15.427.449.449,0,0,1-.266-.41V11.238a.448.448,0,1,1,.9,0v.895a9.312,9.312,0,0,1-4.05,17.7Z"/>
          <path id="Trazado_902287" data-name="Trazado 902287" d="M14.3,9.235A1.166,1.166,0,0,1,13.138,10.4h-7.1a1.166,1.166,0,1,1,0-2.332h7.1A1.166,1.166,0,0,1,14.3,9.235" fill="#ccc"/>
          <path id="Trazado_902288" data-name="Trazado 902288" d="M14.3,9.235A1.166,1.166,0,0,1,13.138,10.4H8.861a1.166,1.166,0,1,1,0-2.332h4.277A1.166,1.166,0,0,1,14.3,9.235" fill="#e6e6e6"/>
          <path id="Trazado_902289" data-name="Trazado 902289" d="M6.035,7.621h7.1a1.615,1.615,0,1,1,0,3.229h-7.1a1.615,1.615,0,1,1,0-3.229Zm7.1,2.332a.717.717,0,1,0,0-1.435h-7.1a.717.717,0,1,0,0,1.435Z"/>
          <path id="Trazado_902290" data-name="Trazado 902290" d="M26.726,6.366A1.166,1.166,0,0,1,25.56,7.532H16.772a1.166,1.166,0,0,1,0-2.332H25.56a1.166,1.166,0,0,1,1.166,1.166" fill="#72cec0"/>
          <path id="Trazado_902291" data-name="Trazado 902291" d="M26.726,6.366A1.166,1.166,0,0,1,25.56,7.532H19.5a1.166,1.166,0,1,1,0-2.332H25.56a1.166,1.166,0,0,1,1.166,1.166" fill="#86e0d5"/>
          <path id="Trazado_902292" data-name="Trazado 902292" d="M25.56,7.979H16.772a1.614,1.614,0,1,1,0-3.228h5.167a.448.448,0,0,1,0,.9H16.772a.717.717,0,1,0,0,1.434H25.56a.717.717,0,1,0,0-1.434H23.733a.448.448,0,0,1,0-.9H25.56a1.614,1.614,0,1,1,0,3.228Z"/>
          <path id="Trazado_902293" data-name="Trazado 902293" d="M21.116,28.035a7.439,7.439,0,0,1-2.875-.572.449.449,0,0,1,.345-.828,6.546,6.546,0,0,0,2.531.5A6.619,6.619,0,0,0,25.83,15.87H16.4a6.626,6.626,0,0,0-1.728,3.116.448.448,0,1,1-.872-.209A7.522,7.522,0,0,1,15.909,15.1a.448.448,0,0,1,.311-.125h9.794a.449.449,0,0,1,.311.125,7.517,7.517,0,0,1-5.209,12.937Z"/>
          <path id="Trazado_902294" data-name="Trazado 902294" d="M16.524,27.2a.754.754,0,0,1-.672.388H3.322a.776.776,0,0,1-.672-1.163L6.878,19.1H12.3l4.229,7.326a.749.749,0,0,1,0,.775" fill="#fc5f61"/>
          <path id="Trazado_902295" data-name="Trazado 902295" d="M5.731,25.527a5.312,5.312,0,0,0-.1,2.06H3.321a.776.776,0,0,1-.672-1.163L6.879,19.1h.537Z" fill="#e83842"/>
          <path id="Trazado_902296" data-name="Trazado 902296" d="M6.879,18.65H12.3a.448.448,0,0,1,.388.224L16.912,26.2a1.225,1.225,0,0,1-1.061,1.837H3.322A1.225,1.225,0,0,1,2.26,26.2l4.231-7.326A.449.449,0,0,1,6.879,18.65Zm5.157.9h-4.9l-4.1,7.1a.327.327,0,0,0,.285.491H15.851a.327.327,0,0,0,.285-.491Z"/>
          <path id="Línea_175" data-name="Línea 175" transform="translate(10.551 23.761)"/>
          <path id="Línea_176" data-name="Línea 176" transform="translate(8.573 5.38)"/>
          <path id="Línea_177" data-name="Línea 177" transform="translate(10.358 3.676)"/>
          <path id="Línea_178" data-name="Línea 178" transform="translate(9.385 1.075)"/>
          <path id="Línea_179" data-name="Línea 179" transform="translate(25.054 17.754)"/>
          <path id="Línea_180" data-name="Línea 180" transform="translate(25.366 20.744)"/>
          <path id="Línea_181" data-name="Línea 181" transform="translate(19.518 24.12)"/>
          <path id="Línea_182" data-name="Línea 182" transform="translate(17.455 20.354)"/>
          <path id="Línea_183" data-name="Línea 183" transform="translate(22.925 19.278)"/>
          <path id="Línea_184" data-name="Línea 184" transform="translate(7.413 24.69)"/>
          <path id="Línea_185" data-name="Línea 185" transform="translate(8.578 21.789)"/>
        </g>
      </g>
    </g>
  </g>
</svg>
