<svg xmlns="http://www.w3.org/2000/svg" width="56" height="56" viewBox="0 0 56 56">
  <g id="Grupo_1106411" data-name="Grupo 1106411" transform="translate(-180 -4414)">
    <circle id="Elipse_12295" data-name="Elipse 12295" cx="28" cy="28" r="28" transform="translate(180 4414)" fill="#faf8f2"/>
    <path id="Elipse_12295_-_Contorno" data-name="Elipse 12295 - Contorno" d="M28,2A26.007,26.007,0,0,0,17.88,51.958,26.007,26.007,0,0,0,38.12,4.042,25.835,25.835,0,0,0,28,2m0-2A28,28,0,1,1,0,28,28,28,0,0,1,28,0Z" transform="translate(180 4414)" fill="#d0b57a"/>
    <g id="medical-examination" transform="translate(165.068 4427.667)">
      <g id="Grupo_1106409" data-name="Grupo 1106409" transform="translate(27.065 0.432)">
        <g id="Grupo_1106405" data-name="Grupo 1106405" transform="translate(6.636)">
          <g id="Grupo_1106392" data-name="Grupo 1106392" transform="translate(0 2.241)">
            <path id="Trazado_902554" data-name="Trazado 902554" d="M167.143,70.689H150.531a1.152,1.152,0,0,1-1.152-1.152V47.574a1.152,1.152,0,0,1,1.152-1.152h16.612a1.152,1.152,0,0,1,1.152,1.152V69.537A1.152,1.152,0,0,1,167.143,70.689Z" transform="translate(-149.379 -46.422)" fill="#26a6fe"/>
          </g>
          <g id="Grupo_1106393" data-name="Grupo 1106393" transform="translate(14.05 2.241)">
            <path id="Trazado_902555" data-name="Trazado 902555" d="M397.092,46.422h-3.713a1.152,1.152,0,0,1,1.152,1.152V69.537a1.152,1.152,0,0,1-1.152,1.152h3.713a1.152,1.152,0,0,0,1.152-1.152V47.574A1.152,1.152,0,0,0,397.092,46.422Z" transform="translate(-393.379 -46.422)" fill="#0593fc"/>
          </g>
          <g id="Grupo_1106394" data-name="Grupo 1106394" transform="translate(7.364 0)">
            <path id="Trazado_902556" data-name="Trazado 902556" d="M279.364,7.5a2.1,2.1,0,0,0-2.093,2.093v.148h4.187V9.593A2.1,2.1,0,0,0,279.364,7.5Z" transform="translate(-277.271 -7.5)" fill="#ffd15b"/>
          </g>
          <g id="Grupo_1106395" data-name="Grupo 1106395" transform="translate(8.557)">
            <path id="Trazado_902557" data-name="Trazado 902557" d="M298.888,7.5a2.074,2.074,0,0,0-.9.2,2.1,2.1,0,0,1,1.193,1.888v.148h1.8V9.593A2.1,2.1,0,0,0,298.888,7.5Z" transform="translate(-297.988 -7.5)" fill="#ffc344"/>
          </g>
          <g id="Grupo_1106396" data-name="Grupo 1106396" transform="translate(1.938 4.179)">
            <path id="Trazado_902558" data-name="Trazado 902558" d="M183.038,100.183V80.369a.288.288,0,0,1,.288-.288h14.463a.288.288,0,0,1,.288.288v19.814a.288.288,0,0,1-.288.288H183.326A.288.288,0,0,1,183.038,100.183Z" transform="translate(-183.038 -80.081)" fill="#fff"/>
          </g>
          <g id="Grupo_1106397" data-name="Grupo 1106397" transform="translate(15.202 4.179)">
            <path id="Trazado_902559" data-name="Trazado 902559" d="M414.866,80.082h-1.487v20.39h1.487a.288.288,0,0,0,.288-.288V80.37A.288.288,0,0,0,414.866,80.082Z" transform="translate(-413.379 -80.082)" fill="#f9f3f1"/>
          </g>
          <g id="Grupo_1106402" data-name="Grupo 1106402" transform="translate(3.976 7.018)">
            <g id="Grupo_1106398" data-name="Grupo 1106398" transform="translate(0 0)">
              <path id="Trazado_902560" data-name="Trazado 902560" d="M0,0H1.871V10.963H0Z" transform="translate(10.963) rotate(90)" fill="#d8ecfe"/>
            </g>
            <g id="Grupo_1106399" data-name="Grupo 1106399" transform="translate(9.154)">
              <path id="Trazado_902561" data-name="Trazado 902561" d="M377.391,129.373h1.81v1.871h-1.81Z" transform="translate(-377.391 -129.373)" fill="#c4e2ff"/>
            </g>
            <g id="Grupo_1106400" data-name="Grupo 1106400" transform="translate(0 1.871)">
              <path id="Trazado_902562" data-name="Trazado 902562" d="M0,0H1.871V10.963H0Z" transform="translate(0 1.871) rotate(-90)" fill="#d8ecfe"/>
            </g>
            <g id="Grupo_1106401" data-name="Grupo 1106401" transform="translate(9.154 1.871)">
              <path id="Trazado_902563" data-name="Trazado 902563" d="M377.391,161.873h1.81v1.871h-1.81Z" transform="translate(-377.391 -161.873)" fill="#c4e2ff"/>
            </g>
          </g>
          <g id="Grupo_1106403" data-name="Grupo 1106403" transform="translate(5.387 2.241)">
            <path id="Trazado_902564" data-name="Trazado 902564" d="M242.937,46.422v1.934a.864.864,0,0,0,.864.864h6.413a.864.864,0,0,0,.864-.864V46.422Z" transform="translate(-242.937 -46.422)" fill="#ffe177"/>
          </g>
          <g id="Grupo_1106404" data-name="Grupo 1106404" transform="translate(10.249 2.241)">
            <path id="Trazado_902565" data-name="Trazado 902565" d="M328.235,46.422v1.934a.864.864,0,0,1-.864.864h2.415a.864.864,0,0,0,.864-.864V46.422Z" transform="translate(-327.371 -46.422)" fill="#ffd15b"/>
          </g>
        </g>
        <g id="Grupo_1106406" data-name="Grupo 1106406" transform="translate(0 12.753)">
          <circle id="Elipse_12299" data-name="Elipse 12299" cx="2.447" cy="2.447" r="2.447" fill="#e1d3ce"/>
        </g>
        <g id="Grupo_1106407" data-name="Grupo 1106407" transform="translate(1.868 12.753)">
          <path id="Trazado_902566" data-name="Trazado 902566" d="M67.146,228.972a2.454,2.454,0,0,0-.58.07,2.447,2.447,0,0,1,0,4.755,2.447,2.447,0,1,0,.58-4.825Z" transform="translate(-66.566 -228.972)" fill="#cdbfba"/>
        </g>
        <g id="Grupo_1106408" data-name="Grupo 1106408" transform="translate(1.584 14.337)">
          <circle id="Elipse_12300" data-name="Elipse 12300" cx="0.864" cy="0.864" r="0.864" fill="#b9acac"/>
        </g>
      </g>
      <g id="Grupo_1106410" data-name="Grupo 1106410" transform="translate(26.633)">
        <path id="Trazado_902567" data-name="Trazado 902567" d="M363.408,220.438h-2.343a.432.432,0,1,0,0,.864h2.343a.432.432,0,0,0,0-.864Z" transform="translate(-341.4 -207.745)"/>
        <path id="Trazado_902568" data-name="Trazado 902568" d="M363.408,252.25h-2.343a.432.432,0,1,0,0,.864h2.343a.432.432,0,0,0,0-.864Z" transform="translate(-341.4 -237.725)"/>
        <path id="Trazado_902569" data-name="Trazado 902569" d="M363.408,284.062h-2.343a.432.432,0,1,0,0,.864h2.343a.432.432,0,0,0,0-.864Z" transform="translate(-341.4 -267.705)"/>
        <path id="Trazado_902570" data-name="Trazado 902570" d="M238.789,253.114h.584a.432.432,0,0,0,0-.864h-.584a.432.432,0,1,0,0,.864Z" transform="translate(-226.165 -237.725)"/>
        <path id="Trazado_902571" data-name="Trazado 902571" d="M272.5,252.682a.432.432,0,0,0,.432.432h1.777a.432.432,0,0,0,0-.864h-1.777A.432.432,0,0,0,272.5,252.682Z" transform="translate(-258.342 -237.725)"/>
        <path id="Trazado_902572" data-name="Trazado 902572" d="M242.532,284.062h-3.743a.432.432,0,1,0,0,.864h3.743a.432.432,0,0,0,0-.864Z" transform="translate(-226.165 -267.705)"/>
        <path id="Trazado_902573" data-name="Trazado 902573" d="M242.532,315.875h-3.743a.432.432,0,1,0,0,.864h3.743a.432.432,0,1,0,0-.864Z" transform="translate(-226.165 -297.686)"/>
        <path id="Trazado_902574" data-name="Trazado 902574" d="M363.408,315.875h-2.343a.432.432,0,1,0,0,.864h2.343a.432.432,0,0,0,0-.864Z" transform="translate(-341.4 -297.686)"/>
        <path id="Trazado_902575" data-name="Trazado 902575" d="M363.408,347.688h-2.343a.432.432,0,1,0,0,.864h2.343a.432.432,0,0,0,0-.864Z" transform="translate(-341.4 -327.667)"/>
        <path id="Trazado_902576" data-name="Trazado 902576" d="M363.408,379.5h-2.343a.432.432,0,0,0,0,.864h2.343a.432.432,0,0,0,0-.864Z" transform="translate(-341.4 -357.647)"/>
        <path id="Trazado_902577" data-name="Trazado 902577" d="M211.359,126.481h10.963a.432.432,0,0,0,.432-.432v-3.743a.432.432,0,0,0-.432-.432H211.359a.432.432,0,0,0-.432.432v3.743A.432.432,0,0,0,211.359,126.481Zm.432-1.871H218.4v1.008h-6.605Zm10.1,1.008H219.26v-1.008h2.631Zm0-2.879v1.008H219.26v-1.008Zm-10.1,0H218.4v1.008h-6.605Z" transform="translate(-200.315 -114.856)"/>
        <path id="Trazado_902578" data-name="Trazado 902578" d="M29.109,231.119a.432.432,0,0,0,.864,0v-3.926a2.88,2.88,0,1,0-.864.008ZM27.5,224.351a2.015,2.015,0,1,1,2.015,2.015A2.018,2.018,0,0,1,27.5,224.351Z" transform="translate(-26.633 -208.719)"/>
        <path id="Trazado_902579" data-name="Trazado 902579" d="M56.725,250.268a1.3,1.3,0,1,0-1.3,1.3A1.3,1.3,0,0,0,56.725,250.268Zm-1.727,0a.432.432,0,1,1,.432.432A.432.432,0,0,1,55,250.268Z" transform="translate(-52.55 -234.635)"/>
        <path id="Trazado_902580" data-name="Trazado 902580" d="M91.989,2.241h-5.8a2.525,2.525,0,0,0-5.017,0h-5.8a1.585,1.585,0,0,0-1.584,1.584V25.788a1.585,1.585,0,0,0,1.584,1.584h5.641a2.162,2.162,0,0,1-1.957,1.247h-6.4A2.162,2.162,0,0,1,70.5,26.459V24.415a.432.432,0,0,0-.864,0v2.044a3.026,3.026,0,0,0,3.023,3.023h6.4a3.028,3.028,0,0,0,2.882-2.111H91.989a1.585,1.585,0,0,0,1.584-1.584V3.825a1.585,1.585,0,0,0-1.583-1.584ZM83.683.864A1.664,1.664,0,0,1,85.32,2.241H82.046A1.664,1.664,0,0,1,83.683.864ZM75.377,26.508a.721.721,0,0,1-.72-.72V3.825a.721.721,0,0,1,.72-.72h3.8V4.179H76.451a.721.721,0,0,0-.72.72v7.769a.432.432,0,1,0,.864,0V5.043h2.661a1.3,1.3,0,0,0,1.22.859H81.4a.432.432,0,0,0,0-.864h-.925a.432.432,0,0,1-.432-.427h0s0,0,0-.005V3.1h7.277v1.5s0,0,0,.005h0a.432.432,0,0,1-.432.427H83.416a.432.432,0,1,0,0,.864h3.473a1.3,1.3,0,0,0,1.22-.859H90.77V24.57H82.084V23.39a3.889,3.889,0,0,0,3.452-3.859V13.5A1.009,1.009,0,0,0,84.528,12.5h-.845a.432.432,0,0,0-.864,0V13.3a.432.432,0,0,0,.859.058h.849a.144.144,0,0,1,.144.144v4.321a3.02,3.02,0,0,1-6.04,0V13.5a.144.144,0,0,1,.144-.144h.881a.432.432,0,0,0,.859-.058V12.5a.432.432,0,0,0-.864,0h-.877A1.009,1.009,0,0,0,77.768,13.5v6.027A3.889,3.889,0,0,0,81.22,23.39v1.18H76.6V14.684a.432.432,0,0,0-.864,0v10.03a.721.721,0,0,0,.72.72H81.22v1.026c0,.016,0,.032,0,.048Zm6.275-3.957a3.025,3.025,0,0,1-2.886-2.131,3.877,3.877,0,0,0,5.773,0A3.025,3.025,0,0,1,81.652,22.551Zm11.057,3.237a.721.721,0,0,1-.72.72H82.083c0-.016,0-.032,0-.048V25.433h8.83a.721.721,0,0,0,.72-.72V4.9a.721.721,0,0,0-.72-.72H88.185V3.1h3.8a.721.721,0,0,1,.72.72Z" transform="translate(-67.157)"/>
      </g>
    </g>
  </g>
</svg>
