<svg xmlns="http://www.w3.org/2000/svg" width="101.789" height="90.858" viewBox="0 0 101.789 90.858">
  <g id="Grupo_1106140" data-name="Grupo 1106140" transform="translate(-292.701 44.522) rotate(-30)">
    <path id="Trazado_876708" data-name="Trazado 876708" d="M331.806,195.32c-9.05,7.6-22.077,9.657-33.458,6.469s-22.793-11.078-29.306-20.941c-7.21-10.918-10.41-22.024-9.571-35.081,1.834-.783,4.993-2.867,6.389-1.443a18.041,18.041,0,0,1,3.042,5.116c10.96,23.144,41.745,38.32,67.035,34.3,2.243-.357,2.879,4.444,1.569,6.058A44.246,44.246,0,0,1,331.806,195.32Z" fill="#f8d35e"/>
    <path id="Trazado_876709" data-name="Trazado 876709" d="M319.669,191.693a62.83,62.83,0,0,1-19.536-3.113,59.74,59.74,0,0,1-20.968-11.964,62.8,62.8,0,0,1-14.739-19.129,60.4,60.4,0,0,1-4.3-11.345.964.964,0,0,1,1.864-.5,59.507,59.507,0,0,0,73.547,41.964.964.964,0,0,1,.52,1.857,60.394,60.394,0,0,1-11.956,2.069Q321.894,191.693,319.669,191.693Z" fill="#b28522"/>
    <path id="Trazado_876710" data-name="Trazado 876710" d="M298.782,193.207a.962.962,0,0,1-.341-.063,161.035,161.035,0,0,1-14.813-6.472.964.964,0,0,1,.86-1.726,159.1,159.1,0,0,0,14.635,6.394.965.965,0,0,1-.341,1.867Z" fill="#b28522"/>
    <path id="Trazado_876711" data-name="Trazado 876711" d="M267.172,145.368q-3.848.408-7.717.531c-.048-2.619-.88-5.384-.928-8l5.921-.275C265.337,140.245,266.283,142.744,267.172,145.368Z" fill="#17443e"/>
    <path id="Trazado_876712" data-name="Trazado 876712" d="M336.135,191.172q-1.727-3.462-3.2-7.045c2.437-.96,4.736-2.707,7.173-3.667l2.328,5.451C340.293,187.662,338.283,189.422,336.135,191.172Z" fill="#17443e"/>
  </g>
</svg>
