<svg xmlns="http://www.w3.org/2000/svg" width="76.933" height="80.563" viewBox="0 0 76.933 80.563">
  <g id="Grupo_1106142" data-name="Grupo 1106142" transform="translate(-325.966 -266.538)">
    <path id="Trazado_900563" data-name="Trazado 900563" d="M356.915,342.781,327.1,325.572l45.143-26.062,29.816,17.208Z" transform="translate(0.148 4.32)" opacity="0.3"/>
    <g id="Grupo_1105560" data-name="Grupo 1105560" transform="translate(363.269 322.497)">
      <g id="Grupo_1105558" data-name="Grupo 1105558" transform="translate(0 15.563)">
        <path id="Trazado_900564" data-name="Trazado 900564" d="M362.252,330.333l-.967-.558h-1.369l-.968.558v.791l.968.558,1.369,0,.967-.56Z" transform="translate(-358.948 -329.775)" fill="#e6e1dd"/>
        <rect id="Rectángulo_402929" data-name="Rectángulo 402929" width="1.369" height="0.936" transform="translate(0.968 1.906)" fill="#b5afa7"/>
        <path id="Trazado_900565" data-name="Trazado 900565" d="M361.981,331.9l-.967.561v-.936l.967-.558Z" transform="translate(-358.677 -329.619)" fill="#a39c95"/>
        <path id="Trazado_900566" data-name="Trazado 900566" d="M358.948,331.9l.968.561v-.936l-.968-.558Z" transform="translate(-358.948 -329.619)" fill="#d8d1c7"/>
      </g>
      <g id="Grupo_1105559" data-name="Grupo 1105559" transform="translate(0.346)">
        <path id="Trazado_900567" data-name="Trazado 900567" d="M361.865,316.454l-.76-.439H360.02l-.766.439v.625l.766.441h1.086l.76-.441Z" transform="translate(-359.254 -316.015)" fill="#e6e1dd"/>
        <rect id="Rectángulo_402930" data-name="Rectángulo 402930" width="1.086" height="15.717" transform="translate(0.766 1.505)" fill="#b5afa7"/>
        <path id="Trazado_900568" data-name="Trazado 900568" d="M361.651,332.672l-.76.44V317.4l.76-.441Z" transform="translate(-359.04 -315.892)" fill="#a39c95"/>
        <path id="Trazado_900569" data-name="Trazado 900569" d="M359.254,332.672l.766.44V317.4l-.766-.441Z" transform="translate(-359.254 -315.892)" fill="#d8d1c7"/>
      </g>
    </g>
    <g id="Grupo_1105561" data-name="Grupo 1105561" transform="translate(381.143 266.538)">
      <path id="Trazado_900570" data-name="Trazado 900570" d="M394.292,283.865l0,11.077-.674,5.836-1.518-2.122-.471-12.76Z" transform="translate(-372.54 -264.268)" fill="#87817c"/>
      <path id="Trazado_900571" data-name="Trazado 900571" d="M374.752,266.538l5.394,2.334,9.583,5.531-2.969.476-10.747-6.007Z" transform="translate(-374.752 -266.538)" fill="#e6ded3"/>
      <path id="Trazado_900572" data-name="Trazado 900572" d="M388.3,273.576l-2.639-.722,3.212,10.039,5.511,5.07.69-2.656Z" transform="translate(-373.323 -265.711)" fill="#a39c95"/>
    </g>
    <g id="Grupo_1105562" data-name="Grupo 1105562" transform="translate(365.347 266.538)">
      <path id="Trazado_900573" data-name="Trazado 900573" d="M369.64,269.884l5.782-3.346,12.338,7.143-5.867,8.425Z" transform="translate(-359.625 -266.538)" fill="#e2e2e2"/>
      <path id="Trazado_900574" data-name="Trazado 900574" d="M380.566,276.187l5.762-3.333,8.723,15.109-5.765,17.6Z" transform="translate(-358.194 -265.711)" fill="#6e6e6e"/>
      <path id="Trazado_900575" data-name="Trazado 900575" d="M388.278,289.546l5.764-3.333.019,14.257-5.784,3.34Z" transform="translate(-357.183 -263.96)" fill="#939393"/>
      <path id="Trazado_900576" data-name="Trazado 900576" d="M375.254,281.511l6.772,11.733,7.958-2.334L381.262,275.8Z" transform="translate(-358.889 -265.324)" fill="#ccc6bc"/>
      <path id="Trazado_900577" data-name="Trazado 900577" d="M366.778,276.8l9.586,5.533,6.008-5.71L370.015,269.5Z" transform="translate(-360 -266.15)" fill="#e6ded3"/>
      <path id="Trazado_900578" data-name="Trazado 900578" d="M360.785,280.718l6.778-3.913L370.8,269.5l-8.736,5.03Z" transform="translate(-360.785 -266.15)" fill="#ccc6bc"/>
      <path id="Trazado_900579" data-name="Trazado 900579" d="M381.242,291.494l0,11.076,7.953.854V289.16Z" transform="translate(-358.105 -263.574)" fill="#b5afa7"/>
      <path id="Trazado_900580" data-name="Trazado 900580" d="M382.03,301.017l-6.776,3.916,6,1.983,8.73-5.044Z" transform="translate(-358.889 -262.021)" fill="#a39c95"/>
      <path id="Trazado_900581" data-name="Trazado 900581" d="M360.787,290.936l6.775,11.733,9.588,5.546,6.776-3.916,0-11.076-6.772-11.733-9.586-5.533-6.778,3.913Z" transform="translate(-360.785 -265.304)" fill="#d8d1c7"/>
    </g>
    <g id="Grupo_1105563" data-name="Grupo 1105563" transform="translate(366.08 267.867)">
      <path id="Trazado_900582" data-name="Trazado 900582" d="M361.435,273.631l0,15.059,9.226,15.977L383.7,312.2l9.223-5.324,0-15.063L383.7,275.833l-13.044-7.526Z" transform="translate(-361.433 -267.635)" fill="#d8d1c7"/>
      <rect id="Rectángulo_402931" data-name="Rectángulo 402931" width="1.333" height="18.449" transform="matrix(0.866, -0.5, 0.5, 0.866, 22.258, 8.194)" fill="#b5afa7"/>
      <path id="Trazado_900583" data-name="Trazado 900583" d="M370.75,267.713l13.039,7.531-1.156.666-13.044-7.526Z" transform="translate(-360.364 -267.713)" fill="#f0e8de"/>
      <path id="Trazado_900584" data-name="Trazado 900584" d="M390.44,303.555l0-15.056-1.156.666,0,15.063Z" transform="translate(-357.785 -264.99)" fill="#a39c95"/>
    </g>
    <g id="Grupo_1105566" data-name="Grupo 1105566" transform="translate(391.237 306.351)">
      <g id="Grupo_1105564" data-name="Grupo 1105564" transform="translate(0 15.563)">
        <path id="Trazado_900585" data-name="Trazado 900585" d="M386.982,316.057l-.969-.558h-1.37l-.967.558v.791l.967.556,1.37,0,.969-.559Z" transform="translate(-383.676 -315.499)" fill="#e6e1dd"/>
        <rect id="Rectángulo_402932" data-name="Rectángulo 402932" width="1.37" height="0.938" transform="translate(0.967 1.905)" fill="#b5afa7"/>
        <path id="Trazado_900586" data-name="Trazado 900586" d="M386.711,317.626l-.969.559v-.938l.969-.556Z" transform="translate(-383.405 -315.343)" fill="#a39c95"/>
        <path id="Trazado_900587" data-name="Trazado 900587" d="M383.676,317.626l.967.559v-.938l-.967-.556Z" transform="translate(-383.676 -315.343)" fill="#d8d1c7"/>
      </g>
      <g id="Grupo_1105565" data-name="Grupo 1105565" transform="translate(0.347)">
        <path id="Trazado_900588" data-name="Trazado 900588" d="M386.593,302.179l-.76-.44h-1.085l-.766.44v.624l.766.44h1.085l.76-.44Z" transform="translate(-383.983 -301.739)" fill="#e6e1dd"/>
        <rect id="Rectángulo_402933" data-name="Rectángulo 402933" width="1.085" height="15.719" transform="translate(0.766 1.504)" fill="#b5afa7"/>
        <path id="Trazado_900589" data-name="Trazado 900589" d="M386.379,318.4l-.76.442V303.12l.76-.44Z" transform="translate(-383.769 -301.616)" fill="#a39c95"/>
        <path id="Trazado_900590" data-name="Trazado 900590" d="M383.983,318.4l.766.442V303.12l-.766-.44Z" transform="translate(-383.983 -301.616)" fill="#d8d1c7"/>
      </g>
    </g>
    <g id="Grupo_1105567" data-name="Grupo 1105567" transform="translate(359.565 269.877)">
      <path id="Trazado_900591" data-name="Trazado 900591" d="M364.527,272.834l5.785-3.344,12.335,7.142-5.865,8.426Z" transform="translate(-354.513 -269.49)" fill="#e2e2e2"/>
      <path id="Trazado_900592" data-name="Trazado 900592" d="M375.454,279.138l5.761-3.333,8.725,15.109-5.764,17.6Z" transform="translate(-353.081 -268.663)" fill="#6e6e6e"/>
      <path id="Trazado_900593" data-name="Trazado 900593" d="M383.167,292.5l5.763-3.333.017,14.26-5.781,3.338Z" transform="translate(-352.071 -266.912)" fill="#939393"/>
      <path id="Trazado_900594" data-name="Trazado 900594" d="M370.142,284.461l6.772,11.734,7.959-2.334-8.723-15.109Z" transform="translate(-353.777 -268.277)" fill="#ccc6bc"/>
      <path id="Trazado_900595" data-name="Trazado 900595" d="M361.666,279.756l9.586,5.532,6.008-5.709L364.9,272.447Z" transform="translate(-354.888 -269.103)" fill="#e6ded3"/>
      <path id="Trazado_900596" data-name="Trazado 900596" d="M355.673,283.671l6.778-3.916,3.236-7.309-8.735,5.032Z" transform="translate(-355.673 -269.103)" fill="#ccc6bc"/>
      <path id="Trazado_900597" data-name="Trazado 900597" d="M376.13,294.445l.006,11.076,7.952.854V292.111Z" transform="translate(-352.993 -266.526)" fill="#b5afa7"/>
      <path id="Trazado_900598" data-name="Trazado 900598" d="M376.92,303.968l-6.778,3.918,6,1.983,8.73-5.047Z" transform="translate(-353.777 -264.973)" fill="#a39c95"/>
      <path id="Trazado_900599" data-name="Trazado 900599" d="M355.675,293.888l6.775,11.733,9.588,5.548,6.778-3.918-.006-11.076-6.773-11.734-9.586-5.532-6.778,3.916Z" transform="translate(-355.673 -268.256)" fill="#d8d1c7"/>
    </g>
    <g id="Grupo_1105568" data-name="Grupo 1105568" transform="translate(360.175 271.276)">
      <path id="Trazado_900600" data-name="Trazado 900600" d="M356.215,276.645l0,15.062,9.225,15.976,13.044,7.529,9.223-5.324,0-15.062-9.226-15.978-13.045-7.528Z" transform="translate(-356.212 -270.649)" fill="#d8d1c7"/>
      <rect id="Rectángulo_402934" data-name="Rectángulo 402934" width="1.335" height="18.45" transform="matrix(0.866, -0.5, 0.5, 0.866, 22.258, 8.204)" fill="#b5afa7"/>
      <path id="Trazado_900601" data-name="Trazado 900601" d="M365.531,270.727l13.038,7.531-1.156.667L364.368,271.4Z" transform="translate(-355.143 -270.727)" fill="#f0e8de"/>
      <path id="Trazado_900602" data-name="Trazado 900602" d="M385.218,306.571l0-15.057-1.156.666,0,15.062Z" transform="translate(-352.564 -268.004)" fill="#a39c95"/>
    </g>
    <g id="Grupo_1105569" data-name="Grupo 1105569" transform="translate(325.966 273.215)">
      <path id="Trazado_900603" data-name="Trazado 900603" d="M334.82,291.847l33.6-19.4,12.339,7.142L347.076,304.07Z" transform="translate(-324.806 -272.442)" fill="#e2e2e2"/>
      <path id="Trazado_900604" data-name="Trazado 900604" d="M345.748,298.149l33.58-19.392,8.722,15.109-33.579,33.657Z" transform="translate(-323.374 -271.615)" fill="#6e6e6e"/>
      <path id="Trazado_900605" data-name="Trazado 900605" d="M353.461,311.508l33.578-19.392.018,14.259-33.6,19.4Z" transform="translate(-322.364 -269.865)" fill="#939393"/>
      <path id="Trazado_900606" data-name="Trazado 900606" d="M340.435,301.612l6.774,11.734,7.959-2.334L346.444,295.9Z" transform="translate(-324.07 -269.368)" fill="#ccc6bc"/>
      <path id="Trazado_900607" data-name="Trazado 900607" d="M331.96,296.906l9.585,5.532,6.009-5.709-12.36-7.13Z" transform="translate(-325.181 -270.194)" fill="#e6ded3"/>
      <path id="Trazado_900608" data-name="Trazado 900608" d="M325.966,300.822l6.779-3.916,3.235-7.307-8.734,5.031Z" transform="translate(-325.966 -270.194)" fill="#ccc6bc"/>
      <path id="Trazado_900609" data-name="Trazado 900609" d="M346.424,311.6l0,11.076,7.956.854V309.262Z" transform="translate(-323.286 -267.618)" fill="#b5afa7"/>
      <path id="Trazado_900610" data-name="Trazado 900610" d="M347.212,321.119l-6.777,3.917,6,1.984,8.733-5.047Z" transform="translate(-324.07 -266.065)" fill="#a39c95"/>
      <path id="Trazado_900611" data-name="Trazado 900611" d="M325.972,311.04l6.772,11.732,9.586,5.546,6.777-3.917,0-11.076-6.774-11.734-9.585-5.532-6.779,3.916Z" transform="translate(-325.966 -269.348)" fill="#d8d1c7"/>
    </g>
    <g id="Grupo_1105572" data-name="Grupo 1105572" transform="translate(327.56 308.764)">
      <g id="Grupo_1105570" data-name="Grupo 1105570" transform="translate(4.109)">
        <path id="Trazado_900612" data-name="Trazado 900612" d="M331.009,305.869v5.076l3.11,5.386,4.4,2.538,3.109-1.795V312l-3.109-5.387-4.4-2.538Z" transform="translate(-331.008 -303.847)" fill="#d8d1c7"/>
        <rect id="Rectángulo_402935" data-name="Rectángulo 402935" width="0.449" height="6.219" transform="translate(7.513 2.777) rotate(-29.993)" fill="#b5afa7"/>
        <path id="Trazado_900613" data-name="Trazado 900613" d="M334.149,303.873l4.4,2.539-.389.224-4.4-2.538Z" transform="translate(-330.648 -303.873)" fill="#f0e8de"/>
        <path id="Trazado_900614" data-name="Trazado 900614" d="M340.786,315.956l0-5.075-.389.224v5.077Z" transform="translate(-329.778 -302.955)" fill="#a39c95"/>
      </g>
      <g id="Grupo_1105571" data-name="Grupo 1105571" transform="translate(0 0.655)">
        <path id="Trazado_900615" data-name="Trazado 900615" d="M330.361,306.706l3.9-2.254,4.161,2.407-3.929,3.969Z" transform="translate(-326.984 -304.452)" fill="#f0e8de"/>
        <path id="Trazado_900616" data-name="Trazado 900616" d="M334.044,308.832l3.9-2.252,2.941,5.093-3.9,7.061Z" transform="translate(-326.501 -304.173)" fill="#b5afa7"/>
        <path id="Trazado_900617" data-name="Trazado 900617" d="M336.645,313.334l3.9-2.251.008,4.808-3.9,2.253Z" transform="translate(-326.161 -303.583)" fill="#a39c95"/>
        <path id="Trazado_900618" data-name="Trazado 900618" d="M332.254,310.495l2.284,3.956,2.683-.788-2.942-5.092Z" transform="translate(-326.736 -303.912)" fill="#ccc6bc"/>
        <path id="Trazado_900619" data-name="Trazado 900619" d="M329.395,308.908l3.234,1.865,2.025-1.924-4.166-2.4Z" transform="translate(-327.11 -304.191)" fill="#e6ded3"/>
        <path id="Trazado_900620" data-name="Trazado 900620" d="M327.375,310.228l2.285-1.32,1.093-2.463-2.945,1.7Z" transform="translate(-327.375 -304.191)" fill="#ccc6bc"/>
        <path id="Trazado_900621" data-name="Trazado 900621" d="M334.273,313.861v3.733l2.682.288v-4.81Z" transform="translate(-326.471 -303.323)" fill="#b5afa7"/>
        <path id="Trazado_900622" data-name="Trazado 900622" d="M334.539,317.071l-2.285,1.32,2.022.67,2.944-1.7Z" transform="translate(-326.736 -302.799)" fill="#a39c95"/>
        <path id="Trazado_900623" data-name="Trazado 900623" d="M327.376,313.673l2.284,3.954,3.234,1.871,2.285-1.32v-3.734l-2.284-3.956-3.234-1.865-2.285,1.32Z" transform="translate(-327.375 -303.906)" fill="#d8d1c7"/>
      </g>
    </g>
    <g id="Grupo_1105573" data-name="Grupo 1105573" transform="translate(327.461 316.369)">
      <path id="Trazado_900624" data-name="Trazado 900624" d="M327.288,312.131v2.316l1.417,2.457,2.008,1.157,1.418-.817v-2.316l-1.419-2.459-2.008-1.159Z" transform="translate(-327.288 -310.504)" fill="#685750"/>
      <path id="Trazado_900625" data-name="Trazado 900625" d="M330.255,313.122l-1.29-.744-.91.528v1.485l.91,1.58,1.29.744.91-.527V314.7Z" transform="translate(-327.188 -310.364)" fill="#403531"/>
      <rect id="Rectángulo_402936" data-name="Rectángulo 402936" width="1.615" height="2.839" transform="translate(3.458 1.966) rotate(-29.998)" fill="#544540"/>
      <path id="Trazado_900626" data-name="Trazado 900626" d="M329.942,310.6l2.005,1.157-1.4.809-2.008-1.159Z" transform="translate(-327.124 -310.597)" fill="#836e69"/>
      <path id="Trazado_900627" data-name="Trazado 900627" d="M332.97,316.11v-2.316l-1.4.809v2.316Z" transform="translate(-326.727 -310.178)" fill="#403531"/>
    </g>
    <g id="Grupo_1105592" data-name="Grupo 1105592" transform="translate(365.187 281.769)">
      <g id="Grupo_1105582" data-name="Grupo 1105582" transform="translate(3.157)">
        <g id="Grupo_1105576" data-name="Grupo 1105576" transform="translate(0 0.236)">
          <g id="Grupo_1105574" data-name="Grupo 1105574" transform="translate(0 2.729)">
            <path id="Trazado_900628" data-name="Trazado 900628" d="M363.435,282.993v.093l.3.172.1-.157Z" transform="translate(-363.435 -282.579)" fill="#0a0808"/>
            <path id="Trazado_900629" data-name="Trazado 900629" d="M363.7,283.165v.093h.418l.294-.265Z" transform="translate(-363.4 -282.579)" fill="#211a1a"/>
            <path id="Trazado_900630" data-name="Trazado 900630" d="M364.069,283.165v.093l.294-.171v-.094Z" transform="translate(-363.352 -282.579)" fill="#362c29"/>
            <path id="Trazado_900631" data-name="Trazado 900631" d="M364.446,282.8v.244l-.294.172h-.418l-.3-.172V282.8l.3-.17h.421Z" transform="translate(-363.435 -282.627)" fill="#574943"/>
          </g>
          <g id="Grupo_1105575" data-name="Grupo 1105575" transform="translate(0.079)">
            <path id="Trazado_900632" data-name="Trazado 900632" d="M363.756,280.807l.051.11-.051,2.522-.251-.146v-2.924Z" transform="translate(-363.505 -280.194)" fill="#403531"/>
            <path id="Trazado_900633" data-name="Trazado 900633" d="M364.081,280.317l.1.576-.1,2.553h-.354v-2.926l.263.033Z" transform="translate(-363.476 -280.201)" fill="#685750"/>
            <path id="Trazado_900634" data-name="Trazado 900634" d="M364.04,280.33v3.128l.251-.146v-2.924l-.216-.175Z" transform="translate(-363.435 -280.214)" fill="#544540"/>
          </g>
        </g>
        <g id="Grupo_1105577" data-name="Grupo 1105577" transform="translate(7.415 29.246)">
          <path id="Trazado_900635" data-name="Trazado 900635" d="M372.949,306.487l-1.081-.624-1.163.667,1.108,1.094Z" transform="translate(-369.897 -305.863)" fill="#836e69"/>
          <path id="Trazado_900636" data-name="Trazado 900636" d="M371.892,307.083l-1.094-.63-.808,1.406,1.089,1.946Z" transform="translate(-369.991 -305.786)" fill="#685750"/>
          <path id="Trazado_900637" data-name="Trazado 900637" d="M371.082,308.318l-1.091-.622.012,1.323,1.077.623Z" transform="translate(-369.991 -305.623)" fill="#544540"/>
          <path id="Trazado_900638" data-name="Trazado 900638" d="M371.768,310.279l-.814-.468,0-1.324.81-1.4,1.15-.673.811.467,0,1.339-.808,1.4Z" transform="translate(-369.865 -305.791)" fill="#403531"/>
          <path id="Trazado_900639" data-name="Trazado 900639" d="M373.488,307l-.269-.153L371.5,309.83l.268.155,1.011-.58.708-1.229Z" transform="translate(-369.794 -305.734)" fill="#836e69"/>
          <path id="Trazado_900640" data-name="Trazado 900640" d="M373.27,306.879l-.443-.257-1.011.594-.709,1.226V309.6l.442.256,1.011-.579.71-1.226Z" transform="translate(-369.845 -305.764)" fill="#fff"/>
          <path id="Trazado_900641" data-name="Trazado 900641" d="M372.154,308.255l-.143.017.371-1.278.143-.016Z" transform="translate(-369.726 -305.717)" fill="#362c29"/>
          <path id="Trazado_900642" data-name="Trazado 900642" d="M371.959,308.589l-.2-.118v-.327l.2-.347.286-.165.2.115v.33l-.2.347Z" transform="translate(-369.759 -305.631)" fill="#a39c95"/>
        </g>
        <g id="Grupo_1105580" data-name="Grupo 1105580" transform="translate(8.841 5.302)">
          <g id="Grupo_1105578" data-name="Grupo 1105578" transform="translate(0 23.341)">
            <path id="Trazado_900643" data-name="Trazado 900643" d="M371.252,305.7v.953l.3.171.1-1.016Z" transform="translate(-371.252 -305.282)" fill="#0a0808"/>
            <path id="Trazado_900644" data-name="Trazado 900644" d="M371.513,305.869v.951h.42l.3-1.124Z" transform="translate(-371.218 -305.282)" fill="#211a1a"/>
            <path id="Trazado_900645" data-name="Trazado 900645" d="M371.884,305.869v.951l.3-.171V305.7Z" transform="translate(-371.169 -305.282)" fill="#362c29"/>
            <path id="Trazado_900646" data-name="Trazado 900646" d="M372.262,305.5v.242l-.3.173h-.42l-.3-.173V305.5l.294-.172h.421Z" transform="translate(-371.252 -305.33)" fill="#574943"/>
          </g>
          <g id="Grupo_1105579" data-name="Grupo 1105579" transform="translate(0.076)">
            <path id="Trazado_900647" data-name="Trazado 900647" d="M371.571,285l.05.4-.05,23.1-.252-.145V285.148Z" transform="translate(-371.319 -284.653)" fill="#403531"/>
            <path id="Trazado_900648" data-name="Trazado 900648" d="M371.895,284.822l.1.575-.1,23.136h-.353V285.024l.033-.2Z" transform="translate(-371.29 -284.676)" fill="#544540"/>
            <path id="Trazado_900649" data-name="Trazado 900649" d="M371.854,284.839v23.711l.252-.145V284.693l-.216.031Z" transform="translate(-371.249 -284.693)" fill="#685750"/>
          </g>
        </g>
        <g id="Grupo_1105581" data-name="Grupo 1105581" transform="translate(0.079)">
          <path id="Trazado_900650" data-name="Trazado 900650" d="M373.171,285.307l-9.2-5.3-.249.145.641.538,7.2,4.1,1.35.666Z" transform="translate(-363.476 -280.005)" fill="#836e69"/>
          <path id="Trazado_900651" data-name="Trazado 900651" d="M372.948,285.436l-9.192-5.3-.251.267,6.417,3.89,2.673,1.349Z" transform="translate(-363.505 -279.988)" fill="#544540"/>
          <path id="Trazado_900652" data-name="Trazado 900652" d="M372.595,285.608l-9.09-5.239.251.438,8.587,4.948.122.086Z" transform="translate(-363.505 -279.957)" fill="#403531"/>
        </g>
      </g>
      <g id="Grupo_1105591" data-name="Grupo 1105591" transform="translate(0 1.823)">
        <g id="Grupo_1105585" data-name="Grupo 1105585" transform="translate(0 0.236)">
          <g id="Grupo_1105583" data-name="Grupo 1105583" transform="translate(0 2.729)">
            <path id="Trazado_900653" data-name="Trazado 900653" d="M360.644,284.605v.094l.3.172.1-.158Z" transform="translate(-360.644 -284.191)" fill="#0a0808"/>
            <path id="Trazado_900654" data-name="Trazado 900654" d="M360.906,284.777v.094h.417l.3-.266Z" transform="translate(-360.61 -284.191)" fill="#211a1a"/>
            <path id="Trazado_900655" data-name="Trazado 900655" d="M361.275,284.777v.094l.3-.17v-.1Z" transform="translate(-360.561 -284.191)" fill="#362c29"/>
            <path id="Trazado_900656" data-name="Trazado 900656" d="M361.654,284.411v.242l-.3.172h-.417l-.3-.172v-.242l.294-.172h.42Z" transform="translate(-360.644 -284.239)" fill="#574943"/>
          </g>
          <g id="Grupo_1105584" data-name="Grupo 1105584" transform="translate(0.077)">
            <path id="Trazado_900657" data-name="Trazado 900657" d="M360.964,282.42l.05.111-.05,2.519-.252-.145V281.98Z" transform="translate(-360.712 -281.806)" fill="#403531"/>
            <path id="Trazado_900658" data-name="Trazado 900658" d="M361.289,281.928l.1.578-.1,2.55h-.354v-2.925l.261.035Z" transform="translate(-360.683 -281.813)" fill="#685750"/>
            <path id="Trazado_900659" data-name="Trazado 900659" d="M361.248,281.941v3.128l.25-.145V282l-.215-.174Z" transform="translate(-360.642 -281.826)" fill="#544540"/>
          </g>
        </g>
        <g id="Grupo_1105586" data-name="Grupo 1105586" transform="translate(7.411 29.247)">
          <path id="Trazado_900660" data-name="Trazado 900660" d="M370.155,308.1l-1.079-.622-1.163.667,1.107,1.094Z" transform="translate(-367.103 -307.476)" fill="#836e69"/>
          <path id="Trazado_900661" data-name="Trazado 900661" d="M369.1,308.695l-1.093-.629-.81,1.4,1.091,1.945Z" transform="translate(-367.197 -307.399)" fill="#685750"/>
          <path id="Trazado_900662" data-name="Trazado 900662" d="M368.292,309.93l-1.095-.622.012,1.323,1.079.622Z" transform="translate(-367.197 -307.236)" fill="#544540"/>
          <path id="Trazado_900663" data-name="Trazado 900663" d="M368.974,311.891l-.812-.469,0-1.323.808-1.4,1.149-.674.812.469,0,1.337-.808,1.4Z" transform="translate(-367.071 -307.404)" fill="#403531"/>
          <path id="Trazado_900664" data-name="Trazado 900664" d="M370.7,308.615l-.269-.153-1.723,2.981.268.154,1.01-.579.709-1.229Z" transform="translate(-367 -307.347)" fill="#836e69"/>
          <path id="Trazado_900665" data-name="Trazado 900665" d="M370.478,308.492l-.444-.258-1.012.595-.708,1.226,0,1.162.444.257,1.01-.58.709-1.226Z" transform="translate(-367.051 -307.377)" fill="#fff"/>
          <path id="Trazado_900666" data-name="Trazado 900666" d="M369.362,309.869l-.143.016.37-1.28.141-.016Z" transform="translate(-366.932 -307.33)" fill="#362c29"/>
          <path id="Trazado_900667" data-name="Trazado 900667" d="M369.168,310.2l-.2-.118v-.329l.2-.343.285-.167.2.116v.331l-.2.344Z" transform="translate(-366.965 -307.244)" fill="#a39c95"/>
        </g>
        <g id="Grupo_1105589" data-name="Grupo 1105589" transform="translate(8.839 5.303)">
          <g id="Grupo_1105587" data-name="Grupo 1105587" transform="translate(0 23.341)">
            <path id="Trazado_900668" data-name="Trazado 900668" d="M368.459,307.309v.952l.3.172.1-1.016Z" transform="translate(-368.459 -306.895)" fill="#0a0808"/>
            <path id="Trazado_900669" data-name="Trazado 900669" d="M368.721,307.479v.955h.418l.3-1.124Z" transform="translate(-368.425 -306.895)" fill="#211a1a"/>
            <path id="Trazado_900670" data-name="Trazado 900670" d="M369.091,307.479v.955l.3-.172v-.952Z" transform="translate(-368.376 -306.895)" fill="#362c29"/>
            <path id="Trazado_900671" data-name="Trazado 900671" d="M369.469,307.117v.24l-.3.17h-.418l-.3-.17v-.24l.3-.174h.418Z" transform="translate(-368.459 -306.943)" fill="#574943"/>
          </g>
          <g id="Grupo_1105588" data-name="Grupo 1105588" transform="translate(0.077)">
            <path id="Trazado_900672" data-name="Trazado 900672" d="M368.779,286.612l.049.406-.049,23.1-.252-.142V286.758Z" transform="translate(-368.527 -286.266)" fill="#403531"/>
            <path id="Trazado_900673" data-name="Trazado 900673" d="M369.1,286.434l.1.577-.1,23.134h-.352V286.635l.032-.2Z" transform="translate(-368.498 -286.289)" fill="#544540"/>
            <path id="Trazado_900674" data-name="Trazado 900674" d="M369.061,286.451v23.711l.252-.143V286.306l-.215.031Z" transform="translate(-368.457 -286.306)" fill="#685750"/>
          </g>
        </g>
        <g id="Grupo_1105590" data-name="Grupo 1105590" transform="translate(0.077)">
          <path id="Trazado_900675" data-name="Trazado 900675" d="M370.378,286.92l-9.194-5.3-.249.146.64.537,7.2,4.1,1.35.665Z" transform="translate(-360.683 -281.617)" fill="#836e69"/>
          <path id="Trazado_900676" data-name="Trazado 900676" d="M370.155,287.048l-9.191-5.3-.252.265,6.416,3.891,2.675,1.348Z" transform="translate(-360.712 -281.6)" fill="#544540"/>
          <path id="Trazado_900677" data-name="Trazado 900677" d="M369.8,287.219l-9.091-5.239.252.44,8.587,4.945.122.088Z" transform="translate(-360.712 -281.569)" fill="#403531"/>
        </g>
      </g>
    </g>
    <g id="Grupo_1105627" data-name="Grupo 1105627" transform="translate(358.622 309.083)">
      <g id="Grupo_1105593" data-name="Grupo 1105593">
        <path id="Trazado_900678" data-name="Trazado 900678" d="M354.839,321.826l2.34,1.358,11.85-17.828-14.19,5.492Z" transform="translate(-354.839 -303.998)" fill="#d8d1c7"/>
        <path id="Trazado_900679" data-name="Trazado 900679" d="M357.179,312.359l11.85-6.846-2.34-1.358-11.85,6.851Z" transform="translate(-354.839 -304.155)" fill="#e6e1dd"/>
        <path id="Trazado_900680" data-name="Trazado 900680" d="M356.908,323.184l11.85-6.844V305.356l-11.85,6.846Z" transform="translate(-354.568 -303.998)" fill="#a39c95"/>
      </g>
      <g id="Grupo_1105596" data-name="Grupo 1105596" transform="translate(9.428 2.557)">
        <path id="Trazado_900681" data-name="Trazado 900681" d="M367.363,306.416v7.373l-4.188,2.421v-.165l4.043-2.34V306.5Z" transform="translate(-363.175 -306.416)" fill="#5e4439"/>
        <path id="Trazado_900682" data-name="Trazado 900682" d="M367.218,306.489V313.7l-4.043,2.34v-7.2Z" transform="translate(-363.175 -306.406)" fill="#736656"/>
        <g id="Grupo_1105594" data-name="Grupo 1105594" transform="translate(0.259 1.889)">
          <path id="Trazado_900683" data-name="Trazado 900683" d="M363.4,308.783v.612l1.2-.7v-.612Z" transform="translate(-363.404 -308.086)" fill="#e3bd5e"/>
          <path id="Trazado_900684" data-name="Trazado 900684" d="M363.4,310.447l1.2-.694v-.613l-1.2.7Z" transform="translate(-363.404 -307.948)" fill="#e3d791"/>
          <path id="Trazado_900685" data-name="Trazado 900685" d="M363.4,311.5l1.2-.694v-.615l-1.2.7Z" transform="translate(-363.404 -307.81)" fill="#5e4439"/>
          <path id="Trazado_900686" data-name="Trazado 900686" d="M363.4,312.554l1.2-.691v-.613l-1.2.7Z" transform="translate(-363.404 -307.671)" fill="#ab9d67"/>
          <path id="Trazado_900687" data-name="Trazado 900687" d="M363.4,313.61l1.2-.694v-.608l-1.2.692Z" transform="translate(-363.404 -307.533)" fill="#5e4439"/>
          <path id="Trazado_900688" data-name="Trazado 900688" d="M363.4,314.667l1.2-.7v-.61l-1.2.694Z" transform="translate(-363.404 -307.395)" fill="#5e4439"/>
        </g>
        <g id="Grupo_1105595" data-name="Grupo 1105595" transform="translate(2.631 0.521)">
          <path id="Trazado_900689" data-name="Trazado 900689" d="M365.5,307.57v.611l1.2-.694v-.61Z" transform="translate(-365.501 -306.877)" fill="#574943"/>
          <path id="Trazado_900690" data-name="Trazado 900690" d="M365.5,309.237l1.2-.693v-.611l-1.2.693Z" transform="translate(-365.501 -306.739)" fill="#574943"/>
          <path id="Trazado_900691" data-name="Trazado 900691" d="M365.5,310.291l1.2-.693v-.612l-1.2.694Z" transform="translate(-365.501 -306.601)" fill="#8ccccb"/>
          <path id="Trazado_900692" data-name="Trazado 900692" d="M365.5,311.347l1.2-.7v-.608l-1.2.692Z" transform="translate(-365.501 -306.462)" fill="#d18067"/>
          <path id="Trazado_900693" data-name="Trazado 900693" d="M365.5,312.4l1.2-.693V311.1l-1.2.694Z" transform="translate(-365.501 -306.324)" fill="#5e4439"/>
          <path id="Trazado_900694" data-name="Trazado 900694" d="M365.5,313.456l1.2-.693v-.612l-1.2.693Z" transform="translate(-365.501 -306.186)" fill="#5e4439"/>
        </g>
      </g>
      <g id="Grupo_1105626" data-name="Grupo 1105626" transform="translate(3.402 5.118)">
        <path id="Trazado_900695" data-name="Trazado 900695" d="M357.847,319.977l.451.264,5.358-11.328-5.809,2.83Z" transform="translate(-357.847 -308.65)" fill="#d8d1c7"/>
        <path id="Trazado_900696" data-name="Trazado 900696" d="M358.3,312.037l5.358-3.094-.451-.262-5.358,3.092Z" transform="translate(-357.847 -308.68)" fill="#e6e1dd"/>
        <path id="Trazado_900697" data-name="Trazado 900697" d="M358.246,320.24l5.358-3.093v-8.235l-5.358,3.094Z" transform="translate(-357.795 -308.65)" fill="#a39c95"/>
        <g id="Grupo_1105597" data-name="Grupo 1105597" transform="translate(1.025 1.21)">
          <path id="Trazado_900698" data-name="Trazado 900698" d="M362.946,309.75v2.01l-4.193,2.418v-.165l4.046-2.337v-1.839Z" transform="translate(-358.753 -309.75)" fill="#5e4439"/>
          <path id="Trazado_900699" data-name="Trazado 900699" d="M362.8,309.827v1.839L358.753,314v-1.84Z" transform="translate(-358.753 -309.74)" fill="#736656"/>
        </g>
        <g id="Grupo_1105598" data-name="Grupo 1105598" transform="translate(1.025 3.833)">
          <path id="Trazado_900700" data-name="Trazado 900700" d="M362.946,312.069v4.394l-4.193,2.42v-.166l4.046-2.338v-4.225Z" transform="translate(-358.753 -312.069)" fill="#574943"/>
          <path id="Trazado_900701" data-name="Trazado 900701" d="M362.8,312.144v4.225l-4.046,2.338v-4.225Z" transform="translate(-358.753 -312.059)" fill="#362c29"/>
        </g>
        <g id="Grupo_1105601" data-name="Grupo 1105601" transform="translate(1.379 6.124)">
          <g id="Grupo_1105599" data-name="Grupo 1105599">
            <path id="Trazado_900702" data-name="Trazado 900702" d="M359.591,314.136l-.068-.041-.282.161.071.158Z" transform="translate(-359.043 -314.095)" fill="#fff"/>
            <path id="Trazado_900703" data-name="Trazado 900703" d="M359.336,314.277l-.071-.04-.2.342.071.364Z" transform="translate(-359.066 -314.076)" fill="#f4efe9"/>
            <path id="Trazado_900704" data-name="Trazado 900704" d="M359.137,314.582l-.071-.043v.326l.071.038Z" transform="translate(-359.066 -314.037)" fill="#e0dedc"/>
            <path id="Trazado_900705" data-name="Trazado 900705" d="M359.328,315.076l-.2-.119v-.321l.2-.345.278-.163.2.119v.32l-.2.342Z" transform="translate(-359.058 -314.091)" fill="#d1d1d1"/>
          </g>
          <g id="Grupo_1105600" data-name="Grupo 1105600" transform="translate(0.157 0.144)">
            <path id="Trazado_900706" data-name="Trazado 900706" d="M359.806,314.358l-.237-.136-.224.13.239.228Z" transform="translate(-359.187 -314.222)" fill="#fa5c52"/>
            <path id="Trazado_900707" data-name="Trazado 900707" d="M359.6,314.472l-.234-.135-.158.273.234.4Z" transform="translate(-359.205 -314.207)" fill="#c84030"/>
            <path id="Trazado_900708" data-name="Trazado 900708" d="M359.439,314.715l-.234-.137v.259l.234.139Z" transform="translate(-359.205 -314.175)" fill="#ab281f"/>
            <path id="Trazado_900709" data-name="Trazado 900709" d="M359.57,315.1l-.158-.093v-.261l.158-.275.227-.129.156.093v.258l-.156.277Z" transform="translate(-359.178 -314.206)" fill="#8a1c14"/>
          </g>
        </g>
        <g id="Grupo_1105604" data-name="Grupo 1105604" transform="translate(2.688 5.366)">
          <g id="Grupo_1105602" data-name="Grupo 1105602">
            <path id="Trazado_900710" data-name="Trazado 900710" d="M360.753,313.464l-.075-.04-.276.159.069.161Z" transform="translate(-360.201 -313.424)" fill="#fff"/>
            <path id="Trazado_900711" data-name="Trazado 900711" d="M360.494,313.61l-.069-.045-.2.348.069.362Z" transform="translate(-360.224 -313.406)" fill="#f4efe9"/>
            <path id="Trazado_900712" data-name="Trazado 900712" d="M360.293,313.915l-.069-.042v.326l.069.036Z" transform="translate(-360.224 -313.365)" fill="#e0dedc"/>
            <path id="Trazado_900713" data-name="Trazado 900713" d="M360.486,314.406l-.2-.116v-.32l.2-.347.282-.163.2.113v.328l-.2.342Z" transform="translate(-360.216 -313.419)" fill="#d1d1d1"/>
          </g>
          <g id="Grupo_1105603" data-name="Grupo 1105603" transform="translate(0.15 0.142)">
            <path id="Trazado_900714" data-name="Trazado 900714" d="M360.964,313.691l-.237-.141-.226.131.244.226Z" transform="translate(-360.338 -313.55)" fill="#fbe979"/>
            <path id="Trazado_900715" data-name="Trazado 900715" d="M360.759,313.8l-.24-.138-.162.276.239.4Z" transform="translate(-360.357 -313.535)" fill="#e3bd5e"/>
            <path id="Trazado_900716" data-name="Trazado 900716" d="M360.6,314.049l-.239-.139v.261l.239.138Z" transform="translate(-360.357 -313.503)" fill="#d6a950"/>
            <path id="Trazado_900717" data-name="Trazado 900717" d="M360.731,314.429l-.163-.089v-.26l.163-.277.224-.128.159.087v.265l-.159.273Z" transform="translate(-360.329 -313.534)" fill="#cc934c"/>
          </g>
        </g>
        <g id="Grupo_1105607" data-name="Grupo 1105607" transform="translate(3.999 4.607)">
          <g id="Grupo_1105605" data-name="Grupo 1105605">
            <path id="Trazado_900718" data-name="Trazado 900718" d="M361.91,312.795l-.067-.042-.284.165.072.158Z" transform="translate(-361.36 -312.753)" fill="#fff"/>
            <path id="Trazado_900719" data-name="Trazado 900719" d="M361.652,312.94l-.07-.041-.2.343.069.362Z" transform="translate(-361.383 -312.734)" fill="#f4efe9"/>
            <path id="Trazado_900720" data-name="Trazado 900720" d="M361.452,313.243l-.069-.041v.322l.069.04Z" transform="translate(-361.383 -312.694)" fill="#e0dedc"/>
            <path id="Trazado_900721" data-name="Trazado 900721" d="M361.644,313.736l-.2-.118V313.3l.2-.343.28-.164.2.113v.326l-.2.346Z" transform="translate(-361.375 -312.748)" fill="#d1d1d1"/>
          </g>
          <g id="Grupo_1105606" data-name="Grupo 1105606" transform="translate(0.154 0.147)">
            <path id="Trazado_900722" data-name="Trazado 900722" d="M362.127,313.02l-.243-.137-.223.13.24.227Z" transform="translate(-361.5 -312.883)" fill="#e8f3ff"/>
            <path id="Trazado_900723" data-name="Trazado 900723" d="M361.919,313.135l-.24-.137-.161.271.24.4Z" transform="translate(-361.519 -312.868)" fill="#c8dfe8"/>
            <path id="Trazado_900724" data-name="Trazado 900724" d="M361.759,313.377l-.24-.139v.265l.24.135Z" transform="translate(-361.519 -312.836)" fill="#b4ced6"/>
            <path id="Trazado_900725" data-name="Trazado 900725" d="M361.892,313.757l-.161-.089v-.26l.161-.275.226-.129.155.091v.261l-.155.276Z" transform="translate(-361.491 -312.867)" fill="#a1b4bf"/>
          </g>
        </g>
        <g id="Grupo_1105610" data-name="Grupo 1105610" transform="translate(1.379 7.316)">
          <g id="Grupo_1105608" data-name="Grupo 1105608">
            <path id="Trazado_900726" data-name="Trazado 900726" d="M359.591,315.185l-.068-.036-.282.161.071.158Z" transform="translate(-359.043 -315.149)" fill="#fff"/>
            <path id="Trazado_900727" data-name="Trazado 900727" d="M359.336,315.329l-.071-.038-.2.344.071.364Z" transform="translate(-359.066 -315.13)" fill="#f4efe9"/>
            <path id="Trazado_900728" data-name="Trazado 900728" d="M359.137,315.635l-.071-.04v.323l.071.041Z" transform="translate(-359.066 -315.091)" fill="#e0dedc"/>
            <path id="Trazado_900729" data-name="Trazado 900729" d="M359.328,316.132l-.2-.119v-.325l.2-.345.278-.163.2.119v.323l-.2.344Z" transform="translate(-359.058 -315.145)" fill="#d1d1d1"/>
          </g>
          <g id="Grupo_1105609" data-name="Grupo 1105609" transform="translate(0.157 0.141)">
            <path id="Trazado_900730" data-name="Trazado 900730" d="M359.806,315.413l-.237-.139-.224.132.239.231Z" transform="translate(-359.187 -315.274)" fill="#fa5c52"/>
            <path id="Trazado_900731" data-name="Trazado 900731" d="M359.6,315.529l-.234-.138-.158.274.234.4Z" transform="translate(-359.205 -315.259)" fill="#c84030"/>
            <path id="Trazado_900732" data-name="Trazado 900732" d="M359.439,315.768l-.234-.135v.258l.234.14Z" transform="translate(-359.205 -315.227)" fill="#ab281f"/>
            <path id="Trazado_900733" data-name="Trazado 900733" d="M359.57,316.152l-.158-.09V315.8l.158-.27.227-.131.156.093v.258l-.156.275Z" transform="translate(-359.178 -315.258)" fill="#8a1c14"/>
          </g>
        </g>
        <g id="Grupo_1105613" data-name="Grupo 1105613" transform="translate(2.688 6.56)">
          <g id="Grupo_1105611" data-name="Grupo 1105611">
            <path id="Trazado_900734" data-name="Trazado 900734" d="M360.753,314.521l-.075-.041-.276.159.069.156Z" transform="translate(-360.201 -314.48)" fill="#fff"/>
            <path id="Trazado_900735" data-name="Trazado 900735" d="M360.494,314.665l-.069-.044-.2.347.069.361Z" transform="translate(-360.224 -314.462)" fill="#f4efe9"/>
            <path id="Trazado_900736" data-name="Trazado 900736" d="M360.293,314.968l-.069-.04v.325l.069.036Z" transform="translate(-360.224 -314.421)" fill="#e0dedc"/>
            <path id="Trazado_900737" data-name="Trazado 900737" d="M360.486,315.461l-.2-.119v-.321l.2-.345.282-.161.2.112v.326l-.2.342Z" transform="translate(-360.216 -314.475)" fill="#d1d1d1"/>
          </g>
          <g id="Grupo_1105612" data-name="Grupo 1105612" transform="translate(0.15 0.142)">
            <path id="Trazado_900738" data-name="Trazado 900738" d="M360.964,314.744l-.237-.138-.226.133.244.226Z" transform="translate(-360.338 -314.606)" fill="#fbe979"/>
            <path id="Trazado_900739" data-name="Trazado 900739" d="M360.759,314.86l-.24-.136-.162.274.239.4Z" transform="translate(-360.357 -314.59)" fill="#e3bd5e"/>
            <path id="Trazado_900740" data-name="Trazado 900740" d="M360.6,315.1l-.239-.136v.261l.239.136Z" transform="translate(-360.357 -314.559)" fill="#d6a950"/>
            <path id="Trazado_900741" data-name="Trazado 900741" d="M360.731,315.483l-.163-.089v-.261l.163-.274.224-.131.159.089v.264l-.159.274Z" transform="translate(-360.329 -314.59)" fill="#cc934c"/>
          </g>
        </g>
        <g id="Grupo_1105616" data-name="Grupo 1105616" transform="translate(3.999 5.799)">
          <g id="Grupo_1105614" data-name="Grupo 1105614">
            <path id="Trazado_900742" data-name="Trazado 900742" d="M361.91,313.849l-.067-.042-.284.164.072.159Z" transform="translate(-361.36 -313.807)" fill="#fff"/>
            <path id="Trazado_900743" data-name="Trazado 900743" d="M361.652,314l-.07-.045-.2.346.069.362Z" transform="translate(-361.383 -313.788)" fill="#f4efe9"/>
            <path id="Trazado_900744" data-name="Trazado 900744" d="M361.452,314.3l-.069-.041v.322l.069.04Z" transform="translate(-361.383 -313.748)" fill="#e0dedc"/>
            <path id="Trazado_900745" data-name="Trazado 900745" d="M361.644,314.792l-.2-.118v-.321l.2-.342.28-.167.2.119v.322l-.2.344Z" transform="translate(-361.375 -313.802)" fill="#d1d1d1"/>
          </g>
          <g id="Grupo_1105615" data-name="Grupo 1105615" transform="translate(0.154 0.148)">
            <path id="Trazado_900746" data-name="Trazado 900746" d="M362.127,314.076l-.243-.138-.223.131.24.227Z" transform="translate(-361.5 -313.938)" fill="#fbe979"/>
            <path id="Trazado_900747" data-name="Trazado 900747" d="M361.919,314.192l-.24-.138-.161.271.24.4Z" transform="translate(-361.519 -313.923)" fill="#e3bd5e"/>
            <path id="Trazado_900748" data-name="Trazado 900748" d="M361.759,314.431l-.24-.137v.262l.24.137Z" transform="translate(-361.519 -313.891)" fill="#d6a950"/>
            <path id="Trazado_900749" data-name="Trazado 900749" d="M361.892,314.813l-.161-.089v-.262l.161-.273.226-.129.155.092v.257l-.155.278Z" transform="translate(-361.491 -313.922)" fill="#cc934c"/>
          </g>
        </g>
        <g id="Grupo_1105619" data-name="Grupo 1105619" transform="translate(1.379 8.506)">
          <g id="Grupo_1105617" data-name="Grupo 1105617">
            <path id="Trazado_900750" data-name="Trazado 900750" d="M359.591,316.241l-.068-.04-.282.167.071.152Z" transform="translate(-359.043 -316.201)" fill="#fff"/>
            <path id="Trazado_900751" data-name="Trazado 900751" d="M359.336,316.387l-.071-.038-.2.34.071.364Z" transform="translate(-359.066 -316.182)" fill="#f4efe9"/>
            <path id="Trazado_900752" data-name="Trazado 900752" d="M359.137,316.69l-.071-.04v.323l.071.041Z" transform="translate(-359.066 -316.142)" fill="#e0dedc"/>
            <path id="Trazado_900753" data-name="Trazado 900753" d="M359.328,317.189l-.2-.12v-.325l.2-.342.278-.168.2.12v.322l-.2.344Z" transform="translate(-359.058 -316.197)" fill="#d1d1d1"/>
          </g>
          <g id="Grupo_1105618" data-name="Grupo 1105618" transform="translate(0.157 0.147)">
            <path id="Trazado_900754" data-name="Trazado 900754" d="M359.806,316.464l-.237-.133-.224.128.239.233Z" transform="translate(-359.187 -316.331)" fill="#baf3ff"/>
            <path id="Trazado_900755" data-name="Trazado 900755" d="M359.6,316.583l-.234-.139-.158.276.234.4Z" transform="translate(-359.205 -316.316)" fill="#7dd2e3"/>
            <path id="Trazado_900756" data-name="Trazado 900756" d="M359.439,316.826l-.234-.138v.257l.234.141Z" transform="translate(-359.205 -316.284)" fill="#6cb5c4"/>
            <path id="Trazado_900757" data-name="Trazado 900757" d="M359.57,317.207l-.158-.089v-.26l.158-.275.227-.133.156.094v.26l-.156.279Z" transform="translate(-359.178 -316.316)" fill="#5f9fad"/>
          </g>
        </g>
        <g id="Grupo_1105622" data-name="Grupo 1105622" transform="translate(2.691 7.755)">
          <g id="Grupo_1105620" data-name="Grupo 1105620">
            <path id="Trazado_900758" data-name="Trazado 900758" d="M360.75,315.572l-.071-.035-.279.16.072.154Z" transform="translate(-360.203 -315.537)" fill="#fff"/>
            <path id="Trazado_900759" data-name="Trazado 900759" d="M360.494,315.718l-.072-.04-.2.34.067.366Z" transform="translate(-360.226 -315.519)" fill="#f4efe9"/>
            <path id="Trazado_900760" data-name="Trazado 900760" d="M360.293,316.023l-.067-.044v.327l.067.04Z" transform="translate(-360.226 -315.479)" fill="#e0dedc"/>
            <path id="Trazado_900761" data-name="Trazado 900761" d="M360.486,316.518l-.2-.119v-.322l.2-.345.278-.165.2.12v.32l-.2.347Z" transform="translate(-360.218 -315.533)" fill="#d1d1d1"/>
          </g>
          <g id="Grupo_1105621" data-name="Grupo 1105621" transform="translate(0.154 0.139)">
            <path id="Trazado_900762" data-name="Trazado 900762" d="M360.964,315.8l-.239-.139-.225.13.244.231Z" transform="translate(-360.344 -315.66)" fill="#baf3ff"/>
            <path id="Trazado_900763" data-name="Trazado 900763" d="M360.758,315.914l-.24-.139-.156.275.233.4Z" transform="translate(-360.362 -315.645)" fill="#7dd2e3"/>
            <path id="Trazado_900764" data-name="Trazado 900764" d="M360.595,316.156l-.233-.138v.26l.233.137Z" transform="translate(-360.362 -315.613)" fill="#6cb5c4"/>
            <path id="Trazado_900765" data-name="Trazado 900765" d="M360.731,316.536l-.163-.091v-.259l.163-.274.224-.13.159.091v.257l-.159.277Z" transform="translate(-360.335 -315.644)" fill="#5f9fad"/>
          </g>
        </g>
        <g id="Grupo_1105625" data-name="Grupo 1105625" transform="translate(3.999 6.993)">
          <g id="Grupo_1105623" data-name="Grupo 1105623">
            <path id="Trazado_900766" data-name="Trazado 900766" d="M361.91,314.9l-.067-.04-.284.164.072.156Z" transform="translate(-361.36 -314.863)" fill="#fff"/>
            <path id="Trazado_900767" data-name="Trazado 900767" d="M361.652,315.05l-.07-.042-.2.343.069.364Z" transform="translate(-361.383 -314.844)" fill="#f4efe9"/>
            <path id="Trazado_900768" data-name="Trazado 900768" d="M361.452,315.357l-.069-.046v.321l.069.043Z" transform="translate(-361.383 -314.804)" fill="#e0dedc"/>
            <path id="Trazado_900769" data-name="Trazado 900769" d="M361.644,315.848l-.2-.119v-.318l.2-.347.28-.166.2.118v.325l-.2.346Z" transform="translate(-361.375 -314.858)" fill="#d1d1d1"/>
          </g>
          <g id="Grupo_1105624" data-name="Grupo 1105624" transform="translate(0.154 0.144)">
            <path id="Trazado_900770" data-name="Trazado 900770" d="M362.127,315.129l-.243-.139-.223.136.24.227Z" transform="translate(-361.5 -314.99)" fill="#fbe979"/>
            <path id="Trazado_900771" data-name="Trazado 900771" d="M361.919,315.245l-.24-.135-.161.274.24.392Z" transform="translate(-361.519 -314.974)" fill="#e3bd5e"/>
            <path id="Trazado_900772" data-name="Trazado 900772" d="M361.759,315.489l-.24-.137v.26l.24.132Z" transform="translate(-361.519 -314.943)" fill="#d6a950"/>
            <path id="Trazado_900773" data-name="Trazado 900773" d="M361.892,315.868l-.161-.093v-.256l.161-.276.226-.131.155.1v.253l-.155.279Z" transform="translate(-361.491 -314.974)" fill="#cc934c"/>
          </g>
        </g>
      </g>
    </g>
  </g>
</svg>
