<svg xmlns="http://www.w3.org/2000/svg" width="58.609" height="59.037" viewBox="0 0 58.609 59.037">
  <g id="Grupo_1106143" data-name="Grupo 1106143" transform="matrix(0.891, 0.454, -0.454, 0.891, -99.817, -199.807)">
    <g id="Grupo_1101442" data-name="Grupo 1101442">
      <g id="Grupo_1101430" data-name="Grupo 1101430">
        <path id="Trazado_876662" data-name="Trazado 876662" d="M218.625,124.87a.882.882,0,0,1-.882-.882V115.26a.882.882,0,1,1,1.764,0v8.728A.882.882,0,0,1,218.625,124.87Z" fill="#17443e"/>
        <path id="Trazado_876663" data-name="Trazado 876663" d="M235.587,115.4a11.608,11.608,0,0,0-16.436,5.55c3.394,1.042,6.935,1.689,10.375.807A7.553,7.553,0,0,0,235.587,115.4Z" fill="#008379"/>
        <path id="Trazado_876664" data-name="Trazado 876664" d="M218.654,122.014a.882.882,0,0,1-.406-1.665,59.932,59.932,0,0,1,15.992-5.585.882.882,0,0,1,.341,1.731,58.168,58.168,0,0,0-15.522,5.421A.878.878,0,0,1,218.654,122.014Z" fill="#17443e"/>
      </g>
      <g id="Grupo_1101441" data-name="Grupo 1101441">
        <path id="Trazado_876665" data-name="Trazado 876665" d="M200.293,156.759a20.23,20.23,0,0,0,4.465,5.631c16.724,14.656,41.31-2.79,35.018-23.315a19.958,19.958,0,0,0-5.01-7.995c-5.48-5.574-13.695-8.663-21.345-7.058C198.858,127.076,193.865,144.85,200.293,156.759Z" fill="#ff9e5e"/>
        <g id="Grupo_1101432" data-name="Grupo 1101432">
          <g id="Grupo_1101431" data-name="Grupo 1101431">
            <path id="Trazado_876666" data-name="Trazado 876666" d="M206.572,156.984a1.41,1.41,0,0,0,0-2.818,1.41,1.41,0,0,0,0,2.818Z" fill="#ff9e5e"/>
          </g>
        </g>
        <g id="Grupo_1101434" data-name="Grupo 1101434">
          <g id="Grupo_1101433" data-name="Grupo 1101433">
            <path id="Trazado_876667" data-name="Trazado 876667" d="M213.222,161.417h.554a1.445,1.445,0,0,0,1.409-1.408c-.017-.125-.034-.25-.05-.375a1.414,1.414,0,0,0-.362-.622l-.285-.22a1.4,1.4,0,0,0-.711-.192h-.554a1.445,1.445,0,0,0-1.409,1.408c.017.125.033.25.05.375a1.414,1.414,0,0,0,.362.622l.285.22a1.4,1.4,0,0,0,.711.192Z" fill="#ff9e5e"/>
          </g>
        </g>
        <g id="Grupo_1101436" data-name="Grupo 1101436">
          <g id="Grupo_1101435" data-name="Grupo 1101435">
            <path id="Trazado_876668" data-name="Trazado 876668" d="M219.571,153.912v.554a1.067,1.067,0,0,0,.121.543,1.446,1.446,0,0,0,1.287.865l.375-.05a1.414,1.414,0,0,0,.622-.362l.22-.285a1.39,1.39,0,0,0,.192-.711v-.554a1.445,1.445,0,0,0-1.408-1.409l-.375.05a1.414,1.414,0,0,0-.622.362l-.22.285a1.416,1.416,0,0,0-.192.712Z" fill="#ff9e5e"/>
          </g>
        </g>
        <g id="Grupo_1101438" data-name="Grupo 1101438">
          <g id="Grupo_1101437" data-name="Grupo 1101437">
            <path id="Trazado_876669" data-name="Trazado 876669" d="M208.235,148.118a1.41,1.41,0,0,0,0-2.818,1.41,1.41,0,0,0,0,2.818Z" fill="#ff9e5e"/>
          </g>
        </g>
        <g id="Grupo_1101440" data-name="Grupo 1101440">
          <g id="Grupo_1101439" data-name="Grupo 1101439">
            <path id="Trazado_876670" data-name="Trazado 876670" d="M202.693,146.455a1.41,1.41,0,0,0,0-2.818,1.41,1.41,0,0,0,0,2.818Z" fill="#ff9e5e"/>
          </g>
        </g>
      </g>
    </g>
    <path id="Trazado_876671" data-name="Trazado 876671" d="M233.859,137.887a.773.773,0,0,1-.638-.336,27.059,27.059,0,0,0-10.77-9.161.773.773,0,0,1,.659-1.4,28.608,28.608,0,0,1,11.386,9.685.774.774,0,0,1-.637,1.211Z" fill="#ebf4e3"/>
  </g>
</svg>
