<svg xmlns="http://www.w3.org/2000/svg" width="55.365" height="71.882" viewBox="0 0 55.365 71.882">
  <g id="Grupo_1106144" data-name="Grupo 1106144" transform="matrix(0.966, -0.259, 0.259, 0.966, -309.931, 52.656)">
    <path id="Trazado_876643" data-name="Trazado 876643" d="M320.441,105.028c13.539,7.025,32.729-4.415,29.944-20.422-1.338-7.69-7.129-13.377-10.263-20.283-2.329-5.131-.59-14.477-7.9-15.709-2.521-.425-5.336-.614-7.41.881-1.833,1.321-2.621,3.623-3.3,5.776-1.682,5.3-2.6,13.218-6.171,17.511C306.064,83.934,306.637,97.866,320.441,105.028Z" transform="translate(0 -4.413)" fill="#177a9f"/>
    <path id="Trazado_876644" data-name="Trazado 876644" d="M323.3,104.141c11.77,6.233,28.436-3.884,26-18.064-1.016-5.926-4.82-10.721-7.787-15.745A29.7,29.7,0,0,1,338,62.264c-.282-1.171-.716-2.313-.97-3.482-.334-1.536-.324-2.963-1.171-4.355-2.033-3.339-6.853-3.131-9.23-.27-1.307,1.573-1.715,3.7-2.14,5.717-1.1,5.242-2.206,11.472-5.654,15.7C310.788,85.446,311.3,97.786,323.3,104.141Z" transform="translate(-1.705 -5.853)" fill="#38a9a1"/>
    <path id="Trazado_876645" data-name="Trazado 876645" d="M338.2,115.934c10.024.675,9.973-16.474-.262-15.167-8.319,1.063-9.962,13.033-1.193,14.955A9.976,9.976,0,0,0,338.2,115.934Z" transform="translate(-8.582 -25.048)" fill="#17443e"/>
    <path id="Trazado_876646" data-name="Trazado 876646" d="M349,108.516a.774.774,0,0,1-.7-.451,5.645,5.645,0,0,0-3.327-2.964.773.773,0,0,1,.479-1.471,7.218,7.218,0,0,1,4.253,3.79.774.774,0,0,1-.7,1.1Z" transform="translate(-14.22 -26.493)" fill="#ebf4e3"/>
    <g id="Grupo_1101414" data-name="Grupo 1101414" transform="translate(329.572 37.105)">
      <path id="Trazado_876647" data-name="Trazado 876647" d="M352.98,37.2a9.094,9.094,0,0,0-9.45,5.123,13.161,13.161,0,0,0,5.65-.416C351.029,41.3,353.035,39.152,352.98,37.2Z" transform="translate(-343.132 -37.105)" fill="#008379"/>
      <path id="Trazado_876648" data-name="Trazado 876648" d="M343.28,46.459a.778.778,0,0,1-.775-.722l-.407-5.643a.778.778,0,0,1,1.552-.112l.407,5.643a.778.778,0,0,1-.72.832Z" transform="translate(-342.874 -38.261)" fill="#17443e"/>
      <path id="Trazado_876649" data-name="Trazado 876649" d="M343.352,43.362a.778.778,0,0,1-.362-1.467l4.843-2.538,4.664-2.444a.778.778,0,0,1,.722,1.378l-4.664,2.444-4.843,2.538A.775.775,0,0,1,343.352,43.362Z" transform="translate(-343.062 -37.301)" fill="#17443e"/>
    </g>
    <path id="Trazado_876650" data-name="Trazado 876650" d="M347.991,59.925a.774.774,0,0,1-.741-.552,9.451,9.451,0,0,0-1.341-2.753.773.773,0,1,1,1.263-.893,11,11,0,0,1,1.56,3.2.774.774,0,0,1-.741,1Z" transform="translate(-14.747 -7.511)" fill="#ebf4e3"/>
    <path id="Trazado_876651" data-name="Trazado 876651" d="M320.3,124.74a.953.953,0,0,1-.713-.319,19.515,19.515,0,0,1-4.26-7.866.956.956,0,1,1,1.846-.5,17.594,17.594,0,0,0,3.84,7.092.956.956,0,0,1-.713,1.592Z" transform="translate(-2.816 -31.196)" fill="#17443e"/>
  </g>
</svg>
