<svg xmlns="http://www.w3.org/2000/svg" width="56.289" height="56.552" viewBox="0 0 56.289 56.552">
  <g id="Grupo_1106141" data-name="Grupo 1106141" transform="translate(-16.07 -448.12) rotate(17)">
    <path id="Trazado_876725" data-name="Trazado 876725" d="M182.032,465.926q-4.748.183-9.5-.035c-4.231-.194-8.967-.9-11.5-4.3-1.973-2.644-2.043-6.2-2.032-9.5q.017-5.02.035-10.04c.015-4.412.123-9.132,2.644-12.753,3.2-4.6,9.263-6.033,14.768-7.115h5.181" transform="translate(0 -0.91)" fill="#008379"/>
    <path id="Trazado_876726" data-name="Trazado 876726" d="M186.865,466.064q4.748.184,9.5-.035c4.231-.194,8.967-.9,11.5-4.3,1.973-2.644,2.043-6.2,2.032-9.5q-.017-5.02-.035-10.04c-.015-4.413-.123-9.132-2.644-12.753-3.2-4.6-9.263-6.033-14.767-7.115H187.27" transform="translate(-5.4 -0.937)" fill="#008379"/>
    <path id="Trazado_876727" data-name="Trazado 876727" d="M169.118,425.113c.285-2.86.571-4.668.856-7.528-.145-.243,28.072.069,27.706,0,.019,3.04.038,7.133.057,10.173" transform="translate(-1.961)" fill="#f5f0e4"/>
    <path id="Trazado_876728" data-name="Trazado 876728" d="M189.495,426.8a187.006,187.006,0,0,1-19.73-1.043.82.82,0,1,1,.173-1.631,185.346,185.346,0,0,0,27.007.883.82.82,0,0,1,.066,1.639Q193.263,426.8,189.495,426.8Z" transform="translate(-2.103 -1.443)" fill="#458c79"/>
    <path id="Trazado_876729" data-name="Trazado 876729" d="M197.779,422.687h-.045l-13.469-.723-13.972-.75a.82.82,0,0,1,.088-1.638l13.972.75,13.469.723a.82.82,0,0,1-.043,1.639Z" transform="translate(-2.197 -0.563)" fill="#458c79"/>
    <path id="Trazado_876730" data-name="Trazado 876730" d="M200.332,451.457a25.991,25.991,0,0,1,.279,6.4c-.086.709-.2,1.524-.376,2.345a5.48,5.48,0,0,1-5.313,4.277l-17.387.228a24.964,24.964,0,0,1-6.271-.666,9.091,9.091,0,0,1-3.272-1.391,7.822,7.822,0,0,1-2.829-5.682,23.169,23.169,0,0,1,.672-6.485,18.607,18.607,0,0,1,12.592.13c1.7.706,3.351,1.679,5.189,1.828,3.555.285,7.038-2.58,10.449-1.537a10.473,10.473,0,0,0,2.147.671,14.217,14.217,0,0,0,2.257-.286C199.226,451.222,200.236,450.7,200.332,451.457Z" transform="translate(-1.186 -6.193)" fill="#faf8f2"/>
    <path id="Trazado_876731" data-name="Trazado 876731" d="M210.01,437.884a.774.774,0,0,1-.7-.448,24.5,24.5,0,0,0-3.665-5.677.774.774,0,0,1,1.172-1.01,26.052,26.052,0,0,1,3.9,6.035.774.774,0,0,1-.7,1.1Z" transform="translate(-9.153 -2.667)" fill="#ebf4e3"/>
    <path id="Trazado_876732" data-name="Trazado 876732" d="M212.5,444.282a.773.773,0,0,1-.639-.337,2.49,2.49,0,0,1-.374-1.937.774.774,0,0,1,1.51.335.951.951,0,0,0,.141.73.774.774,0,0,1-.638,1.21Z" transform="translate(-10.311 -4.784)" fill="#ebf4e3"/>
  </g>
</svg>
