<svg xmlns="http://www.w3.org/2000/svg" width="70.743" height="88.441" viewBox="0 0 70.743 88.441">
  <g id="Grupo_1106146" data-name="Grupo 1106146" transform="translate(-109.072 -318.094)">
    <path id="Trazado_901754" data-name="Trazado 901754" d="M141.421,359.4l-32.349,18.689,25.577,14.761L167,374.168Z" transform="translate(0 13.688)" opacity="0.3"/>
    <g id="Grupo_1106000" data-name="Grupo 1106000" transform="translate(109.633 367.72)">
      <g id="Grupo_1105996" data-name="Grupo 1105996" transform="translate(0 17.596)">
        <path id="Trazado_901755" data-name="Trazado 901755" d="M111.746,369.4v.972l-.566,4.428-.445.258-.04-5.376Z" transform="translate(-109.094 -368.315)" fill="#403531"/>
        <path id="Trazado_901756" data-name="Trazado 901756" d="M111.369,369.848l-.234,5.207H110.5l-1.009-5.658Z" transform="translate(-109.493 -368.315)" fill="#544540"/>
        <path id="Trazado_901757" data-name="Trazado 901757" d="M110.268,369.848l.234,5.207-.441-.258-.569-4.428V369.4Z" transform="translate(-109.493 -368.315)" fill="#685750"/>
        <path id="Trazado_901758" data-name="Trazado 901758" d="M109.493,369.033v.634l.775.451h1.1l.776-.451v-.634l-.776-.449h-1.1Z" transform="translate(-109.493 -368.584)" fill="#836e69"/>
      </g>
      <g id="Grupo_1105997" data-name="Grupo 1105997" transform="translate(30.461)">
        <path id="Trazado_901759" data-name="Trazado 901759" d="M134.63,356.179v.975l-.571,4.423-.445.257-.04-5.367Z" transform="translate(-131.974 -355.099)" fill="#403531"/>
        <path id="Trazado_901760" data-name="Trazado 901760" d="M134.244,356.628l-.232,5.206h-.634l-1.007-5.654Z" transform="translate(-132.372 -355.099)" fill="#544540"/>
        <path id="Trazado_901761" data-name="Trazado 901761" d="M133.15,356.628l.229,5.206-.439-.257-.567-4.423v-.975Z" transform="translate(-132.372 -355.099)" fill="#685750"/>
        <path id="Trazado_901762" data-name="Trazado 901762" d="M132.372,355.817v.631l.778.449h1.094l.784-.449v-.631l-.78-.449h-1.1Z" transform="translate(-132.372 -355.368)" fill="#836e69"/>
      </g>
      <g id="Grupo_1105998" data-name="Grupo 1105998" transform="translate(23.699 31.269)">
        <path id="Trazado_901763" data-name="Trazado 901763" d="M129.548,379.67v.973l-.57,4.424-.447.249-.036-5.364Z" transform="translate(-126.895 -378.584)" fill="#403531"/>
        <path id="Trazado_901764" data-name="Trazado 901764" d="M129.169,380.119l-.24,5.2H128.3l-1.011-5.646Z" transform="translate(-127.293 -378.584)" fill="#544540"/>
        <path id="Trazado_901765" data-name="Trazado 901765" d="M128.068,380.119l.236,5.2-.445-.249-.566-4.424v-.973Z" transform="translate(-127.293 -378.584)" fill="#685750"/>
        <path id="Trazado_901766" data-name="Trazado 901766" d="M127.293,379.3v.636l.775.449h1.1l.778-.449V379.3l-.778-.45h-1.1Z" transform="translate(-127.293 -378.854)" fill="#836e69"/>
      </g>
      <g id="Grupo_1105999" data-name="Grupo 1105999" transform="translate(54.158 13.688)">
        <path id="Trazado_901767" data-name="Trazado 901767" d="M152.428,366.463v.973l-.568,4.422-.447.254-.041-5.364Z" transform="translate(-149.773 -365.379)" fill="#403531"/>
        <path id="Trazado_901768" data-name="Trazado 901768" d="M152.046,366.91l-.236,5.2h-.628l-1.011-5.649Z" transform="translate(-150.171 -365.379)" fill="#544540"/>
        <path id="Trazado_901769" data-name="Trazado 901769" d="M150.947,366.91l.234,5.2-.442-.254-.568-4.422v-.973Z" transform="translate(-150.171 -365.379)" fill="#685750"/>
        <path id="Trazado_901770" data-name="Trazado 901770" d="M150.171,366.1v.636l.776.447h1.1l.78-.447V366.1l-.78-.447h-1.1Z" transform="translate(-150.171 -365.649)" fill="#836e69"/>
      </g>
    </g>
    <g id="Grupo_1106014" data-name="Grupo 1106014" transform="translate(109.072 323.458)">
      <path id="Trazado_901771" data-name="Trazado 901771" d="M109.072,380.09l25.577,14.768V350.921l-25.577-14.764Z" transform="translate(-109.072 -317.472)" fill="#e2e2e2"/>
      <g id="Grupo_1106013" data-name="Grupo 1106013" transform="translate(2.568 44.925)">
        <g id="Grupo_1106006" data-name="Grupo 1106006">
          <g id="Grupo_1106001" data-name="Grupo 1106001">
            <path id="Trazado_901772" data-name="Trazado 901772" d="M114.391,357.962v.241l-.173.1-3.038-1.744-.178-.309v-.285l.178-.1.214.121v.044Z" transform="translate(-111.001 -355.866)" fill="#a39c95"/>
            <path id="Trazado_901773" data-name="Trazado 901773" d="M114.293,357.886v.045l-2.821-1.62L111.3,356v-.044l2.824,1.624Z" transform="translate(-110.903 -355.836)" fill="#211a1a"/>
          </g>
          <g id="Grupo_1106002" data-name="Grupo 1106002" transform="translate(0 2.455)">
            <path id="Trazado_901774" data-name="Trazado 901774" d="M114.391,359.8v.242l-.173.1-3.038-1.744-.178-.3v-.288l.178-.1.214.121v.044Z" transform="translate(-111.001 -357.71)" fill="#a39c95"/>
            <path id="Trazado_901775" data-name="Trazado 901775" d="M114.293,359.73v.044l-2.821-1.62-.176-.309V357.8l2.824,1.623Z" transform="translate(-110.903 -357.68)" fill="#211a1a"/>
          </g>
          <g id="Grupo_1106003" data-name="Grupo 1106003" transform="translate(0 4.91)">
            <path id="Trazado_901776" data-name="Trazado 901776" d="M114.391,361.648v.244l-.173.1-3.038-1.744-.178-.3v-.288l.178-.1.214.121v.047Z" transform="translate(-111.001 -359.554)" fill="#a39c95"/>
            <path id="Trazado_901777" data-name="Trazado 901777" d="M114.293,361.574v.044L111.472,360l-.176-.3v-.047l2.824,1.624Z" transform="translate(-110.903 -359.524)" fill="#211a1a"/>
          </g>
          <g id="Grupo_1106004" data-name="Grupo 1106004" transform="translate(0 7.365)">
            <path id="Trazado_901778" data-name="Trazado 901778" d="M114.391,363.495v.24l-.173.105-3.038-1.745-.178-.306V361.5l.178-.1.214.121v.047Z" transform="translate(-111.001 -361.398)" fill="#a39c95"/>
            <path id="Trazado_901779" data-name="Trazado 901779" d="M114.293,363.418v.047l-2.821-1.623-.176-.306v-.047l2.824,1.623Z" transform="translate(-110.903 -361.368)" fill="#211a1a"/>
          </g>
          <g id="Grupo_1106005" data-name="Grupo 1106005" transform="translate(0 9.819)">
            <path id="Trazado_901780" data-name="Trazado 901780" d="M114.391,365.338v.244l-.173.1-3.038-1.745-.178-.308v-.285l.178-.105.214.124v.045Z" transform="translate(-111.001 -363.241)" fill="#a39c95"/>
            <path id="Trazado_901781" data-name="Trazado 901781" d="M114.293,365.263v.044l-2.821-1.622-.176-.306v-.045l2.824,1.623Z" transform="translate(-110.903 -363.21)" fill="#211a1a"/>
          </g>
        </g>
        <g id="Grupo_1106012" data-name="Grupo 1106012" transform="translate(4.973 2.872)">
          <g id="Grupo_1106007" data-name="Grupo 1106007">
            <path id="Trazado_901782" data-name="Trazado 901782" d="M118.128,360.119v.242l-.177.1-3.037-1.744-.178-.308v-.286l.178-.1.217.122v.043Z" transform="translate(-114.736 -358.023)" fill="#a39c95"/>
            <path id="Trazado_901783" data-name="Trazado 901783" d="M118.03,360.044v.044l-2.821-1.623-.176-.308v-.043l2.82,1.623Z" transform="translate(-114.638 -357.992)" fill="#211a1a"/>
          </g>
          <g id="Grupo_1106008" data-name="Grupo 1106008" transform="translate(0 2.455)">
            <path id="Trazado_901784" data-name="Trazado 901784" d="M118.128,361.961v.242l-.177.1-3.037-1.744-.178-.306v-.288l.178-.1.217.121v.044Z" transform="translate(-114.736 -359.867)" fill="#a39c95"/>
            <path id="Trazado_901785" data-name="Trazado 901785" d="M118.03,361.889v.043l-2.821-1.619-.176-.31v-.044l2.82,1.622Z" transform="translate(-114.638 -359.837)" fill="#211a1a"/>
          </g>
          <g id="Grupo_1106009" data-name="Grupo 1106009" transform="translate(0 4.909)">
            <path id="Trazado_901786" data-name="Trazado 901786" d="M118.128,363.806v.242l-.177.1-3.037-1.747-.178-.3v-.289l.178-.1.217.122v.044Z" transform="translate(-114.736 -361.71)" fill="#a39c95"/>
            <path id="Trazado_901787" data-name="Trazado 901787" d="M118.03,363.731v.044l-2.821-1.62-.176-.309V361.8l2.82,1.623Z" transform="translate(-114.638 -361.68)" fill="#211a1a"/>
          </g>
          <g id="Grupo_1106010" data-name="Grupo 1106010" transform="translate(0 7.367)">
            <path id="Trazado_901788" data-name="Trazado 901788" d="M118.128,365.65v.241l-.177.105-3.037-1.745-.178-.3v-.288l.178-.1.217.121v.043Z" transform="translate(-114.736 -363.556)" fill="#a39c95"/>
            <path id="Trazado_901789" data-name="Trazado 901789" d="M118.03,365.576v.044L115.209,364l-.176-.308v-.043l2.82,1.622Z" transform="translate(-114.638 -363.526)" fill="#211a1a"/>
          </g>
          <g id="Grupo_1106011" data-name="Grupo 1106011" transform="translate(0 9.819)">
            <path id="Trazado_901790" data-name="Trazado 901790" d="M118.128,367.5v.24l-.177.105-3.037-1.745-.178-.308V365.5l.178-.1.217.122v.047Z" transform="translate(-114.736 -365.398)" fill="#a39c95"/>
            <path id="Trazado_901791" data-name="Trazado 901791" d="M118.03,367.419v.047l-2.821-1.623-.176-.306v-.047l2.82,1.623Z" transform="translate(-114.638 -365.367)" fill="#211a1a"/>
          </g>
        </g>
      </g>
      <path id="Trazado_901792" data-name="Trazado 901792" d="M141.421,322.123l-32.349,18.685,25.577,14.764L167,336.893Z" transform="translate(-109.072 -322.123)" fill="#e6e1dd"/>
      <path id="Trazado_901793" data-name="Trazado 901793" d="M128.283,395.832l32.346-18.673V333.217L128.283,351.9Z" transform="translate(-102.706 -318.447)" fill="#6e6e6e"/>
    </g>
    <g id="Grupo_1106015" data-name="Grupo 1106015" transform="translate(109.072 318.094)">
      <path id="Trazado_901794" data-name="Trazado 901794" d="M109.072,336.954l25.577,14.766v-4.83l-25.577-14.761Z" transform="translate(-109.072 -313.443)" fill="#939393"/>
      <path id="Trazado_901795" data-name="Trazado 901795" d="M141.421,318.094,109.072,336.78l25.577,14.761L167,332.86Z" transform="translate(-109.072 -318.094)" fill="#e2e2e2"/>
      <path id="Trazado_901796" data-name="Trazado 901796" d="M128.283,352.7l32.346-18.675v-4.836l-32.346,18.681Z" transform="translate(-102.706 -314.419)" fill="#939393"/>
    </g>
    <g id="Grupo_1106078" data-name="Grupo 1106078" transform="translate(110.133 336.413)">
      <g id="Grupo_1106016" data-name="Grupo 1106016" transform="translate(56.484 14.352)">
        <path id="Trazado_901797" data-name="Trazado 901797" d="M164.56,343.394l-1.314-.762L152.294,349l2.23,3.858,10.968-6.333V345Z" transform="translate(-152.294 -342.633)" fill="#e6e1dd"/>
        <path id="Trazado_901798" data-name="Trazado 901798" d="M153.536,349.907l-.37-.64,10.735-6.224.37.217.186.32Z" transform="translate(-152.005 -342.497)" fill="#fff"/>
        <path id="Trazado_901799" data-name="Trazado 901799" d="M154.306,350.578l-.337,1.691,10.968-6.333v-1.522Z" transform="translate(-151.739 -342.043)" opacity="0.3"/>
      </g>
      <g id="Grupo_1106032" data-name="Grupo 1106032" transform="translate(38.144 10.009)">
        <g id="Grupo_1106017" data-name="Grupo 1106017">
          <path id="Trazado_901800" data-name="Trazado 901800" d="M138.519,359.447l7.269,4.2V350.917l-7.269-4.192Z" transform="translate(-138.519 -336.934)" fill="#d8d1c7"/>
          <path id="Trazado_901801" data-name="Trazado 901801" d="M155.465,339.371l-16.946,9.79,7.269,4.193,16.945-9.787Z" transform="translate(-138.519 -339.371)" fill="#e6e1dd"/>
          <path id="Trazado_901802" data-name="Trazado 901802" d="M143.979,365.036l16.945-9.783V342.522l-16.945,9.787Z" transform="translate(-136.71 -338.327)" fill="#a39c95"/>
        </g>
        <g id="Grupo_1106024" data-name="Grupo 1106024" transform="translate(9.245 7.376)">
          <g id="Grupo_1106019" data-name="Grupo 1106019" transform="translate(10.613)">
            <path id="Trazado_901803" data-name="Trazado 901803" d="M156.818,345.864v1.174l-.716,1.241-1.016.587-.719-.415v-1.173l.719-1.242,1.016-.586Z" transform="translate(-153.125 -344.732)" fill="#a39c95"/>
            <g id="Grupo_1106018" data-name="Grupo 1106018" transform="translate(1.53 1.108)">
              <path id="Trazado_901804" data-name="Trazado 901804" d="M155.544,346.463l-.441.763-.521-.152.568-.983Z" transform="translate(-154.583 -345.627)" fill="#ccc6bc"/>
              <path id="Trazado_901805" data-name="Trazado 901805" d="M156.026,346.22l-.623.359-.393-.371.805-.465Z" transform="translate(-154.441 -345.743)" fill="#e6ded3"/>
              <path id="Trazado_901806" data-name="Trazado 901806" d="M156.266,346.474l-.441-.254-.21-.477.569.326Z" transform="translate(-154.241 -345.743)" fill="#ccc6bc"/>
              <path id="Trazado_901807" data-name="Trazado 901807" d="M155.1,346.982v.722l-.521.056v-.929Z" transform="translate(-154.583 -345.383)" fill="#b5afa7"/>
              <path id="Trazado_901808" data-name="Trazado 901808" d="M155.1,347.486l.441.256-.39.129-.571-.329Z" transform="translate(-154.583 -345.165)" fill="#918b85"/>
              <path id="Trazado_901809" data-name="Trazado 901809" d="M156.478,347.074l-.441.766-.623.361-.441-.256v-.722l.441-.763.623-.359.441.254Z" transform="translate(-154.453 -345.624)" fill="#96908a"/>
            </g>
            <path id="Trazado_901810" data-name="Trazado 901810" d="M154.153,345.352l-.719,1.242,1.242.716.719-1.242Z" transform="translate(-153.434 -344.765)" fill="#d8d1c7"/>
            <path id="Trazado_901811" data-name="Trazado 901811" d="M154.987,344.911l-1.013.587,1.242.716,1.016-.586Z" transform="translate(-153.255 -344.911)" fill="#e6e1dd"/>
            <path id="Trazado_901812" data-name="Trazado 901812" d="M153.434,347.457v-1.172l1.242.716v1.173Z" transform="translate(-153.434 -344.456)" fill="#b5afa7"/>
          </g>
          <g id="Grupo_1106021" data-name="Grupo 1106021" transform="translate(5.306 3.065)">
            <path id="Trazado_901813" data-name="Trazado 901813" d="M152.832,348.168v1.169l-.716,1.245-1.016.584-.718-.413v-1.172l.718-1.245,1.016-.586Z" transform="translate(-149.138 -347.035)" fill="#a39c95"/>
            <g id="Grupo_1106020" data-name="Grupo 1106020" transform="translate(1.531 1.106)">
              <path id="Trazado_901814" data-name="Trazado 901814" d="M151.558,348.764l-.442.764-.518-.153.568-.983Z" transform="translate(-150.598 -347.928)" fill="#ccc6bc"/>
              <path id="Trazado_901815" data-name="Trazado 901815" d="M152.04,348.519l-.623.361-.391-.371.8-.465Z" transform="translate(-150.457 -348.044)" fill="#e6ded3"/>
              <path id="Trazado_901816" data-name="Trazado 901816" d="M152.283,348.775l-.443-.256-.212-.475.57.326Z" transform="translate(-150.257 -348.044)" fill="#ccc6bc"/>
              <path id="Trazado_901817" data-name="Trazado 901817" d="M151.116,349.284V350l-.518.056v-.929Z" transform="translate(-150.598 -347.684)" fill="#b5afa7"/>
              <path id="Trazado_901818" data-name="Trazado 901818" d="M151.116,349.787l.442.256-.391.129-.568-.329Z" transform="translate(-150.598 -347.466)" fill="#918b85"/>
              <path id="Trazado_901819" data-name="Trazado 901819" d="M152.493,349.376l-.438.766-.626.361-.442-.256v-.72l.442-.764.623-.361.443.256Z" transform="translate(-150.469 -347.926)" fill="#96908a"/>
            </g>
            <rect id="Rectángulo_403033" data-name="Rectángulo 403033" width="1.437" height="1.435" transform="translate(0.004 1.822) rotate(-59.974)" fill="#d8d1c7"/>
            <path id="Trazado_901820" data-name="Trazado 901820" d="M151,347.213l-1.013.585,1.242.718,1.016-.586Z" transform="translate(-149.269 -347.213)" fill="#e6e1dd"/>
            <path id="Trazado_901821" data-name="Trazado 901821" d="M149.448,349.758v-1.172l1.244.719v1.172Z" transform="translate(-149.448 -346.758)" fill="#b5afa7"/>
          </g>
          <g id="Grupo_1106023" data-name="Grupo 1106023" transform="translate(0 6.128)">
            <path id="Trazado_901822" data-name="Trazado 901822" d="M148.848,350.466v1.174l-.719,1.242-1.016.586-.718-.413v-1.174l.718-1.243,1.016-.586Z" transform="translate(-145.154 -349.336)" fill="#a39c95"/>
            <g id="Grupo_1106022" data-name="Grupo 1106022" transform="translate(1.528 1.106)">
              <path id="Trazado_901823" data-name="Trazado 901823" d="M147.571,351.066l-.441.764-.519-.152.57-.985Z" transform="translate(-146.611 -350.23)" fill="#ccc6bc"/>
              <path id="Trazado_901824" data-name="Trazado 901824" d="M148.055,350.822l-.626.359-.39-.373.807-.463Z" transform="translate(-146.469 -350.345)" fill="#e6ded3"/>
              <path id="Trazado_901825" data-name="Trazado 901825" d="M148.3,351.076l-.442-.254-.209-.477.567.327Z" transform="translate(-146.268 -350.345)" fill="#ccc6bc"/>
              <path id="Trazado_901826" data-name="Trazado 901826" d="M147.13,351.585v.72l-.519.057v-.929Z" transform="translate(-146.611 -349.984)" fill="#b5afa7"/>
              <path id="Trazado_901827" data-name="Trazado 901827" d="M147.13,352.088l.441.256-.39.13-.57-.329Z" transform="translate(-146.611 -349.767)" fill="#918b85"/>
              <path id="Trazado_901828" data-name="Trazado 901828" d="M148.509,351.678l-.442.766-.626.359-.441-.256v-.72l.441-.764.626-.359.442.254Z" transform="translate(-146.482 -350.226)" fill="#96908a"/>
            </g>
            <rect id="Rectángulo_403034" data-name="Rectángulo 403034" width="1.434" height="1.434" transform="matrix(0.5, -0.866, 0.866, 0.5, 0.017, 1.812)" fill="#d8d1c7"/>
            <path id="Trazado_901829" data-name="Trazado 901829" d="M147.018,349.514,146,350.1l1.242.716,1.016-.586Z" transform="translate(-145.284 -349.514)" fill="#e6e1dd"/>
            <path id="Trazado_901830" data-name="Trazado 901830" d="M145.463,352.061v-1.174l1.242.718v1.174Z" transform="translate(-145.463 -349.059)" fill="#b5afa7"/>
          </g>
        </g>
        <g id="Grupo_1106031" data-name="Grupo 1106031" transform="translate(9.232 14.183)">
          <g id="Grupo_1106026" data-name="Grupo 1106026" transform="translate(10.626)">
            <path id="Trazado_901831" data-name="Trazado 901831" d="M156.818,350.978v1.172l-.716,1.244-1.016.586-.719-.414v-1.172l.719-1.243,1.016-.584Z" transform="translate(-153.125 -349.845)" fill="#a39c95"/>
            <g id="Grupo_1106025" data-name="Grupo 1106025" transform="translate(1.53 1.108)">
              <path id="Trazado_901832" data-name="Trazado 901832" d="M155.544,351.577l-.441.765-.521-.153.568-.985Z" transform="translate(-154.583 -350.741)" fill="#ccc6bc"/>
              <path id="Trazado_901833" data-name="Trazado 901833" d="M156.026,351.331l-.623.361-.393-.373.805-.463Z" transform="translate(-154.441 -350.856)" fill="#e6ded3"/>
              <path id="Trazado_901834" data-name="Trazado 901834" d="M156.266,351.586l-.441-.254-.21-.475.569.329Z" transform="translate(-154.241 -350.856)" fill="#ccc6bc"/>
              <path id="Trazado_901835" data-name="Trazado 901835" d="M155.1,352.1v.722l-.521.055v-.929Z" transform="translate(-154.583 -350.495)" fill="#b5afa7"/>
              <path id="Trazado_901836" data-name="Trazado 901836" d="M155.1,352.6l.441.254-.39.128-.571-.328Z" transform="translate(-154.583 -350.278)" fill="#918b85"/>
              <path id="Trazado_901837" data-name="Trazado 901837" d="M156.478,352.189l-.441.764-.623.362-.441-.254v-.722l.441-.766.623-.361.441.254Z" transform="translate(-154.453 -350.738)" fill="#96908a"/>
            </g>
            <rect id="Rectángulo_403035" data-name="Rectángulo 403035" width="1.437" height="1.434" transform="matrix(0.5, -0.866, 0.866, 0.5, 0.022, 1.831)" fill="#d8d1c7"/>
            <path id="Trazado_901838" data-name="Trazado 901838" d="M154.987,350.024l-1.013.587,1.242.718,1.016-.584Z" transform="translate(-153.255 -350.024)" fill="#e6e1dd"/>
            <path id="Trazado_901839" data-name="Trazado 901839" d="M153.434,352.571V351.4l1.242.718v1.172Z" transform="translate(-153.434 -349.568)" fill="#b5afa7"/>
          </g>
          <g id="Grupo_1106028" data-name="Grupo 1106028" transform="translate(5.319 3.065)">
            <path id="Trazado_901840" data-name="Trazado 901840" d="M152.832,353.279v1.173l-.716,1.242-1.016.586-.718-.414v-1.173l.718-1.242,1.016-.586Z" transform="translate(-149.138 -352.147)" fill="#a39c95"/>
            <g id="Grupo_1106027" data-name="Grupo 1106027" transform="translate(1.531 1.105)">
              <path id="Trazado_901841" data-name="Trazado 901841" d="M151.558,353.877l-.442.764-.518-.15.568-.984Z" transform="translate(-150.598 -353.04)" fill="#ccc6bc"/>
              <path id="Trazado_901842" data-name="Trazado 901842" d="M152.04,353.634l-.623.359-.391-.37.8-.467Z" transform="translate(-150.457 -353.156)" fill="#e6ded3"/>
              <path id="Trazado_901843" data-name="Trazado 901843" d="M152.283,353.887l-.443-.253-.212-.478.57.329Z" transform="translate(-150.257 -353.156)" fill="#ccc6bc"/>
              <path id="Trazado_901844" data-name="Trazado 901844" d="M151.116,354.4v.722l-.518.056v-.928Z" transform="translate(-150.598 -352.795)" fill="#b5afa7"/>
              <path id="Trazado_901845" data-name="Trazado 901845" d="M151.116,354.9l.442.256-.391.129-.568-.329Z" transform="translate(-150.598 -352.578)" fill="#918b85"/>
              <path id="Trazado_901846" data-name="Trazado 901846" d="M152.493,354.49l-.438.764-.626.362-.442-.256v-.722l.442-.764.623-.359.443.253Z" transform="translate(-150.469 -353.037)" fill="#96908a"/>
            </g>
            <rect id="Rectángulo_403036" data-name="Rectángulo 403036" width="1.435" height="1.435" transform="translate(0.005 1.823) rotate(-59.974)" fill="#d8d1c7"/>
            <path id="Trazado_901847" data-name="Trazado 901847" d="M151,352.326l-1.013.587,1.242.716,1.016-.586Z" transform="translate(-149.269 -352.326)" fill="#e6e1dd"/>
            <path id="Trazado_901848" data-name="Trazado 901848" d="M149.448,354.873V353.7l1.244.716v1.173Z" transform="translate(-149.448 -351.871)" fill="#b5afa7"/>
          </g>
          <g id="Grupo_1106030" data-name="Grupo 1106030" transform="translate(0 6.128)">
            <path id="Trazado_901849" data-name="Trazado 901849" d="M148.848,355.58v1.172l-.719,1.242-1.016.586-.718-.413V357l.718-1.245,1.016-.585Z" transform="translate(-145.141 -354.448)" fill="#a39c95"/>
            <g id="Grupo_1106029" data-name="Grupo 1106029" transform="translate(1.542 1.106)">
              <path id="Trazado_901850" data-name="Trazado 901850" d="M147.571,356.178l-.441.766-.519-.153.57-.984Z" transform="translate(-146.611 -355.342)" fill="#ccc6bc"/>
              <path id="Trazado_901851" data-name="Trazado 901851" d="M148.055,355.933l-.626.361-.39-.371.807-.465Z" transform="translate(-146.469 -355.458)" fill="#e6ded3"/>
              <path id="Trazado_901852" data-name="Trazado 901852" d="M148.3,356.189l-.442-.256-.209-.475.567.329Z" transform="translate(-146.268 -355.458)" fill="#ccc6bc"/>
              <path id="Trazado_901853" data-name="Trazado 901853" d="M147.13,356.7v.72l-.519.055v-.928Z" transform="translate(-146.611 -355.097)" fill="#b5afa7"/>
              <path id="Trazado_901854" data-name="Trazado 901854" d="M147.13,357.2l.441.256-.39.128-.57-.329Z" transform="translate(-146.611 -354.88)" fill="#918b85"/>
              <path id="Trazado_901855" data-name="Trazado 901855" d="M148.509,356.792l-.442.763-.626.362-.441-.256v-.72l.441-.766.626-.361.442.256Z" transform="translate(-146.482 -355.34)" fill="#96908a"/>
            </g>
            <rect id="Rectángulo_403037" data-name="Rectángulo 403037" width="1.437" height="1.435" transform="translate(0 1.828) rotate(-60.045)" fill="#d8d1c7"/>
            <path id="Trazado_901856" data-name="Trazado 901856" d="M147.018,354.627l-1.016.585,1.242.718,1.016-.585Z" transform="translate(-145.271 -354.627)" fill="#e6e1dd"/>
            <path id="Trazado_901857" data-name="Trazado 901857" d="M145.463,357.174V356l1.242.718v1.172Z" transform="translate(-145.45 -354.172)" fill="#b5afa7"/>
          </g>
        </g>
      </g>
      <g id="Grupo_1106061" data-name="Grupo 1106061" transform="translate(40.433)">
        <g id="Grupo_1106033" data-name="Grupo 1106033" transform="translate(0 10.742)">
          <path id="Trazado_901858" data-name="Trazado 901858" d="M140.238,348.853l3.9,2.255,15.5-9.5-19.4,6.7Z" transform="translate(-140.238 -339.361)" fill="#d8d1c7"/>
          <path id="Trazado_901859" data-name="Trazado 901859" d="M144.142,351.125l15.5-8.952-3.9-2.251-15.495,8.952Z" transform="translate(-140.238 -339.921)" fill="#e6e1dd"/>
          <path id="Trazado_901860" data-name="Trazado 901860" d="M143.17,351.109l15.5-8.952v-.545l-15.5,8.952Z" transform="translate(-139.266 -339.361)" fill="#948e87"/>
        </g>
        <g id="Grupo_1106039" data-name="Grupo 1106039" transform="translate(12.909)">
          <g id="Grupo_1106034" data-name="Grupo 1106034" transform="translate(0 10.574)">
            <path id="Trazado_901861" data-name="Trazado 901861" d="M154.7,340.6l-1.394-.805h-1.976l-1.394.805v1.14l1.394.805H153.3l1.394-.805Z" transform="translate(-149.934 -339.795)" fill="#e6e1dd"/>
            <rect id="Rectángulo_403038" data-name="Rectángulo 403038" width="1.974" height="1.007" transform="translate(1.394 2.751)" fill="#b5afa7"/>
            <path id="Trazado_901862" data-name="Trazado 901862" d="M153.859,342.262l-1.394.806v-1.007l1.394-.805Z" transform="translate(-149.095 -339.311)" fill="#a39c95"/>
            <path id="Trazado_901863" data-name="Trazado 901863" d="M149.934,342.262l1.394.806v-1.007l-1.394-.805Z" transform="translate(-149.934 -339.311)" fill="#d8d1c7"/>
          </g>
          <g id="Grupo_1106035" data-name="Grupo 1106035" transform="translate(0.45 8.289)">
            <path id="Trazado_901864" data-name="Trazado 901864" d="M154.138,338.737l-1.13-.658h-1.6l-1.132.658v.924l1.132.652h1.6l1.13-.652Z" transform="translate(-150.272 -338.079)" fill="#e6e1dd"/>
            <rect id="Rectángulo_403039" data-name="Rectángulo 403039" width="1.604" height="2.42" transform="translate(1.132 2.234)" fill="#b5afa7"/>
            <path id="Trazado_901865" data-name="Trazado 901865" d="M153.457,341.689l-1.13.651v-2.421l1.13-.652Z" transform="translate(-149.591 -337.685)" fill="#a39c95"/>
            <path id="Trazado_901866" data-name="Trazado 901866" d="M150.272,341.689l1.132.651v-2.421l-1.132-.652Z" transform="translate(-150.272 -337.685)" fill="#d8d1c7"/>
          </g>
          <g id="Grupo_1106036" data-name="Grupo 1106036" transform="translate(0 3.338)">
            <path id="Trazado_901867" data-name="Trazado 901867" d="M154.7,335.165l-1.394-.805h-1.976l-1.394.805v1.14l1.394.805H153.3l1.394-.805Z" transform="translate(-149.934 -334.36)" fill="#836e69"/>
            <rect id="Rectángulo_403040" data-name="Rectángulo 403040" width="1.974" height="4.9" transform="translate(1.394 2.751)" fill="#544540"/>
            <path id="Trazado_901868" data-name="Trazado 901868" d="M153.859,340.721l-1.394.8v-4.9l1.394-.805Z" transform="translate(-149.095 -333.876)" fill="#403531"/>
            <path id="Trazado_901869" data-name="Trazado 901869" d="M149.934,340.721l1.394.8v-4.9l-1.394-.805Z" transform="translate(-149.934 -333.876)" fill="#685750"/>
          </g>
          <g id="Grupo_1106037" data-name="Grupo 1106037" transform="translate(0.45 1.054)">
            <path id="Trazado_901870" data-name="Trazado 901870" d="M154.138,333.3l-1.13-.654h-1.6l-1.132.654v.924l1.132.654h1.6l1.13-.654Z" transform="translate(-150.272 -332.645)" fill="#e6e1dd"/>
            <rect id="Rectángulo_403041" data-name="Rectángulo 403041" width="1.604" height="2.423" transform="translate(1.132 2.231)" fill="#b5afa7"/>
            <path id="Trazado_901871" data-name="Trazado 901871" d="M153.457,336.252l-1.13.656v-2.424l1.13-.654Z" transform="translate(-149.591 -332.252)" fill="#a39c95"/>
            <path id="Trazado_901872" data-name="Trazado 901872" d="M150.272,336.252l1.132.656v-2.424l-1.132-.654Z" transform="translate(-150.272 -332.252)" fill="#d8d1c7"/>
          </g>
          <g id="Grupo_1106038" data-name="Grupo 1106038">
            <path id="Trazado_901873" data-name="Trazado 901873" d="M154.7,332.657l-1.394-.8h-1.976l-1.394.8v1.14l1.394.805H153.3l1.394-.805Z" transform="translate(-149.934 -331.853)" fill="#e6e1dd"/>
            <rect id="Rectángulo_403042" data-name="Rectángulo 403042" width="1.974" height="1.008" transform="translate(1.394 2.749)" fill="#b5afa7"/>
            <path id="Trazado_901874" data-name="Trazado 901874" d="M153.859,334.32l-1.394.807v-1.008l1.394-.805Z" transform="translate(-149.095 -331.369)" fill="#a39c95"/>
            <path id="Trazado_901875" data-name="Trazado 901875" d="M149.934,334.32l1.394.807v-1.008l-1.394-.805Z" transform="translate(-149.934 -331.369)" fill="#d8d1c7"/>
          </g>
        </g>
        <g id="Grupo_1106045" data-name="Grupo 1106045" transform="translate(9.096 2.201)">
          <g id="Grupo_1106040" data-name="Grupo 1106040" transform="translate(0 10.575)">
            <path id="Trazado_901876" data-name="Trazado 901876" d="M151.836,342.256l-1.4-.807h-1.972l-1.4.807v1.138l1.4.807h1.972l1.4-.807Z" transform="translate(-147.07 -341.449)" fill="#e6e1dd"/>
            <rect id="Rectángulo_403043" data-name="Rectángulo 403043" width="1.972" height="1.009" transform="translate(1.397 2.752)" fill="#b5afa7"/>
            <path id="Trazado_901877" data-name="Trazado 901877" d="M151,343.918l-1.4.807v-1.008l1.4-.807Z" transform="translate(-146.232 -340.965)" fill="#a39c95"/>
            <path id="Trazado_901878" data-name="Trazado 901878" d="M147.07,343.918l1.4.807v-1.008l-1.4-.807Z" transform="translate(-147.07 -340.965)" fill="#d8d1c7"/>
          </g>
          <g id="Grupo_1106041" data-name="Grupo 1106041" transform="translate(0.447 8.291)">
            <path id="Trazado_901879" data-name="Trazado 901879" d="M151.274,340.389l-1.132-.656h-1.6l-1.133.656v.924l1.133.652h1.6l1.132-.652Z" transform="translate(-147.406 -339.733)" fill="#e6e1dd"/>
            <rect id="Rectángulo_403044" data-name="Rectángulo 403044" width="1.603" height="2.424" transform="translate(1.133 2.233)" fill="#b5afa7"/>
            <path id="Trazado_901880" data-name="Trazado 901880" d="M150.593,343.343l-1.132.654v-2.424l1.132-.652Z" transform="translate(-146.725 -339.34)" fill="#a39c95"/>
            <path id="Trazado_901881" data-name="Trazado 901881" d="M147.406,343.343l1.133.654v-2.424l-1.133-.652Z" transform="translate(-147.406 -339.34)" fill="#d8d1c7"/>
          </g>
          <g id="Grupo_1106042" data-name="Grupo 1106042" transform="translate(0 3.339)">
            <path id="Trazado_901882" data-name="Trazado 901882" d="M151.836,336.819l-1.4-.805h-1.972l-1.4.805v1.14l1.4.805h1.972l1.4-.805Z" transform="translate(-147.07 -336.014)" fill="#836e69"/>
            <rect id="Rectángulo_403045" data-name="Rectángulo 403045" width="1.972" height="4.902" transform="translate(1.397 2.751)" fill="#544540"/>
            <path id="Trazado_901883" data-name="Trazado 901883" d="M151,342.377l-1.4.805v-4.9l1.4-.805Z" transform="translate(-146.232 -335.53)" fill="#403531"/>
            <path id="Trazado_901884" data-name="Trazado 901884" d="M147.07,342.377l1.4.805v-4.9l-1.4-.805Z" transform="translate(-147.07 -335.53)" fill="#685750"/>
          </g>
          <g id="Grupo_1106043" data-name="Grupo 1106043" transform="translate(0.447 1.053)">
            <path id="Trazado_901885" data-name="Trazado 901885" d="M151.274,334.953l-1.132-.656h-1.6l-1.133.656v.924l1.133.656h1.6l1.132-.656Z" transform="translate(-147.406 -334.297)" fill="#e6e1dd"/>
            <rect id="Rectángulo_403046" data-name="Rectángulo 403046" width="1.603" height="2.419" transform="translate(1.133 2.237)" fill="#b5afa7"/>
            <path id="Trazado_901886" data-name="Trazado 901886" d="M150.593,337.906l-1.132.654V336.14l1.132-.656Z" transform="translate(-146.725 -333.904)" fill="#a39c95"/>
            <path id="Trazado_901887" data-name="Trazado 901887" d="M147.406,337.906l1.133.654V336.14l-1.133-.656Z" transform="translate(-147.406 -333.904)" fill="#d8d1c7"/>
          </g>
          <g id="Grupo_1106044" data-name="Grupo 1106044">
            <path id="Trazado_901888" data-name="Trazado 901888" d="M151.836,334.311l-1.4-.805h-1.972l-1.4.805v1.14l1.4.805h1.972l1.4-.805Z" transform="translate(-147.07 -333.506)" fill="#e6e1dd"/>
            <rect id="Rectángulo_403047" data-name="Rectángulo 403047" width="1.972" height="1.007" transform="translate(1.397 2.751)" fill="#b5afa7"/>
            <path id="Trazado_901889" data-name="Trazado 901889" d="M151,335.973l-1.4.806v-1.007l1.4-.805Z" transform="translate(-146.232 -333.022)" fill="#a39c95"/>
            <path id="Trazado_901890" data-name="Trazado 901890" d="M147.07,335.973l1.4.806v-1.007l-1.4-.805Z" transform="translate(-147.07 -333.022)" fill="#d8d1c7"/>
          </g>
        </g>
        <g id="Grupo_1106051" data-name="Grupo 1106051" transform="translate(5.283 4.403)">
          <g id="Grupo_1106046" data-name="Grupo 1106046" transform="translate(0 10.575)">
            <path id="Trazado_901891" data-name="Trazado 901891" d="M148.968,343.908l-1.4-.806H145.6l-1.394.806v1.141l1.394.806h1.972l1.4-.806Z" transform="translate(-144.206 -343.103)" fill="#e6e1dd"/>
            <rect id="Rectángulo_403048" data-name="Rectángulo 403048" width="1.972" height="1.008" transform="translate(1.394 2.752)" fill="#b5afa7"/>
            <path id="Trazado_901892" data-name="Trazado 901892" d="M148.131,345.573l-1.4.806V345.37l1.4-.806Z" transform="translate(-143.368 -342.618)" fill="#a39c95"/>
            <path id="Trazado_901893" data-name="Trazado 901893" d="M144.206,345.573l1.394.806V345.37l-1.394-.806Z" transform="translate(-144.206 -342.618)" fill="#d8d1c7"/>
          </g>
          <g id="Grupo_1106047" data-name="Grupo 1106047" transform="translate(0.445 8.292)">
            <path id="Trazado_901894" data-name="Trazado 901894" d="M148.41,342.042l-1.132-.654h-1.6l-1.136.654v.924l1.136.655h1.6l1.132-.655Z" transform="translate(-144.54 -341.388)" fill="#e6e1dd"/>
            <rect id="Rectángulo_403049" data-name="Rectángulo 403049" width="1.603" height="2.422" transform="translate(1.136 2.233)" fill="#b5afa7"/>
            <path id="Trazado_901895" data-name="Trazado 901895" d="M147.729,345l-1.132.654v-2.423l1.132-.655Z" transform="translate(-143.858 -340.995)" fill="#a39c95"/>
            <path id="Trazado_901896" data-name="Trazado 901896" d="M144.54,345l1.136.654v-2.423l-1.136-.655Z" transform="translate(-144.54 -340.995)" fill="#d8d1c7"/>
          </g>
          <g id="Grupo_1106048" data-name="Grupo 1106048" transform="translate(0 3.339)">
            <path id="Trazado_901897" data-name="Trazado 901897" d="M148.968,338.472l-1.4-.8H145.6l-1.394.8v1.141l1.394.8h1.972l1.4-.8Z" transform="translate(-144.206 -337.668)" fill="#836e69"/>
            <rect id="Rectángulo_403050" data-name="Rectángulo 403050" width="1.972" height="4.902" transform="translate(1.394 2.749)" fill="#544540"/>
            <path id="Trazado_901898" data-name="Trazado 901898" d="M148.131,344.03l-1.4.805v-4.9l1.4-.8Z" transform="translate(-143.368 -337.184)" fill="#403531"/>
            <path id="Trazado_901899" data-name="Trazado 901899" d="M144.206,344.03l1.394.805v-4.9l-1.394-.8Z" transform="translate(-144.206 -337.184)" fill="#685750"/>
          </g>
          <g id="Grupo_1106049" data-name="Grupo 1106049" transform="translate(0.445 1.053)">
            <path id="Trazado_901900" data-name="Trazado 901900" d="M148.41,336.606l-1.132-.655h-1.6l-1.136.655v.925l1.136.656h1.6l1.132-.656Z" transform="translate(-144.54 -335.951)" fill="#e6e1dd"/>
            <rect id="Rectángulo_403051" data-name="Rectángulo 403051" width="1.603" height="2.42" transform="translate(1.136 2.237)" fill="#b5afa7"/>
            <path id="Trazado_901901" data-name="Trazado 901901" d="M147.729,339.562l-1.132.652v-2.42l1.132-.656Z" transform="translate(-143.858 -335.558)" fill="#a39c95"/>
            <path id="Trazado_901902" data-name="Trazado 901902" d="M144.54,339.562l1.136.652v-2.42l-1.136-.656Z" transform="translate(-144.54 -335.558)" fill="#d8d1c7"/>
          </g>
          <g id="Grupo_1106050" data-name="Grupo 1106050">
            <path id="Trazado_901903" data-name="Trazado 901903" d="M148.968,335.965l-1.4-.806H145.6l-1.394.806v1.14l1.394.807h1.972l1.4-.807Z" transform="translate(-144.206 -335.16)" fill="#e6e1dd"/>
            <rect id="Rectángulo_403052" data-name="Rectángulo 403052" width="1.972" height="1.005" transform="translate(1.394 2.752)" fill="#b5afa7"/>
            <path id="Trazado_901904" data-name="Trazado 901904" d="M148.131,337.629l-1.4.8v-1l1.4-.807Z" transform="translate(-143.368 -334.676)" fill="#a39c95"/>
            <path id="Trazado_901905" data-name="Trazado 901905" d="M144.206,337.629l1.394.8v-1l-1.394-.807Z" transform="translate(-144.206 -334.676)" fill="#d8d1c7"/>
          </g>
        </g>
        <g id="Grupo_1106060" data-name="Grupo 1106060" transform="translate(1.469 3.576)">
          <g id="Grupo_1106052" data-name="Grupo 1106052" transform="translate(0 13.605)">
            <path id="Trazado_901906" data-name="Trazado 901906" d="M146.1,345.562l-1.4-.8h-1.973l-1.394.8v1.14l1.394.808h1.973l1.4-.808Z" transform="translate(-141.341 -344.758)" fill="#e6e1dd"/>
            <rect id="Rectángulo_403053" data-name="Rectángulo 403053" width="1.973" height="1.005" transform="translate(1.394 2.752)" fill="#b5afa7"/>
            <path id="Trazado_901907" data-name="Trazado 901907" d="M145.267,347.227l-1.4.8v-1.005l1.4-.808Z" transform="translate(-140.503 -344.274)" fill="#a39c95"/>
            <path id="Trazado_901908" data-name="Trazado 901908" d="M141.341,347.227l1.394.8v-1.005l-1.394-.808Z" transform="translate(-141.341 -344.274)" fill="#d8d1c7"/>
          </g>
          <g id="Grupo_1106053" data-name="Grupo 1106053" transform="translate(0.447 11.321)">
            <path id="Trazado_901909" data-name="Trazado 901909" d="M145.546,343.7l-1.134-.654h-1.6l-1.132.654v.925l1.132.656h1.6l1.134-.656Z" transform="translate(-141.677 -343.042)" fill="#e6e1dd"/>
            <rect id="Rectángulo_403054" data-name="Rectángulo 403054" width="1.603" height="2.42" transform="translate(1.132 2.235)" fill="#b5afa7"/>
            <path id="Trazado_901910" data-name="Trazado 901910" d="M144.865,346.651l-1.134.654v-2.42l1.134-.656Z" transform="translate(-140.996 -342.649)" fill="#a39c95"/>
            <path id="Trazado_901911" data-name="Trazado 901911" d="M141.677,346.651l1.132.654v-2.42l-1.132-.656Z" transform="translate(-141.677 -342.649)" fill="#d8d1c7"/>
          </g>
          <g id="Grupo_1106054" data-name="Grupo 1106054" transform="translate(0 6.367)">
            <path id="Trazado_901912" data-name="Trazado 901912" d="M146.1,340.13l-1.4-.809h-1.973l-1.394.809v1.136l1.394.807h1.973l1.4-.807Z" transform="translate(-141.341 -339.321)" fill="#836e69"/>
            <rect id="Rectángulo_403055" data-name="Rectángulo 403055" width="1.973" height="4.902" transform="translate(1.394 2.752)" fill="#544540"/>
            <path id="Trazado_901913" data-name="Trazado 901913" d="M145.267,345.684l-1.4.805v-4.9l1.4-.807Z" transform="translate(-140.503 -338.837)" fill="#403531"/>
            <path id="Trazado_901914" data-name="Trazado 901914" d="M141.341,345.684l1.394.805v-4.9l-1.394-.807Z" transform="translate(-141.341 -338.837)" fill="#685750"/>
          </g>
          <g id="Grupo_1106055" data-name="Grupo 1106055" transform="translate(0.447 4.083)">
            <path id="Trazado_901915" data-name="Trazado 901915" d="M145.546,338.261l-1.134-.655h-1.6l-1.132.655v.927l1.132.654h1.6l1.134-.654Z" transform="translate(-141.677 -337.606)" fill="#e6e1dd"/>
            <rect id="Rectángulo_403056" data-name="Rectángulo 403056" width="1.603" height="2.418" transform="translate(1.132 2.235)" fill="#b5afa7"/>
            <path id="Trazado_901916" data-name="Trazado 901916" d="M144.865,341.212l-1.134.655v-2.419l1.134-.654Z" transform="translate(-140.996 -337.212)" fill="#a39c95"/>
            <path id="Trazado_901917" data-name="Trazado 901917" d="M141.677,341.212l1.132.655v-2.419l-1.132-.654Z" transform="translate(-141.677 -337.212)" fill="#d8d1c7"/>
          </g>
          <g id="Grupo_1106056" data-name="Grupo 1106056" transform="translate(0 3.028)">
            <path id="Trazado_901918" data-name="Trazado 901918" d="M146.1,337.622l-1.4-.809h-1.973l-1.394.809v1.137l1.394.807h1.973l1.4-.807Z" transform="translate(-141.341 -336.813)" fill="#e6e1dd"/>
            <rect id="Rectángulo_403057" data-name="Rectángulo 403057" width="1.973" height="1.007" transform="translate(1.394 2.753)" fill="#b5afa7"/>
            <path id="Trazado_901919" data-name="Trazado 901919" d="M145.267,339.282l-1.4.807v-1.007l1.4-.807Z" transform="translate(-140.503 -336.329)" fill="#a39c95"/>
            <path id="Trazado_901920" data-name="Trazado 901920" d="M141.341,339.282l1.394.807v-1.007l-1.394-.807Z" transform="translate(-141.341 -336.329)" fill="#d8d1c7"/>
          </g>
          <g id="Grupo_1106059" data-name="Grupo 1106059" transform="translate(0.687)">
            <g id="Grupo_1106057" data-name="Grupo 1106057" transform="translate(1.279 3.175)">
              <path id="Trazado_901921" data-name="Trazado 901921" d="M142.818,337.179v.917l.241.14.087-.968Z" transform="translate(-142.818 -336.84)" fill="#362c29"/>
              <path id="Trazado_901922" data-name="Trazado 901922" d="M143,337.317l0,.919h.343l.242-1.057Z" transform="translate(-142.758 -336.84)" fill="#211a1a"/>
              <path id="Trazado_901923" data-name="Trazado 901923" d="M143.26,337.317l0,.919.242-.14v-.917Z" transform="translate(-142.673 -336.84)" fill="#0a0808"/>
              <path id="Trazado_901924" data-name="Trazado 901924" d="M143.647,337.065l0,.2-.24.138h-.343l-.244-.138v-.2l.244-.14h.343Z" transform="translate(-142.818 -336.924)" fill="#574943"/>
            </g>
            <g id="Grupo_1106058" data-name="Grupo 1106058">
              <path id="Trazado_901925" data-name="Trazado 901925" d="M144.356,335.086l-.947-.547-1.019.586.972.957Z" transform="translate(-141.68 -334.539)" fill="#836e69"/>
              <path id="Trazado_901926" data-name="Trazado 901926" d="M143.524,335.533l-.956-.554-.711,1.233.959,1.7Z" transform="translate(-141.857 -334.393)" fill="#685750"/>
              <path id="Trazado_901927" data-name="Trazado 901927" d="M142.817,336.45l-.96-.545.011,1.157.948.547Z" transform="translate(-141.857 -334.086)" fill="#544540"/>
              <path id="Trazado_901928" data-name="Trazado 901928" d="M143.287,338.334l-.71-.409v-1.16l.707-1.224,1.009-.592.711.41L145,336.533l-.706,1.226Z" transform="translate(-141.618 -334.403)" fill="#403531"/>
              <path id="Trazado_901929" data-name="Trazado 901929" d="M144.723,335.409l-.234-.136-1.508,2.613.234.137.885-.509.622-1.077Z" transform="translate(-141.485 -334.296)" fill="#836e69"/>
              <path id="Trazado_901930" data-name="Trazado 901930" d="M144.585,335.329l-.389-.224-.885.519-.623,1.076v1.018l.389.224.885-.509.62-1.076Z" transform="translate(-141.582 -334.351)" fill="#fff"/>
              <path id="Trazado_901931" data-name="Trazado 901931" d="M143.489,336.489l-.126.015.324-1.121.126-.013Z" transform="translate(-141.358 -334.264)" fill="#362c29"/>
              <path id="Trazado_901932" data-name="Trazado 901932" d="M143.349,336.693l-.174-.1V336.3l.174-.3.249-.146.178.1v.288l-.177.3Z" transform="translate(-141.42 -334.103)" fill="#a39c95"/>
            </g>
          </g>
        </g>
      </g>
      <g id="Grupo_1106064" data-name="Grupo 1106064" transform="translate(0 29.71)">
        <g id="Grupo_1106062" data-name="Grupo 1106062" transform="translate(0 18.766)">
          <path id="Trazado_901933" data-name="Trazado 901933" d="M122.42,373.356v2.519l-1.542,2.675-2.182,1.258-1.546-.889V376.4l1.544-2.673,2.183-1.258Z" transform="translate(-107.456 -366.87)" fill="#a39c95"/>
          <rect id="Rectángulo_403058" data-name="Rectángulo 403058" width="3.087" height="11.192" transform="matrix(0.501, -0.865, 0.865, 0.501, 0.005, 3.907)" fill="#d8d1c7"/>
          <path id="Trazado_901934" data-name="Trazado 901934" d="M113.21,368.263l-2.18,1.26,9.691,5.6,2.183-1.258Z" transform="translate(-109.484 -368.263)" fill="#e6e1dd"/>
          <path id="Trazado_901935" data-name="Trazado 901935" d="M109.869,373.735v-2.518l9.694,5.6v2.52Z" transform="translate(-109.869 -367.284)" fill="#b5afa7"/>
        </g>
        <g id="Grupo_1106063" data-name="Grupo 1106063" transform="translate(10.856)">
          <path id="Trazado_901936" data-name="Trazado 901936" d="M130.675,379.683l-10.4-6.031-1.317.76-.932,1.614v1.519l10.425,6,3.342-1.929Z" transform="translate(-118.023 -347.711)" fill="#e6e1dd"/>
          <path id="Trazado_901937" data-name="Trazado 901937" d="M147.006,354.926l-1.318-.758L126.13,365.481l-1.113,1.931v20.657h4.455V368.7l18.464-10.64v-1.522Z" transform="translate(-115.705 -354.168)" fill="#e6e1dd"/>
          <path id="Trazado_901938" data-name="Trazado 901938" d="M127.318,386.1l-8.735-5.041.186-.322.371-.213,8.177,4.718.929-.537-.031-16.859,1.213-2.1,19.337-11.164.371.213.184.321-19.349,11.172-1.015,1.759.031,17.088Z" transform="translate(-117.837 -354.032)" fill="#fff"/>
          <path id="Trazado_901939" data-name="Trazado 901939" d="M131.422,366.821l-1.114,1.93.029,16.975-2.833,1.636-9.481-5.471v1.519l10.425,6,3.342-1.929V368.11l18.464-10.64v-1.522Z" transform="translate(-118.023 -353.578)" opacity="0.3"/>
        </g>
      </g>
      <g id="Grupo_1106077" data-name="Grupo 1106077" transform="translate(18.805 3.194)">
        <g id="Grupo_1106066" data-name="Grupo 1106066" transform="translate(0 19.539)">
          <path id="Trazado_901940" data-name="Trazado 901940" d="M123.993,358.613v1.53l.936,1.62,1.326.766.935-.542v-1.53l-.935-1.62-1.326-.766Z" transform="translate(-123.993 -345.898)" fill="#d8d1c7"/>
          <g id="Grupo_1106065" data-name="Grupo 1106065" transform="translate(0.178 12.681)">
            <path id="Trazado_901941" data-name="Trazado 901941" d="M125.172,359.393l.577,1,.675-.2-.74-1.285Z" transform="translate(-123.781 -358.303)" fill="#ccc6bc"/>
            <path id="Trazado_901942" data-name="Trazado 901942" d="M124.562,359.075l.812.469.511-.486-1.05-.6Z" transform="translate(-123.983 -358.453)" fill="#e6e1dd"/>
            <path id="Trazado_901943" data-name="Trazado 901943" d="M124.127,359.406l.579-.332.273-.622-.743.427Z" transform="translate(-124.127 -358.453)" fill="#ccc6bc"/>
            <path id="Trazado_901944" data-name="Trazado 901944" d="M125.6,360.072v.94l.675.072v-1.212Z" transform="translate(-123.637 -357.983)" fill="#b5afa7"/>
            <path id="Trazado_901945" data-name="Trazado 901945" d="M125.749,360.728l-.577.333.509.169.743-.43Z" transform="translate(-123.781 -357.699)" fill="#918b85"/>
            <path id="Trazado_901946" data-name="Trazado 901946" d="M124.13,360.193l.576,1,.812.471.576-.333v-.94l-.576-1-.812-.469-.579.332Z" transform="translate(-124.127 -358.298)" fill="#d8d1c7"/>
          </g>
          <rect id="Rectángulo_403059" data-name="Rectángulo 403059" width="24.346" height="1.872" transform="matrix(0.866, -0.5, 0.5, 0.866, 2.278, 12.954)" fill="#b5afa7"/>
          <path id="Trazado_901947" data-name="Trazado 901947" d="M145.781,348.928l1.325.764-21.084,12.174L124.7,361.1Z" transform="translate(-123.76 -348.928)" fill="#e6e1dd"/>
          <path id="Trazado_901948" data-name="Trazado 901948" d="M147.479,352.249v-1.528l-21.085,12.172v1.53Z" transform="translate(-123.197 -348.334)" fill="#a39c95"/>
        </g>
        <g id="Grupo_1106069" data-name="Grupo 1106069" transform="translate(8.3)">
          <g id="Grupo_1106067" data-name="Grupo 1106067" transform="translate(0.274 0.752)">
            <path id="Trazado_901949" data-name="Trazado 901949" d="M132.8,335.218l-.692-.4h-.983l-.694.4v.567l.694.4h.983l.692-.4Z" transform="translate(-130.433 -334.817)" fill="#e6e1dd"/>
            <rect id="Rectángulo_403060" data-name="Rectángulo 403060" width="0.983" height="25.975" transform="translate(0.694 1.37)" fill="#b5afa7"/>
            <path id="Trazado_901950" data-name="Trazado 901950" d="M132.384,361.521l-.692.4V335.946l.692-.4Z" transform="translate(-130.016 -334.576)" fill="#a39c95"/>
            <path id="Trazado_901951" data-name="Trazado 901951" d="M130.433,361.521l.694.4V335.946l-.694-.4Z" transform="translate(-130.433 -334.576)" fill="#d8d1c7"/>
          </g>
          <g id="Grupo_1106068" data-name="Grupo 1106068">
            <path id="Trazado_901952" data-name="Trazado 901952" d="M133.145,334.747l-.855-.5h-1.209l-.855.5v.7l.855.5h1.209l.855-.5Z" transform="translate(-130.227 -334.252)" fill="#e6e1dd"/>
            <rect id="Rectángulo_403061" data-name="Rectángulo 403061" width="1.209" height="0.615" transform="translate(0.855 1.688)" fill="#b5afa7"/>
            <path id="Trazado_901953" data-name="Trazado 901953" d="M132.632,335.764l-.855.493v-.614l.855-.5Z" transform="translate(-129.713 -333.955)" fill="#a39c95"/>
            <path id="Trazado_901954" data-name="Trazado 901954" d="M130.227,335.764l.855.493v-.614l-.855-.5Z" transform="translate(-130.227 -333.955)" fill="#d8d1c7"/>
          </g>
        </g>
        <g id="Grupo_1106076" data-name="Grupo 1106076" transform="translate(13.466 15.842)">
          <g id="Grupo_1106072" data-name="Grupo 1106072">
            <g id="Grupo_1106070" data-name="Grupo 1106070" transform="translate(0.276 0.752)">
              <path id="Trazado_901955" data-name="Trazado 901955" d="M136.683,347.115l-.692-.4h-.983l-.694.4v.567l.694.4h.983l.692-.4Z" transform="translate(-134.314 -346.716)" fill="#e6e1dd"/>
              <rect id="Rectángulo_403062" data-name="Rectángulo 403062" width="0.983" height="7.152" transform="translate(0.694 1.369)" fill="#b5afa7"/>
              <path id="Trazado_901956" data-name="Trazado 901956" d="M136.265,354.6l-.692.4v-7.152l.692-.4Z" transform="translate(-133.897 -346.475)" fill="#a39c95"/>
              <path id="Trazado_901957" data-name="Trazado 901957" d="M134.314,354.6l.694.4v-7.152l-.694-.4Z" transform="translate(-134.314 -346.475)" fill="#d8d1c7"/>
            </g>
            <g id="Grupo_1106071" data-name="Grupo 1106071">
              <path id="Trazado_901958" data-name="Trazado 901958" d="M137.025,346.646l-.856-.5h-1.208l-.855.5v.7l.855.493h1.208l.856-.493Z" transform="translate(-134.107 -346.151)" fill="#e6e1dd"/>
              <rect id="Rectángulo_403063" data-name="Rectángulo 403063" width="1.208" height="0.618" transform="translate(0.855 1.686)" fill="#b5afa7"/>
              <path id="Trazado_901959" data-name="Trazado 901959" d="M136.512,347.662l-.856.5v-.618l.856-.493Z" transform="translate(-133.594 -345.854)" fill="#a39c95"/>
              <path id="Trazado_901960" data-name="Trazado 901960" d="M134.107,347.662l.855.5v-.618l-.855-.493Z" transform="translate(-134.107 -345.854)" fill="#d8d1c7"/>
            </g>
          </g>
          <g id="Grupo_1106075" data-name="Grupo 1106075" transform="translate(2.02 3.8)">
            <g id="Grupo_1106073" data-name="Grupo 1106073" transform="translate(0 0.474)">
              <path id="Trazado_901961" data-name="Trazado 901961" d="M137.145,350.027l-1.153-.666-.241.14,1.153.764Z" transform="translate(-135.582 -349.361)" fill="#574943"/>
              <path id="Trazado_901962" data-name="Trazado 901962" d="M136.945,350.132l-1.152-.666-.169.3,1.152.944Z" transform="translate(-135.624 -349.326)" fill="#362c29"/>
              <path id="Trazado_901963" data-name="Trazado 901963" d="M136.776,350.355l-1.152-.667v.277l1.152.667Z" transform="translate(-135.624 -349.253)" fill="#211a1a"/>
              <path id="Trazado_901964" data-name="Trazado 901964" d="M136.658,350.674l-.169-.1V350.3l.169-.3.242-.14.169.1v.28l-.169.3Z" transform="translate(-135.337 -349.195)" fill="#0a0808"/>
            </g>
            <g id="Grupo_1106074" data-name="Grupo 1106074" transform="translate(0.146)">
              <path id="Trazado_901965" data-name="Trazado 901965" d="M137.682,349.431l-.739-.426-.792.458.755.744Z" transform="translate(-135.596 -349.005)" fill="#836e69"/>
              <path id="Trazado_901966" data-name="Trazado 901966" d="M137.033,349.779l-.744-.43-.555.959.746,1.326Z" transform="translate(-135.734 -348.891)" fill="#685750"/>
              <path id="Trazado_901967" data-name="Trazado 901967" d="M136.482,350.492l-.748-.423.011.9.735.423Z" transform="translate(-135.734 -348.652)" fill="#544540"/>
              <path id="Trazado_901968" data-name="Trazado 901968" d="M136.848,351.962l-.554-.321,0-.9.551-.952.787-.462.553.319,0,.912-.551.956Z" transform="translate(-135.548 -348.899)" fill="#403531"/>
              <path id="Trazado_901969" data-name="Trazado 901969" d="M137.967,349.682l-.184-.1-1.174,2.034.182.105.691-.394.482-.839Z" transform="translate(-135.444 -348.815)" fill="#836e69"/>
              <path id="Trazado_901970" data-name="Trazado 901970" d="M137.858,349.622l-.3-.176-.691.4-.483.836v.795l.3.174.688-.4.483-.837Z" transform="translate(-135.519 -348.859)" fill="#fff"/>
              <path id="Trazado_901971" data-name="Trazado 901971" d="M137,350.525l-.1.009.253-.873.1-.009Z" transform="translate(-135.345 -348.791)" fill="#362c29"/>
              <path id="Trazado_901972" data-name="Trazado 901972" d="M136.9,350.685l-.136-.079v-.226l.136-.236.194-.115.138.081,0,.225-.136.237Z" transform="translate(-135.394 -348.665)" fill="#a39c95"/>
            </g>
          </g>
        </g>
      </g>
    </g>
    <g id="Grupo_1106085" data-name="Grupo 1106085" transform="translate(142.406 345.31)">
      <g id="Grupo_1106081" data-name="Grupo 1106081" transform="translate(0 2.145)">
        <g id="Grupo_1106079" data-name="Grupo 1106079">
          <path id="Trazado_901973" data-name="Trazado 901973" d="M135.513,340.258l-.188-.111-.8.454.2.446Z" transform="translate(-133.97 -340.147)" fill="#fff"/>
          <path id="Trazado_901974" data-name="Trazado 901974" d="M134.869,340.6l-.2-.109-.558.964.2,1.028Z" transform="translate(-134.109 -340.034)" fill="#f4efe9"/>
          <path id="Trazado_901975" data-name="Trazado 901975" d="M134.309,341.332l-.2-.12v.919l.2.109Z" transform="translate(-134.109 -339.794)" fill="#e0dedc"/>
          <path id="Trazado_901976" data-name="Trazado 901976" d="M134.819,342.9l-.561-.336v-.908l.561-.975.783-.458.574.335v.9l-.574.969Z" transform="translate(-134.059 -340.121)" fill="#d1d1d1"/>
        </g>
        <g id="Grupo_1106080" data-name="Grupo 1106080" transform="translate(0.438 0.405)">
          <path id="Trazado_901977" data-name="Trazado 901977" d="M136.079,340.834l-.67-.384-.634.362.675.651Z" transform="translate(-134.326 -340.451)" fill="#fa5c52"/>
          <path id="Trazado_901978" data-name="Trazado 901978" d="M135.552,341.109l-.664-.386-.45.778.666,1.12Z" transform="translate(-134.438 -340.361)" fill="#c84030"/>
          <path id="Trazado_901979" data-name="Trazado 901979" d="M135.1,341.693l-.666-.386v.727l.666.393Z" transform="translate(-134.438 -340.167)" fill="#ab281f"/>
          <path id="Trazado_901980" data-name="Trazado 901980" d="M135.387,342.881l-.449-.266v-.734l.449-.777.639-.365.437.261v.73l-.437.779Z" transform="translate(-134.272 -340.356)" fill="#8a1c14"/>
        </g>
      </g>
      <g id="Grupo_1106084" data-name="Grupo 1106084" transform="translate(3.697)">
        <g id="Grupo_1106082" data-name="Grupo 1106082">
          <path id="Trazado_901981" data-name="Trazado 901981" d="M138.3,338.651l-.209-.115-.782.45.193.454Z" transform="translate(-136.745 -338.536)" fill="#fff"/>
          <path id="Trazado_901982" data-name="Trazado 901982" d="M137.646,339l-.193-.126-.567.985.2,1.025Z" transform="translate(-136.886 -338.424)" fill="#f4efe9"/>
          <path id="Trazado_901983" data-name="Trazado 901983" d="M137.082,339.731l-.2-.117v.919l.2.107Z" transform="translate(-136.886 -338.179)" fill="#e0dedc"/>
          <path id="Trazado_901984" data-name="Trazado 901984" d="M137.6,341.293l-.564-.325v-.908l.564-.983.8-.455.569.318v.924l-.569.969Z" transform="translate(-136.837 -338.508)" fill="#d1d1d1"/>
        </g>
        <g id="Grupo_1106083" data-name="Grupo 1106083" transform="translate(0.426 0.402)">
          <path id="Trazado_901985" data-name="Trazado 901985" d="M138.861,339.239l-.674-.4-.639.375.688.638Z" transform="translate(-137.093 -338.838)" fill="#fbe979"/>
          <path id="Trazado_901986" data-name="Trazado 901986" d="M138.338,339.507l-.676-.387-.455.775.675,1.124Z" transform="translate(-137.206 -338.745)" fill="#e3bd5e"/>
          <path id="Trazado_901987" data-name="Trazado 901987" d="M137.881,340.095l-.675-.393v.736l.675.387Z" transform="translate(-137.206 -338.552)" fill="#d6a950"/>
          <path id="Trazado_901988" data-name="Trazado 901988" d="M138.17,341.269l-.457-.257v-.731l.457-.78.636-.362.447.245v.75l-.447.767Z" transform="translate(-137.038 -338.738)" fill="#cc934c"/>
        </g>
      </g>
    </g>
  </g>
</svg>
