<svg xmlns="http://www.w3.org/2000/svg" width="50.181" height="62.839" viewBox="0 0 50.181 62.839">
  <g id="Grupo_1106145" data-name="Grupo 1106145" transform="translate(-260.718 -334.916)">
    <g id="Grupo_1105918" data-name="Grupo 1105918">
      <g id="Grupo_1105908" data-name="Grupo 1105908">
        <g id="Grupo_1105906" data-name="Grupo 1105906">
          <path id="Trazado_901520" data-name="Trazado 901520" d="M277.678,395.762l-.845-.489h-1.2l-.845.489v.69l.845.488h1.2l.845-.488Z" fill="#e6e1dd"/>
          <rect id="Rectángulo_403008" data-name="Rectángulo 403008" width="1.196" height="0.814" transform="translate(275.637 396.94)" fill="#b5afa7"/>
          <path id="Trazado_901521" data-name="Trazado 901521" d="M277.678,397.27l-.845.484v-.814l.845-.488Z" fill="#a39c95"/>
          <path id="Trazado_901522" data-name="Trazado 901522" d="M274.792,397.27l.845.484v-.814l-.845-.488Z" fill="#d8d1c7"/>
        </g>
        <g id="Grupo_1105907" data-name="Grupo 1105907">
          <path id="Trazado_901523" data-name="Trazado 901523" d="M277.378,388.264l-.668-.385h-.948l-.67.385v.549l.67.383h.948l.668-.383Z" fill="#e6e1dd"/>
          <rect id="Rectángulo_403009" data-name="Rectángulo 403009" width="0.948" height="7.528" transform="translate(275.762 389.196)" fill="#b5afa7"/>
          <path id="Trazado_901524" data-name="Trazado 901524" d="M277.378,396.339l-.668.386V389.2l.668-.383Z" fill="#a39c95"/>
          <path id="Trazado_901525" data-name="Trazado 901525" d="M275.092,396.339l.67.386V389.2l-.67-.383Z" fill="#d8d1c7"/>
        </g>
      </g>
      <g id="Grupo_1105911" data-name="Grupo 1105911">
        <g id="Grupo_1105909" data-name="Grupo 1105909">
          <path id="Trazado_901526" data-name="Trazado 901526" d="M296.823,395.762l-.845-.489h-1.193l-.846.489v.69l.846.488h1.193l.845-.488Z" fill="#e6e1dd"/>
          <rect id="Rectángulo_403010" data-name="Rectángulo 403010" width="1.193" height="0.814" transform="translate(294.785 396.94)" fill="#b5afa7"/>
          <path id="Trazado_901527" data-name="Trazado 901527" d="M296.823,397.27l-.845.484v-.814l.845-.488Z" fill="#a39c95"/>
          <path id="Trazado_901528" data-name="Trazado 901528" d="M293.939,397.27l.846.484v-.814l-.846-.488Z" fill="#d8d1c7"/>
        </g>
        <g id="Grupo_1105910" data-name="Grupo 1105910">
          <path id="Trazado_901529" data-name="Trazado 901529" d="M296.523,388.264l-.669-.385h-.946l-.669.385v.549l.669.383h.946l.669-.383Z" fill="#e6e1dd"/>
          <rect id="Rectángulo_403011" data-name="Rectángulo 403011" width="0.946" height="7.528" transform="translate(294.908 389.196)" fill="#b5afa7"/>
          <path id="Trazado_901530" data-name="Trazado 901530" d="M296.523,396.339l-.669.386V389.2l.669-.383Z" fill="#a39c95"/>
          <path id="Trazado_901531" data-name="Trazado 901531" d="M294.239,396.339l.669.386V389.2l-.669-.383Z" fill="#d8d1c7"/>
        </g>
      </g>
      <g id="Grupo_1105914" data-name="Grupo 1105914">
        <g id="Grupo_1105912" data-name="Grupo 1105912">
          <path id="Trazado_901532" data-name="Trazado 901532" d="M310.377,387.935l-.847-.486h-1.2l-.845.486v.692l.845.485,1.2,0,.847-.487Z" fill="#e6e1dd"/>
          <rect id="Rectángulo_403012" data-name="Rectángulo 403012" width="1.195" height="0.819" transform="translate(308.335 389.112)" fill="#b5afa7"/>
          <path id="Trazado_901533" data-name="Trazado 901533" d="M310.377,389.442l-.847.49v-.82l.847-.485Z" fill="#a39c95"/>
          <path id="Trazado_901534" data-name="Trazado 901534" d="M307.49,389.442l.845.49v-.82l-.845-.485Z" fill="#d8d1c7"/>
        </g>
        <g id="Grupo_1105913" data-name="Grupo 1105913">
          <path id="Trazado_901535" data-name="Trazado 901535" d="M310.072,380.438l-.662-.384h-.948l-.67.384v.546l.67.385h.948l.662-.385Z" fill="#e6e1dd"/>
          <rect id="Rectángulo_403013" data-name="Rectángulo 403013" width="0.948" height="7.529" transform="translate(308.462 381.369)" fill="#b5afa7"/>
          <path id="Trazado_901536" data-name="Trazado 901536" d="M310.072,388.513l-.662.385v-7.529l.662-.385Z" fill="#a39c95"/>
          <path id="Trazado_901537" data-name="Trazado 901537" d="M307.792,388.513l.67.385v-7.529l-.67-.385Z" fill="#d8d1c7"/>
        </g>
      </g>
      <g id="Grupo_1105917" data-name="Grupo 1105917">
        <g id="Grupo_1105915" data-name="Grupo 1105915">
          <path id="Trazado_901538" data-name="Trazado 901538" d="M264.126,387.935l-.846-.486h-1.2l-.846.486v.692l.846.485,1.2,0,.846-.487Z" fill="#e6e1dd"/>
          <rect id="Rectángulo_403014" data-name="Rectángulo 403014" width="1.195" height="0.819" transform="translate(262.085 389.112)" fill="#b5afa7"/>
          <path id="Trazado_901539" data-name="Trazado 901539" d="M264.126,389.442l-.846.49v-.82l.846-.485Z" fill="#a39c95"/>
          <path id="Trazado_901540" data-name="Trazado 901540" d="M261.239,389.442l.846.49v-.82l-.846-.485Z" fill="#d8d1c7"/>
        </g>
        <g id="Grupo_1105916" data-name="Grupo 1105916">
          <path id="Trazado_901541" data-name="Trazado 901541" d="M263.822,380.438l-.669-.384h-.941l-.673.384v.546l.673.385h.941l.669-.385Z" fill="#e6e1dd"/>
          <rect id="Rectángulo_403015" data-name="Rectángulo 403015" width="0.941" height="7.529" transform="translate(262.212 381.369)" fill="#b5afa7"/>
          <path id="Trazado_901542" data-name="Trazado 901542" d="M263.822,388.513l-.669.385v-7.529l.669-.385Z" fill="#a39c95"/>
          <path id="Trazado_901543" data-name="Trazado 901543" d="M261.539,388.513l.673.385v-7.529l-.673-.385Z" fill="#d8d1c7"/>
        </g>
      </g>
    </g>
    <path id="Trazado_901544" data-name="Trazado 901544" d="M310.395,377.678l-14.4-8.322h-20.37l-14.4,8.322v11.758l14.4,8.318h20.37l14.4-8.318Z" opacity="0.3"/>
    <g id="Grupo_1105919" data-name="Grupo 1105919">
      <path id="Trazado_901545" data-name="Trazado 901545" d="M310.9,365.519l-14.7-8.486H275.415l-14.7,8.486v12l14.7,8.49H296.2l14.7-8.49Z" fill="#e6e1dd"/>
      <rect id="Rectángulo_403016" data-name="Rectángulo 403016" width="20.785" height="4.237" transform="translate(275.415 386.012)" fill="#b5afa7"/>
      <path id="Trazado_901546" data-name="Trazado 901546" d="M310.9,381.769l-14.7,8.48v-4.237l14.7-8.49Z" fill="#a39c95"/>
      <path id="Trazado_901547" data-name="Trazado 901547" d="M260.718,381.769l14.7,8.48v-4.237l-14.7-8.49Z" fill="#d8d1c7"/>
    </g>
    <g id="Grupo_1105920" data-name="Grupo 1105920">
      <path id="Trazado_901548" data-name="Trazado 901548" d="M310.344,343.215l-14.371-8.3H275.646l-14.375,8.3v11.733l14.375,8.3h20.327l14.371-8.3Z" fill="#e6e1dd"/>
      <rect id="Rectángulo_403017" data-name="Rectángulo 403017" width="20.327" height="22.332" transform="translate(275.646 363.248)" fill="#b5afa7"/>
      <path id="Trazado_901549" data-name="Trazado 901549" d="M310.344,377.287l-14.371,8.293V363.248l14.371-8.3Z" fill="#a39c95"/>
      <path id="Trazado_901550" data-name="Trazado 901550" d="M261.271,377.287l14.375,8.293V363.248l-14.375-8.3Z" fill="#d8d1c7"/>
    </g>
    <g id="Grupo_1105955" data-name="Grupo 1105955">
      <g id="Grupo_1105921" data-name="Grupo 1105921">
        <path id="Trazado_901551" data-name="Trazado 901551" d="M299.323,383.275l1.57.91,7.939-11.946-9.509,3.681Z" fill="#d8d1c7"/>
        <path id="Trazado_901552" data-name="Trazado 901552" d="M300.893,376.826l7.939-4.587-1.565-.91-7.944,4.591Z" fill="#e6e1dd"/>
        <path id="Trazado_901553" data-name="Trazado 901553" d="M300.893,384.185l7.939-4.585v-7.361l-7.939,4.587Z" fill="#a39c95"/>
      </g>
      <g id="Grupo_1105924" data-name="Grupo 1105924">
        <path id="Trazado_901554" data-name="Trazado 901554" d="M308.449,373.041v4.943l-2.807,1.622v-.112l2.71-1.566V373.1Z" fill="#5e4439"/>
        <path id="Trazado_901555" data-name="Trazado 901555" d="M308.352,373.1v4.828l-2.71,1.566v-4.828Z" fill="#736656"/>
        <g id="Grupo_1105922" data-name="Grupo 1105922">
          <path id="Trazado_901556" data-name="Trazado 901556" d="M305.816,374.774v.411l.806-.467v-.41Z" fill="#e3bd5e"/>
          <path id="Trazado_901557" data-name="Trazado 901557" d="M305.816,375.984l.806-.466v-.412l-.806.468Z" fill="#e3d791"/>
          <path id="Trazado_901558" data-name="Trazado 901558" d="M305.816,376.782l.806-.464V375.9l-.806.469Z" fill="#5e4439"/>
          <path id="Trazado_901559" data-name="Trazado 901559" d="M305.816,377.58l.806-.464v-.409l-.806.465Z" fill="#ab9d67"/>
          <path id="Trazado_901560" data-name="Trazado 901560" d="M305.816,378.38l.806-.466v-.407l-.806.465Z" fill="#5e4439"/>
          <path id="Trazado_901561" data-name="Trazado 901561" d="M305.816,379.182l.806-.467v-.409l-.806.466Z" fill="#5e4439"/>
        </g>
        <g id="Grupo_1105923" data-name="Grupo 1105923">
          <path id="Trazado_901562" data-name="Trazado 901562" d="M307.4,373.856v.411l.808-.466v-.408Z" fill="#574943"/>
          <path id="Trazado_901563" data-name="Trazado 901563" d="M307.4,375.067l.808-.466v-.41l-.808.465Z" fill="#574943"/>
          <path id="Trazado_901564" data-name="Trazado 901564" d="M307.4,375.865l.808-.465v-.409l-.808.464Z" fill="#8ccccb"/>
          <path id="Trazado_901565" data-name="Trazado 901565" d="M307.4,376.665l.808-.466v-.408l-.808.464Z" fill="#d18067"/>
          <path id="Trazado_901566" data-name="Trazado 901566" d="M307.4,377.463l.808-.465v-.408l-.808.465Z" fill="#5e4439"/>
          <path id="Trazado_901567" data-name="Trazado 901567" d="M307.4,378.263l.808-.465v-.408l-.808.463Z" fill="#5e4439"/>
        </g>
      </g>
      <g id="Grupo_1105954" data-name="Grupo 1105954">
        <path id="Trazado_901568" data-name="Trazado 901568" d="M301.6,382.35l.3.174,3.591-7.59-3.893,1.9Z" fill="#d8d1c7"/>
        <path id="Trazado_901569" data-name="Trazado 901569" d="M301.906,377.009l3.591-2.075-.3-.175L301.6,376.83Z" fill="#e6e1dd"/>
        <path id="Trazado_901570" data-name="Trazado 901570" d="M301.906,382.524l3.591-2.073v-5.517l-3.591,2.075Z" fill="#a39c95"/>
        <g id="Grupo_1105925" data-name="Grupo 1105925">
          <path id="Trazado_901571" data-name="Trazado 901571" d="M305.1,375.569v1.347l-2.809,1.618v-.109l2.71-1.566v-1.231Z" fill="#5e4439"/>
          <path id="Trazado_901572" data-name="Trazado 901572" d="M305,375.628v1.231l-2.71,1.566v-1.233Z" fill="#736656"/>
        </g>
        <g id="Grupo_1105926" data-name="Grupo 1105926">
          <path id="Trazado_901573" data-name="Trazado 901573" d="M305.1,377.327v2.944l-2.809,1.623v-.113l2.71-1.566v-2.831Z" fill="#574943"/>
          <path id="Trazado_901574" data-name="Trazado 901574" d="M305,377.384v2.831l-2.71,1.566V378.95Z" fill="#362c29"/>
        </g>
        <g id="Grupo_1105929" data-name="Grupo 1105929">
          <g id="Grupo_1105927" data-name="Grupo 1105927">
            <path id="Trazado_901575" data-name="Trazado 901575" d="M302.895,378.889l-.045-.027-.189.108.048.106Z" fill="#fff"/>
            <path id="Trazado_901576" data-name="Trazado 901576" d="M302.709,379l-.048-.026-.133.229.048.244Z" fill="#f4efe9"/>
            <path id="Trazado_901577" data-name="Trazado 901577" d="M302.576,379.228l-.048-.029v.218l.048.026Z" fill="#e0dedc"/>
            <path id="Trazado_901578" data-name="Trazado 901578" d="M302.709,379.522l-.133-.079v-.215l.133-.232.186-.109.136.08v.215l-.136.229Z" fill="#d1d1d1"/>
          </g>
          <g id="Grupo_1105928" data-name="Grupo 1105928">
            <path id="Trazado_901579" data-name="Trazado 901579" d="M303.049,379.05l-.158-.092-.152.087.161.154Z" fill="#fa5c52"/>
            <path id="Trazado_901580" data-name="Trazado 901580" d="M302.9,379.136l-.157-.091-.106.184.158.265Z" fill="#c84030"/>
            <path id="Trazado_901581" data-name="Trazado 901581" d="M302.791,379.32l-.158-.091v.172l.158.093Z" fill="#ab281f"/>
            <path id="Trazado_901582" data-name="Trazado 901582" d="M302.9,379.557l-.105-.063v-.174l.105-.184.153-.086.1.061v.173l-.1.186Z" fill="#8a1c14"/>
          </g>
        </g>
        <g id="Grupo_1105932" data-name="Grupo 1105932">
          <g id="Grupo_1105930" data-name="Grupo 1105930">
            <path id="Trazado_901583" data-name="Trazado 901583" d="M303.776,378.38l-.05-.027-.185.107.046.108Z" fill="#fff"/>
            <path id="Trazado_901584" data-name="Trazado 901584" d="M303.587,378.49l-.046-.03-.135.234.047.244Z" fill="#f4efe9"/>
            <path id="Trazado_901585" data-name="Trazado 901585" d="M303.453,378.723l-.047-.029v.218l.047.026Z" fill="#e0dedc"/>
            <path id="Trazado_901586" data-name="Trazado 901586" d="M303.587,379.016l-.134-.078v-.215l.134-.234.189-.109.135.077v.219l-.135.228Z" fill="#d1d1d1"/>
          </g>
          <g id="Grupo_1105931" data-name="Grupo 1105931">
            <path id="Trazado_901587" data-name="Trazado 901587" d="M303.927,378.544l-.16-.1-.15.09.162.151Z" fill="#fbe979"/>
            <path id="Trazado_901588" data-name="Trazado 901588" d="M303.776,378.63l-.159-.092-.11.185.16.266Z" fill="#e3bd5e"/>
            <path id="Trazado_901589" data-name="Trazado 901589" d="M303.667,378.815l-.16-.092v.174l.16.092Z" fill="#d6a950"/>
            <path id="Trazado_901590" data-name="Trazado 901590" d="M303.776,379.05l-.109-.061v-.174l.109-.185.151-.086.107.059v.177l-.107.183Z" fill="#cc934c"/>
          </g>
        </g>
        <g id="Grupo_1105935" data-name="Grupo 1105935">
          <g id="Grupo_1105933" data-name="Grupo 1105933">
            <path id="Trazado_901591" data-name="Trazado 901591" d="M304.653,377.873l-.044-.027-.19.11.049.1Z" fill="#fff"/>
            <path id="Trazado_901592" data-name="Trazado 901592" d="M304.465,377.984l-.046-.028-.136.229.047.243Z" fill="#f4efe9"/>
            <path id="Trazado_901593" data-name="Trazado 901593" d="M304.33,378.213l-.047-.028v.218l.047.025Z" fill="#e0dedc"/>
            <path id="Trazado_901594" data-name="Trazado 901594" d="M304.465,378.507l-.135-.079v-.215l.135-.229.188-.111.134.076v.218l-.134.232Z" fill="#d1d1d1"/>
          </g>
          <g id="Grupo_1105934" data-name="Grupo 1105934">
            <path id="Trazado_901595" data-name="Trazado 901595" d="M304.807,378.035l-.163-.092-.149.088.16.153Z" fill="#e8f3ff"/>
            <path id="Trazado_901596" data-name="Trazado 901596" d="M304.655,378.123l-.16-.092-.107.182.159.267Z" fill="#c8dfe8"/>
            <path id="Trazado_901597" data-name="Trazado 901597" d="M304.547,378.306l-.159-.093v.177l.159.09Z" fill="#b4ced6"/>
            <path id="Trazado_901598" data-name="Trazado 901598" d="M304.655,378.54l-.108-.06v-.174l.108-.184.152-.087.1.061v.174l-.1.186Z" fill="#a1b4bf"/>
          </g>
        </g>
        <g id="Grupo_1105938" data-name="Grupo 1105938">
          <g id="Grupo_1105936" data-name="Grupo 1105936">
            <path id="Trazado_901599" data-name="Trazado 901599" d="M302.895,379.685l-.045-.025-.189.11.048.105Z" fill="#fff"/>
            <path id="Trazado_901600" data-name="Trazado 901600" d="M302.709,379.8l-.048-.025-.133.229.048.244Z" fill="#f4efe9"/>
            <path id="Trazado_901601" data-name="Trazado 901601" d="M302.576,380.026l-.048-.027v.217l.048.027Z" fill="#e0dedc"/>
            <path id="Trazado_901602" data-name="Trazado 901602" d="M302.709,380.323l-.133-.08v-.217l.133-.231.186-.11.136.081v.215l-.136.23Z" fill="#d1d1d1"/>
          </g>
          <g id="Grupo_1105937" data-name="Grupo 1105937">
            <path id="Trazado_901603" data-name="Trazado 901603" d="M303.049,379.85l-.158-.094-.152.089.161.154Z" fill="#fa5c52"/>
            <path id="Trazado_901604" data-name="Trazado 901604" d="M302.9,379.935l-.157-.09-.106.182.158.269Z" fill="#c84030"/>
            <path id="Trazado_901605" data-name="Trazado 901605" d="M302.791,380.118l-.158-.091v.174l.158.1Z" fill="#ab281f"/>
            <path id="Trazado_901606" data-name="Trazado 901606" d="M302.9,380.355l-.105-.059v-.178l.105-.183.153-.085.1.061v.173l-.1.185Z" fill="#8a1c14"/>
          </g>
        </g>
        <g id="Grupo_1105941" data-name="Grupo 1105941">
          <g id="Grupo_1105939" data-name="Grupo 1105939">
            <path id="Trazado_901607" data-name="Trazado 901607" d="M303.776,379.182l-.05-.029-.185.108.046.105Z" fill="#fff"/>
            <path id="Trazado_901608" data-name="Trazado 901608" d="M303.587,379.29l-.046-.029-.135.232.047.243Z" fill="#f4efe9"/>
            <path id="Trazado_901609" data-name="Trazado 901609" d="M303.453,379.52l-.047-.027v.218l.047.025Z" fill="#e0dedc"/>
            <path id="Trazado_901610" data-name="Trazado 901610" d="M303.587,379.814l-.134-.078v-.216l.134-.231.189-.107.135.075v.218l-.135.228Z" fill="#d1d1d1"/>
          </g>
          <g id="Grupo_1105940" data-name="Grupo 1105940">
            <path id="Trazado_901611" data-name="Trazado 901611" d="M303.927,379.342l-.16-.093-.15.089.162.154Z" fill="#fbe979"/>
            <path id="Trazado_901612" data-name="Trazado 901612" d="M303.776,379.429l-.159-.091-.11.184.16.267Z" fill="#e3bd5e"/>
            <path id="Trazado_901613" data-name="Trazado 901613" d="M303.667,379.613l-.16-.091v.175l.16.092Z" fill="#d6a950"/>
            <path id="Trazado_901614" data-name="Trazado 901614" d="M303.776,379.849l-.109-.06v-.176l.109-.184.151-.087.107.059v.177l-.107.185Z" fill="#cc934c"/>
          </g>
        </g>
        <g id="Grupo_1105944" data-name="Grupo 1105944">
          <g id="Grupo_1105942" data-name="Grupo 1105942">
            <path id="Trazado_901615" data-name="Trazado 901615" d="M304.653,378.671l-.044-.027-.19.11.049.106Z" fill="#fff"/>
            <path id="Trazado_901616" data-name="Trazado 901616" d="M304.465,378.783l-.046-.029-.136.231.047.244Z" fill="#f4efe9"/>
            <path id="Trazado_901617" data-name="Trazado 901617" d="M304.33,379.014l-.047-.029v.217l.047.027Z" fill="#e0dedc"/>
            <path id="Trazado_901618" data-name="Trazado 901618" d="M304.465,379.308l-.135-.079v-.215l.135-.231.188-.112.134.08v.218l-.134.228Z" fill="#d1d1d1"/>
          </g>
          <g id="Grupo_1105943" data-name="Grupo 1105943">
            <path id="Trazado_901619" data-name="Trazado 901619" d="M304.807,378.835l-.163-.092-.149.088.16.151Z" fill="#fbe979"/>
            <path id="Trazado_901620" data-name="Trazado 901620" d="M304.655,378.924l-.16-.093-.107.183.159.267Z" fill="#e3bd5e"/>
            <path id="Trazado_901621" data-name="Trazado 901621" d="M304.547,379.105l-.159-.091v.175l.159.092Z" fill="#d6a950"/>
            <path id="Trazado_901622" data-name="Trazado 901622" d="M304.655,379.341l-.108-.06v-.176l.108-.183.152-.087.1.062v.172l-.1.187Z" fill="#cc934c"/>
          </g>
        </g>
        <g id="Grupo_1105947" data-name="Grupo 1105947">
          <g id="Grupo_1105945" data-name="Grupo 1105945">
            <path id="Trazado_901623" data-name="Trazado 901623" d="M302.895,380.485l-.045-.026-.189.111.048.1Z" fill="#fff"/>
            <path id="Trazado_901624" data-name="Trazado 901624" d="M302.709,380.6l-.048-.027-.133.229.048.244Z" fill="#f4efe9"/>
            <path id="Trazado_901625" data-name="Trazado 901625" d="M302.576,380.825l-.048-.026v.218l.048.026Z" fill="#e0dedc"/>
            <path id="Trazado_901626" data-name="Trazado 901626" d="M302.709,381.121l-.133-.078v-.218l.133-.228.186-.113.136.081v.214l-.136.231Z" fill="#d1d1d1"/>
          </g>
          <g id="Grupo_1105946" data-name="Grupo 1105946">
            <path id="Trazado_901627" data-name="Trazado 901627" d="M303.049,380.647l-.158-.09-.152.086.161.156Z" fill="#baf3ff"/>
            <path id="Trazado_901628" data-name="Trazado 901628" d="M302.9,380.736l-.157-.093-.106.184.158.268Z" fill="#7dd2e3"/>
            <path id="Trazado_901629" data-name="Trazado 901629" d="M302.791,380.918l-.158-.091V381l.158.1Z" fill="#6cb5c4"/>
            <path id="Trazado_901630" data-name="Trazado 901630" d="M302.9,381.155l-.105-.06v-.177l.105-.182.153-.089.1.062v.174l-.1.186Z" fill="#5f9fad"/>
          </g>
        </g>
        <g id="Grupo_1105950" data-name="Grupo 1105950">
          <g id="Grupo_1105948" data-name="Grupo 1105948">
            <path id="Trazado_901631" data-name="Trazado 901631" d="M303.772,379.978l-.046-.024-.188.109.049.1Z" fill="#fff"/>
            <path id="Trazado_901632" data-name="Trazado 901632" d="M303.587,380.089l-.049-.026-.131.227.046.246Z" fill="#f4efe9"/>
            <path id="Trazado_901633" data-name="Trazado 901633" d="M303.453,380.32l-.046-.03v.219l.046.027Z" fill="#e0dedc"/>
            <path id="Trazado_901634" data-name="Trazado 901634" d="M303.587,380.614l-.134-.078v-.216l.134-.231.185-.111.135.081v.213l-.135.233Z" fill="#d1d1d1"/>
          </g>
          <g id="Grupo_1105949" data-name="Grupo 1105949">
            <path id="Trazado_901635" data-name="Trazado 901635" d="M303.927,380.142l-.16-.094-.15.089.162.153Z" fill="#baf3ff"/>
            <path id="Trazado_901636" data-name="Trazado 901636" d="M303.776,380.228l-.159-.091-.106.183.156.267Z" fill="#7dd2e3"/>
            <path id="Trazado_901637" data-name="Trazado 901637" d="M303.667,380.411l-.156-.091v.174l.156.093Z" fill="#6cb5c4"/>
            <path id="Trazado_901638" data-name="Trazado 901638" d="M303.776,380.647l-.109-.06v-.176l.109-.183.151-.086.107.06v.172l-.107.186Z" fill="#5f9fad"/>
          </g>
        </g>
        <g id="Grupo_1105953" data-name="Grupo 1105953">
          <g id="Grupo_1105951" data-name="Grupo 1105951">
            <path id="Trazado_901639" data-name="Trazado 901639" d="M304.653,379.471l-.044-.026-.19.11.049.1Z" fill="#fff"/>
            <path id="Trazado_901640" data-name="Trazado 901640" d="M304.465,379.582l-.046-.027-.136.23.047.242Z" fill="#f4efe9"/>
            <path id="Trazado_901641" data-name="Trazado 901641" d="M304.33,379.814l-.047-.029V380l.047.028Z" fill="#e0dedc"/>
            <path id="Trazado_901642" data-name="Trazado 901642" d="M304.465,380.107l-.135-.08v-.213l.135-.232.188-.111.134.079v.216l-.134.233Z" fill="#d1d1d1"/>
          </g>
          <g id="Grupo_1105952" data-name="Grupo 1105952">
            <path id="Trazado_901643" data-name="Trazado 901643" d="M304.807,379.634l-.163-.093-.149.09.16.154Z" fill="#fbe979"/>
            <path id="Trazado_901644" data-name="Trazado 901644" d="M304.655,379.722l-.16-.091-.107.183.159.265Z" fill="#e3bd5e"/>
            <path id="Trazado_901645" data-name="Trazado 901645" d="M304.547,379.906l-.159-.092v.174l.159.091Z" fill="#d6a950"/>
            <path id="Trazado_901646" data-name="Trazado 901646" d="M304.655,380.14l-.108-.061v-.173l.108-.184.152-.088.1.063v.17l-.1.189Z" fill="#cc934c"/>
          </g>
        </g>
      </g>
    </g>
    <g id="Grupo_1105958" data-name="Grupo 1105958">
      <g id="Grupo_1105956" data-name="Grupo 1105956">
        <path id="Trazado_901647" data-name="Trazado 901647" d="M281.822,356.6v.439l-3.939,2.283-1.393-1.288Z" fill="#a39c95"/>
        <path id="Trazado_901648" data-name="Trazado 901648" d="M277.883,358.876v.449H272.3l-3.937-2.722Z" fill="#b5afa7"/>
        <path id="Trazado_901649" data-name="Trazado 901649" d="M272.3,358.876v.449l-3.937-2.277V356.6Z" fill="#d8d1c7"/>
        <path id="Trazado_901650" data-name="Trazado 901650" d="M268.361,353.386V356.6l3.937,2.273h5.585l3.939-2.273v-3.217l-3.937-2.278H272.3Z" fill="#f4efe9"/>
      </g>
      <g id="Grupo_1105957" data-name="Grupo 1105957">
        <path id="Trazado_901651" data-name="Trazado 901651" d="M280.661,354.64v1.527l-3.261,1.889-1.153-2.23Z" fill="#a39c95"/>
        <path id="Trazado_901652" data-name="Trazado 901652" d="M277.4,356.522v1.534h-4.621l-3.252-3.416Z" fill="#b5afa7"/>
        <path id="Trazado_901653" data-name="Trazado 901653" d="M272.779,356.522v1.534l-3.252-1.884V354.64Z" fill="#d8d1c7"/>
        <path id="Trazado_901654" data-name="Trazado 901654" d="M269.527,351.978v2.662l3.252,1.882H277.4l3.261-1.882v-2.662L277.4,350.1h-4.623Z" fill="#f4efe9"/>
      </g>
    </g>
  </g>
</svg>
