<svg xmlns="http://www.w3.org/2000/svg" width="56" height="56" viewBox="0 0 56 56">
  <g id="Grupo_1106502" data-name="Grupo 1106502" transform="translate(-180 -10094)">
    <g id="Grupo_1106461" data-name="Grupo 1106461" transform="translate(0 4994)">
      <circle id="Elipse_12297" data-name="Elipse 12297" cx="28" cy="28" r="28" transform="translate(180 5100)" fill="#faf8f2"/>
      <path id="Elipse_12297_-_Contorno" data-name="Elipse 12297 - Contorno" d="M28,2A26.007,26.007,0,0,0,17.88,51.958,26.007,26.007,0,0,0,38.12,4.042,25.835,25.835,0,0,0,28,2m0-2A28,28,0,1,1,0,28,28,28,0,0,1,28,0Z" transform="translate(180 5100)" fill="#d0b57a"/>
    </g>
    <g id="estantes-de-cocina" transform="translate(193.5 10107)">
      <path id="Trazado_902736" data-name="Trazado 902736" d="M105.444,35.836v-.821H101.2v.821a1.251,1.251,0,0,1-.667,1.106,1.251,1.251,0,0,0-.667,1.106V43.5h6.914V38.049a1.251,1.251,0,0,0-.667-1.106,1.251,1.251,0,0,1-.667-1.106Zm0,0" transform="translate(-93.579 -32.978)" fill="#cae5ed"/>
      <path id="Trazado_902737" data-name="Trazado 902737" d="M174.733,36.942a1.251,1.251,0,0,1-.667-1.106v-.821h-1.339v.821a1.251,1.251,0,0,0,.667,1.106,1.251,1.251,0,0,1,.667,1.106V43.5H175.4V38.049A1.251,1.251,0,0,0,174.733,36.942Zm0,0" transform="translate(-162.201 -32.978)" fill="#9bb8d1"/>
      <path id="Trazado_902738" data-name="Trazado 902738" d="M273.754,40.779V43.5h6.914V38.049A1.251,1.251,0,0,0,280,36.943a1.251,1.251,0,0,1-.667-1.106v-.821h-4.246v.821a1.251,1.251,0,0,1-.667,1.106,1.251,1.251,0,0,0-.667,1.106v.984" transform="translate(-257.347 -32.978)" fill="#cae5ed"/>
      <path id="Trazado_902739" data-name="Trazado 902739" d="M348.623,36.942a1.251,1.251,0,0,1-.667-1.106v-.821h-1.339v.821a1.251,1.251,0,0,0,.667,1.106,1.251,1.251,0,0,1,.667,1.106V43.5h1.339V38.049A1.251,1.251,0,0,0,348.623,36.942Zm0,0" transform="translate(-325.969 -32.978)" fill="#9bb8d1"/>
      <path id="Trazado_902740" data-name="Trazado 902740" d="M300.363,304.332h5.025v5.433h-5.025Zm0,0" transform="translate(-282.407 -286.617)" fill="#cae5ed"/>
      <path id="Trazado_902741" data-name="Trazado 902741" d="M360.813,304.332h1.507v5.433h-1.507Zm0,0" transform="translate(-339.338 -286.617)" fill="#9bb8d1"/>
      <path id="Trazado_902742" data-name="Trazado 902742" d="M119.153,287.77h-3.016l-1.658,3.371a1.74,1.74,0,0,0-.082,1.338l.32.921a1.142,1.142,0,0,0,1.078.767h3.7a1.142,1.142,0,0,0,1.079-.767l.319-.921a1.739,1.739,0,0,0-.082-1.338Zm0,0" transform="translate(-107.176 -271.019)" fill="#e6f6fc"/>
      <path id="Trazado_902743" data-name="Trazado 902743" d="M174.93,291.141l-1.658-3.371h-1.507l1.658,3.371a1.74,1.74,0,0,1,.082,1.338l-.32.921a1.142,1.142,0,0,1-1.078.767h1.507a1.142,1.142,0,0,0,1.079-.767l.319-.921A1.739,1.739,0,0,0,174.93,291.141Zm0,0" transform="translate(-161.296 -271.019)" fill="#9bb8d1"/>
      <g id="Grupo_1106501" data-name="Grupo 1106501" transform="translate(1.264 6.599)">
        <path id="Trazado_902744" data-name="Trazado 902744" d="M16,114.556a1.193,1.193,0,1,1-1.193-1.193A1.193,1.193,0,0,1,16,114.556Zm0,0" transform="translate(-13.617 -113.363)" fill="#aabfd5"/>
        <path id="Trazado_902745" data-name="Trazado 902745" d="M16,464.7a1.193,1.193,0,1,1-1.193-1.193A1.193,1.193,0,0,1,16,464.7Zm0,0" transform="translate(-13.617 -443.122)" fill="#aabfd5"/>
        <path id="Trazado_902746" data-name="Trazado 902746" d="M440.167,114.556a1.193,1.193,0,1,1-1.193-1.193A1.193,1.193,0,0,1,440.167,114.556Zm0,0" transform="translate(-413.09 -113.363)" fill="#aabfd5"/>
        <path id="Trazado_902747" data-name="Trazado 902747" d="M440.167,464.7a1.193,1.193,0,1,1-1.193-1.193A1.193,1.193,0,0,1,440.167,464.7Zm0,0" transform="translate(-413.09 -443.122)" fill="#aabfd5"/>
      </g>
      <path id="Trazado_902748" data-name="Trazado 902748" d="M286.636,9.1h-4.914a.569.569,0,0,1-.57-.57V8.07a.57.57,0,0,1,.57-.57h4.914a.57.57,0,0,1,.57.57v.463A.569.569,0,0,1,286.636,9.1Zm0,0" transform="translate(-264.315 -7.064)" fill="#596e99"/>
      <path id="Trazado_902749" data-name="Trazado 902749" d="M353.687,7.5h-1.339a.57.57,0,0,1,.57.57v.463a.569.569,0,0,1-.57.57h1.339a.57.57,0,0,0,.57-.57V8.07a.569.569,0,0,0-.57-.57Zm0,0" transform="translate(-331.366 -7.064)" fill="#3a4d7b"/>
      <path id="Trazado_902750" data-name="Trazado 902750" d="M303.449,85.748v1.609a.291.291,0,0,0,.291.291h2.875a.291.291,0,0,0,.291-.291V85.748a.291.291,0,0,0-.291-.291H303.74A.291.291,0,0,0,303.449,85.748Zm0,0" transform="translate(-285.313 -80.483)" fill="#f9aa4b"/>
      <path id="Trazado_902751" data-name="Trazado 902751" d="M129.559,85.748v1.609a.291.291,0,0,0,.291.291h2.875a.291.291,0,0,0,.291-.291V85.748a.291.291,0,0,0-.291-.291H129.85A.291.291,0,0,0,129.559,85.748Zm0,0" transform="translate(-121.546 -80.483)" fill="#56a6e8"/>
      <path id="Trazado_902752" data-name="Trazado 902752" d="M112.745,9.1h-4.914a.569.569,0,0,1-.57-.57V8.07a.57.57,0,0,1,.57-.57h4.914a.57.57,0,0,1,.57.57v.463A.569.569,0,0,1,112.745,9.1Zm0,0" transform="translate(-100.546 -7.064)" fill="#596e99"/>
      <path id="Trazado_902753" data-name="Trazado 902753" d="M179.8,7.5h-1.339a.57.57,0,0,1,.57.57v.463a.57.57,0,0,1-.57.57H179.8a.57.57,0,0,0,.57-.57V8.07a.57.57,0,0,0-.57-.57Zm0,0" transform="translate(-167.597 -7.064)" fill="#3a4d7b"/>
      <path id="Trazado_902754" data-name="Trazado 902754" d="M124.91,249.8v1.645a.291.291,0,0,0,.291.291h4.871a.291.291,0,0,0,.291-.291V249.8a.291.291,0,0,0-.291-.291H125.2A.291.291,0,0,0,124.91,249.8Zm0,0" transform="translate(-117.167 -234.984)" fill="#596e99"/>
      <path id="Trazado_902755" data-name="Trazado 902755" d="M189.206,249.508H187.7a.291.291,0,0,1,.291.291v1.645a.291.291,0,0,1-.291.291h1.507a.291.291,0,0,0,.291-.291V249.8A.291.291,0,0,0,189.206,249.508Zm0,0" transform="translate(-176.302 -234.984)" fill="#3a4d7b"/>
      <path id="Trazado_902756" data-name="Trazado 902756" d="M114.479,333.113a1.74,1.74,0,0,0-.082,1.338l.32.921a1.142,1.142,0,0,0,1.078.767h3.7a1.142,1.142,0,0,0,1.078-.767l.32-.921a1.74,1.74,0,0,0-.082-1.338l-.382-.777h-5.567Zm0,0" transform="translate(-107.176 -312.991)" fill="#fed89b"/>
      <path id="Trazado_902757" data-name="Trazado 902757" d="M180.226,335.371l.319-.921a1.744,1.744,0,0,0-.082-1.338l-.382-.777h-1.507l.382.777a1.74,1.74,0,0,1,.082,1.338l-.32.921a1.142,1.142,0,0,1-1.078.767c1.56,0,1.53.011,1.686-.014A1.143,1.143,0,0,0,180.226,335.371Zm0,0" transform="translate(-166.829 -312.99)" fill="#e2b074"/>
      <path id="Trazado_902758" data-name="Trazado 902758" d="M300.363,355.422h5.025v2.459h-5.025Zm0,0" transform="translate(-282.407 -334.733)" fill="#8fc264"/>
      <path id="Trazado_902759" data-name="Trazado 902759" d="M360.813,355.422h1.507v2.459h-1.507Zm0,0" transform="translate(-339.338 -334.733)" fill="#649b45"/>
      <path id="Trazado_902760" data-name="Trazado 902760" d="M291.2,273.9v-1.281a.291.291,0,0,1,.291-.291H297a.291.291,0,0,1,.291.291V273.9a.291.291,0,0,1-.291.291h-5.511A.291.291,0,0,1,291.2,273.9Zm0,0" transform="translate(-273.773 -256.48)" fill="#596e99"/>
      <path id="Trazado_902761" data-name="Trazado 902761" d="M366.487,272.332H364.98a.291.291,0,0,1,.291.291V273.9a.291.291,0,0,1-.291.291h1.507a.291.291,0,0,0,.291-.291v-1.281A.291.291,0,0,0,366.487,272.332Zm0,0" transform="translate(-343.263 -256.48)" fill="#3a4d7b"/>
      <path id="Trazado_902762" data-name="Trazado 902762" d="M8,181.135v1.709a.291.291,0,0,0,.291.291H35.44a.291.291,0,0,0,.291-.291v-1.709a.291.291,0,0,0-.291-.291H8.291A.291.291,0,0,0,8,181.135Zm0,0" transform="translate(-7.063 -170.317)" fill="#d68376"/>
      <path id="Trazado_902763" data-name="Trazado 902763" d="M450.564,180.844h-1.782a.291.291,0,0,1,.291.291v1.709a.291.291,0,0,1-.291.291h1.782a.291.291,0,0,0,.291-.291v-1.709A.291.291,0,0,0,450.564,180.844Zm0,0" transform="translate(-422.186 -170.317)" fill="#a65d51"/>
      <path id="Trazado_902764" data-name="Trazado 902764" d="M8,397.951v1.709a.291.291,0,0,0,.291.291H35.44a.291.291,0,0,0,.291-.291v-1.709a.291.291,0,0,0-.291-.291H8.291A.291.291,0,0,0,8,397.951Zm0,0" transform="translate(-7.063 -374.512)" fill="#d68376"/>
      <path id="Trazado_902765" data-name="Trazado 902765" d="M450.564,397.66h-1.782a.291.291,0,0,1,.291.291v1.709a.291.291,0,0,1-.291.291h1.782a.291.291,0,0,0,.291-.291v-1.709A.291.291,0,0,0,450.564,397.66Zm0,0" transform="translate(-422.186 -374.512)" fill="#a65d51"/>
      <path id="Trazado_902766" data-name="Trazado 902766" d="M299.552,81.022a.728.728,0,0,0,.728-.728V78.685a.728.728,0,0,0-.728-.728h-2.875a.728.728,0,0,0-.728.728v1.609a.728.728,0,0,0,.728.728Zm-2.729-2.191h2.584v1.318h-2.584Zm0,0" transform="translate(-278.25 -73.42)"/>
      <path id="Trazado_902767" data-name="Trazado 902767" d="M125.661,81.022a.728.728,0,0,0,.728-.728V78.685a.728.728,0,0,0-.728-.728h-2.875a.728.728,0,0,0-.728.728v1.609a.728.728,0,0,0,.728.728Zm-2.729-2.191h2.584v1.318h-2.584Zm0,0" transform="translate(-114.482 -73.42)"/>
      <path id="Trazado_902768" data-name="Trazado 902768" d="M135.669,347.31a.436.436,0,0,0-.617,0l-.086.086a.436.436,0,0,0,.309.745.54.54,0,0,0,.395-.214A.436.436,0,0,0,135.669,347.31Zm0,0" transform="translate(-126.517 -326.972)"/>
      <path id="Trazado_902769" data-name="Trazado 902769" d="M164.341,347.31a.436.436,0,0,0-.617,0l-.086.086a.436.436,0,0,0,.309.745.54.54,0,0,0,.395-.214.436.436,0,0,0,0-.617Zm0,0" transform="translate(-153.52 -326.972)"/>
      <path id="Trazado_902770" data-name="Trazado 902770" d="M193.013,347.927a.437.437,0,0,0-.617-.617l-.086.086a.437.437,0,0,0,.617.617Zm0,0" transform="translate(-180.523 -326.972)"/>
      <path id="Trazado_902771" data-name="Trazado 902771" d="M149.388,368.8l-.086.086a.437.437,0,0,0,.309.745.54.54,0,0,0,.395-.214.437.437,0,1,0-.618-.617Zm0,0" transform="translate(-140.019 -347.209)"/>
      <path id="Trazado_902772" data-name="Trazado 902772" d="M178.06,368.8l-.086.086a.437.437,0,0,0,.309.745.54.54,0,0,0,.395-.214.437.437,0,1,0-.618-.617Zm0,0" transform="translate(-167.022 -347.209)"/>
      <path id="Trazado_902773" data-name="Trazado 902773" d="M28.378,13.255a.728.728,0,0,0,.728-.728V10.818a.728.728,0,0,0-.728-.728h-.793V9.362a1.63,1.63,0,1,0-.873,0v.728H23.758V5.071a1.683,1.683,0,0,0-.9-1.492.813.813,0,0,1-.434-.72V2.469a1.008,1.008,0,0,0,.9-1V1.006A1.008,1.008,0,0,0,22.321,0H17.407A1.007,1.007,0,0,0,16.4,1.006v.463a1.008,1.008,0,0,0,.9,1v.389a.812.812,0,0,1-.434.72,1.683,1.683,0,0,0-.9,1.492v.984a.437.437,0,1,0,.873,0V5.071a.812.812,0,0,1,.434-.72,1.683,1.683,0,0,0,.9-1.492V2.475h3.373v.384a1.683,1.683,0,0,0,.9,1.492.812.812,0,0,1,.434.72v5.019H16.844V7.8a.437.437,0,1,0-.873,0v2.289H13.635V5.071a1.683,1.683,0,0,0-.9-1.492.813.813,0,0,1-.434-.72V2.469a1.008,1.008,0,0,0,.9-1V1.006A1.007,1.007,0,0,0,12.2,0H7.285A1.007,1.007,0,0,0,6.279,1.006v.463a1.008,1.008,0,0,0,.9,1v.389a.812.812,0,0,1-.434.72,1.683,1.683,0,0,0-.9,1.492v.984a.437.437,0,0,0,.873,0V5.071a.813.813,0,0,1,.434-.72,1.683,1.683,0,0,0,.9-1.492V2.475h3.373v.384a1.683,1.683,0,0,0,.9,1.492.813.813,0,0,1,.434.72V10.09H6.721V7.8a.437.437,0,1,0-.873,0V10.09H2.894V9.362a1.629,1.629,0,1,0-.873,0v.728H1.228a.728.728,0,0,0-.728.728v1.709a.728.728,0,0,0,.728.728h.793v9.457H1.228a.728.728,0,0,0-.728.728v1.709a.728.728,0,0,0,.728.728h.793V26.6a1.63,1.63,0,1,0,.873,0v-.728H22.108a.437.437,0,1,0,0-.873H1.374V23.585H28.232V25H23.855a.437.437,0,0,0,0,.873h2.857V26.6a1.63,1.63,0,1,0,.873,0v-.728h.793a.728.728,0,0,0,.728-.728V23.439a.728.728,0,0,0-.728-.728h-.793V13.255ZM26.392,7.792a.757.757,0,1,1,1.193.618V7.792a.437.437,0,1,0-.873,0v.618A.756.756,0,0,1,26.392,7.792ZM17.407,1.6a.133.133,0,0,1-.133-.133V1.006a.133.133,0,0,1,.133-.133h4.914a.133.133,0,0,1,.133.133v.463a.133.133,0,0,1-.133.133ZM7.285,1.6a.133.133,0,0,1-.133-.133V1.006A.133.133,0,0,1,7.285.873H12.2a.133.133,0,0,1,.133.133v.463A.133.133,0,0,1,12.2,1.6ZM1.7,7.792a.757.757,0,1,1,1.193.618V7.792a.437.437,0,1,0-.873,0V8.41a.757.757,0,0,1-.32-.618ZM3.214,28.174a.757.757,0,1,1-1.193-.618v.618a.437.437,0,1,0,.873,0v-.617a.756.756,0,0,1,.32.618Zm24.691,0a.757.757,0,1,1-1.193-.618v.617a.437.437,0,1,0,.873,0v-.618A.756.756,0,0,1,27.9,28.174ZM1.374,10.963H28.232v1.418H1.374Zm6.805,5.351V14.96h4.58v1.354Zm3.526.873.847,1.721H8.387l.847-1.721Zm-3.752,5.05-.32-.921a1.311,1.311,0,0,1,.062-1l.262-.533h5.024l.262.533a1.311,1.311,0,0,1,.062,1l-.32.921-.01.026a.705.705,0,0,1-.656.447H8.62a.706.706,0,0,1-.666-.474Zm9.905-4.959v-.99h5.22v.99Zm.534.873h4.152v2.1H18.393Zm0,4.56V21.126h4.152v1.586Zm8.319,0H23.418V18.126a.729.729,0,0,0,.534-.7V16.144a.728.728,0,0,0-.728-.728H17.713a.729.729,0,0,0-.728.728v1.281a.729.729,0,0,0,.534.7v4.586H13.731l.007-.015h0l.013-.027v0c.019-.042.037-.085.053-.129l.005-.015.32-.921a2.189,2.189,0,0,0-.1-1.674l-1.348-2.742H12.9a.728.728,0,0,0,.728-.728V14.815a.728.728,0,0,0-.728-.728H8.034a.728.728,0,0,0-.728.728V16.46a.728.728,0,0,0,.728.728H8.26L7.037,19.675l-.125.254a2.19,2.19,0,0,0-.1,1.674l.32.921.016.044q.019.05.041.1v0L7.2,22.7h0l.007.015H2.894V13.255H26.712Zm0,0"/>
    </g>
  </g>
</svg>
