<svg xmlns="http://www.w3.org/2000/svg" width="56" height="56" viewBox="0 0 56 56">
  <g id="Grupo_1106426" data-name="Grupo 1106426" transform="translate(-180 -5100)">
    <circle id="Elipse_12297" data-name="Elipse 12297" cx="28" cy="28" r="28" transform="translate(180 5100)" fill="#faf8f2"/>
    <path id="Elipse_12297_-_Contorno" data-name="Elipse 12297 - Contorno" d="M28,2A26.007,26.007,0,0,0,17.88,51.958,26.007,26.007,0,0,0,38.12,4.042,25.835,25.835,0,0,0,28,2m0-2A28,28,0,1,1,0,28,28,28,0,0,1,28,0Z" transform="translate(180 5100)" fill="#d0b57a"/>
    <g id="lavanderia" transform="translate(146.839 5111)">
      <g id="Grupo_1106424" data-name="Grupo 1106424" transform="translate(47.651 8.917)">
        <path id="Trazado_902594" data-name="Trazado 902594" d="M80.136,144.118a.534.534,0,0,1-.054.692l-1.817,1.265c-.209.209-1.215.749-1.423.54l-1.05-1.05a.325.325,0,0,0-.555.23l-.651,14.481c0,.359-9.286.651-9.645.651H60.989a.651.651,0,0,1-.651-.651V145.8a.325.325,0,0,0-.556-.23l-1.715,1.715a.534.534,0,0,1-.755,0l-2.471-2.471a.534.534,0,0,1-.054-.692l5.144-5.545a4.881,4.881,0,0,1,3.579-1.562h.315l4.373.619,3.549-.619a4.113,4.113,0,0,1,3.015,1.316Z" transform="translate(-54.686 -137.011)" fill="#d0b57a"/>
        <path id="Trazado_902595" data-name="Trazado 902595" d="M331.106,286.474a.651.651,0,0,1-.651.651h1.952a.651.651,0,0,0,.651-.651V271.993h-.976a.976.976,0,0,0-.976.976Z" transform="translate(-312.507 -263.208)" fill="#a79162"/>
        <g id="Grupo_1106423" data-name="Grupo 1106423" transform="translate(17.16 0)">
          <path id="Trazado_902596" data-name="Trazado 902596" d="M327.291,144.118l-5.144-5.545a4.881,4.881,0,0,0-3.578-1.561h-.219a5.087,5.087,0,0,1,1.621,1.168l5.364,5.782a.557.557,0,0,1-.056.722l-1.932,1.932.665.665a.534.534,0,0,0,.755,0l2.471-2.471A.534.534,0,0,0,327.291,144.118Z" transform="translate(-318.35 -137.011)" fill="#a79162"/>
        </g>
        <path id="Trazado_902597" data-name="Trazado 902597" d="M203.06,137.011a3.961,3.961,0,1,1-7.922,0Z" transform="translate(-185.997 -137.011)" fill="#a79162"/>
        <path id="Trazado_902598" data-name="Trazado 902598" d="M200.227,385.863l-6.219-.651-7.3.651a1.778,1.778,0,1,0,0,3.556l6.76.651,6.76-.651a1.778,1.778,0,0,0,0-3.556Z" transform="translate(-176.453 -369.059)" fill="#1d98c6"/>
        <path id="Trazado_902599" data-name="Trazado 902599" d="M401.944,385.863l-.262-.651-1.69.651a1.778,1.778,0,1,1,0,3.556l1.3.065.651-.065a1.778,1.778,0,1,0,0-3.556Z" transform="translate(-377.519 -369.059)" fill="#177a9f"/>
        <path id="Trazado_902600" data-name="Trazado 902600" d="M200.227,449.856h-13.52a1.778,1.778,0,1,0,0,3.556h13.52a1.778,1.778,0,1,0,0-3.556Z" transform="translate(-176.453 -429.496)" fill="#00aa9d"/>
        <path id="Trazado_902601" data-name="Trazado 902601" d="M200.227,340.569h-13.52a1.778,1.778,0,0,0,0,3.556h13.52a1.778,1.778,0,1,0,0-3.556Z" transform="translate(-176.453 -327.321)" fill="#ff8636"/>
        <path id="Trazado_902602" data-name="Trazado 902602" d="M401.944,449.856h-1.952a1.778,1.778,0,0,1,0,3.556h1.952a1.778,1.778,0,0,0,0-3.556Z" transform="translate(-377.519 -429.496)" fill="#008379"/>
        <path id="Trazado_902603" data-name="Trazado 902603" d="M401.944,340.569h-1.952a1.778,1.778,0,0,1,0,3.556h1.952a1.778,1.778,0,0,0,0-3.556Z" transform="translate(-377.519 -327.321)" fill="#cc6b2b"/>
      </g>
      <g id="Grupo_1106425" data-name="Grupo 1106425" transform="translate(47.161 0)">
        <path id="Trazado_902604" data-name="Trazado 902604" d="M155.572,204.545a2.269,2.269,0,0,0-2.266-2.266h-3.387V198.7l1.437,1.438a1.022,1.022,0,0,0,1.445,0l2.471-2.471a1.017,1.017,0,0,0,.1-1.325.492.492,0,0,0-.036-.044l-2.749-2.964a.488.488,0,0,0-.716.664l2.719,2.931a.046.046,0,0,1-.011.048l-2.471,2.471a.046.046,0,0,1-.065,0l-1.712-1.712a.8.8,0,0,0-.877-.195.819.819,0,0,0-.515.767v3.975h-2.734a.488.488,0,1,0,0,.976h7.1a1.29,1.29,0,1,1,0,2.58H139.135a1.29,1.29,0,1,1,0-2.58h4.947a.488.488,0,0,0,0-.976h-4.947a2.265,2.265,0,0,0-1.4,4.044,2.262,2.262,0,0,0,0,3.556,2.261,2.261,0,0,0-.459,3.068h-2.089a.163.163,0,0,1-.163-.163v-3.913a.488.488,0,1,0-.976,0v3.913a1.14,1.14,0,0,0,1.139,1.139h18.122a2.265,2.265,0,0,0,1.4-4.044,2.262,2.262,0,0,0,0-3.556A2.263,2.263,0,0,0,155.572,204.545Zm-.976,7.113a1.291,1.291,0,0,1-1.29,1.29H139.135a1.29,1.29,0,1,1,0-2.58h14.171A1.291,1.291,0,0,1,154.6,211.658Zm0-3.556a1.292,1.292,0,0,1-1.29,1.29H139.135a1.29,1.29,0,0,1,0-2.58h14.171A1.292,1.292,0,0,1,154.6,208.1Z" transform="translate(-128.39 -180.602)"/>
        <path id="Trazado_902605" data-name="Trazado 902605" d="M53.912,9.084a5.358,5.358,0,0,0-1.371,1.062L47.4,15.692a.492.492,0,0,0-.036.044,1.017,1.017,0,0,0,.1,1.325l2.471,2.471a1.023,1.023,0,0,0,1.445,0l1.437-1.438v8.048a.488.488,0,1,0,.976,0V17.7a.814.814,0,0,0-1.389-.575l-1.715,1.715a.046.046,0,0,1-.065,0l-2.471-2.471a.046.046,0,0,1-.011-.048l5.114-5.513a4.406,4.406,0,0,1,3.076-1.4,4.448,4.448,0,0,0,8.843,0,4.406,4.406,0,0,1,3.076,1.4l.971,1.047a.488.488,0,0,0,.716-.664l-.971-1.047a5.359,5.359,0,0,0-1.371-1.062.482.482,0,0,0-.053-.031l-6.3-3.175V5.211a2.286,2.286,0,0,0,2.12-2.277V2.609a2.609,2.609,0,0,0-5.217,0,.488.488,0,1,0,.976,0,1.632,1.632,0,1,1,3.265,0v.325a1.308,1.308,0,0,1-1.307,1.307.814.814,0,0,0-.814.814v.823Zm6.841-2.359,3.381,1.7H57.372Zm0,5.665a3.478,3.478,0,0,1-3.438-2.985h6.876A3.478,3.478,0,0,1,60.753,12.39Z" transform="translate(-47.161 0)"/>
      </g>
    </g>
  </g>
</svg>
