<svg xmlns="http://www.w3.org/2000/svg" width="56" height="56" viewBox="0 0 56 56">
  <g id="Grupo_1106488" data-name="Grupo 1106488" transform="translate(-180 -6471)">
    <g id="Grupo_1106433" data-name="Grupo 1106433" transform="translate(0 1371)">
      <circle id="Elipse_12297" data-name="Elipse 12297" cx="28" cy="28" r="28" transform="translate(180 5100)" fill="#faf8f2"/>
      <path id="Elipse_12297_-_Contorno" data-name="Elipse 12297 - Contorno" d="M28,2A26.007,26.007,0,0,0,17.88,51.958,26.007,26.007,0,0,0,38.12,4.042,25.835,25.835,0,0,0,28,2m0-2A28,28,0,1,1,0,28,28,28,0,0,1,28,0Z" transform="translate(180 5100)" fill="#d0b57a"/>
    </g>
    <g id="cocinero" transform="translate(142.578 6482)">
      <path id="Trazado_902645" data-name="Trazado 902645" d="M235.931,350.758c-1.26-2.182-6.1-.573-5.925,2.112l-8.912,5.146a1.134,1.134,0,0,0,1.136,1.962c.915-.528.158-.094,4.329-2.48h0c3.041-1.693.687-.417,4.581-2.664C233.379,356.326,237.191,352.94,235.931,350.758Z" transform="translate(-157.769 -326.292)" fill="#fcd170"/>
      <path id="Trazado_902646" data-name="Trazado 902646" d="M222.19,358.639l8.912-5.146c-.135-2.092,2.785-3.529,4.646-3.033-1.537-1.76-5.885-.14-5.722,2.394L221.114,358a1.134,1.134,0,0,0,.625,2.112A1.133,1.133,0,0,1,222.19,358.639Z" transform="translate(-157.789 -326.275)" fill="#f9a832"/>
      <path id="Trazado_902647" data-name="Trazado 902647" d="M86.408,11.381a5.929,5.929,0,0,0-10.817.016,5.925,5.925,0,1,0-1.549,11.66v5.927a1.088,1.088,0,0,0,1.088,1.088H86.738a1.088,1.088,0,0,0,1.088-1.088V23.059a5.925,5.925,0,1,0-1.419-11.678Z" transform="translate(-15.631 -7.361)" fill="#d9f2fc"/>
      <path id="Trazado_902648" data-name="Trazado 902648" d="M157.264,240.728v-5.149c0-.449-.241-.759-.8-.84h0a5.913,5.913,0,0,1-.809-.177v5.9a1.088,1.088,0,0,0,1.088,1.088h.9A1.085,1.085,0,0,1,157.264,240.728Z" transform="translate(-97.24 -218.836)" fill="#b2ddea"/>
      <path id="Trazado_902649" data-name="Trazado 902649" d="M146.861,398.625c.124.109-.5-.264,8.9,5.166a1.134,1.134,0,1,0,1.134-1.963c-9.311-5.376-8.766-5.074-8.926-5.127Z" transform="translate(-89.04 -370.105)" fill="#ef6131"/>
      <path id="Trazado_902650" data-name="Trazado 902650" d="M156.354,402.815c-9.385-5.418-8.777-5.055-8.9-5.166l.543-.94-.021-.008-1.111,1.924c.124.109-.5-.264,8.9,5.166a1.134,1.134,0,0,0,1.7-.964A1.132,1.132,0,0,1,156.354,402.815Z" transform="translate(-89.041 -370.104)" fill="#e0451b"/>
      <path id="Trazado_902651" data-name="Trazado 902651" d="M155.651,297.725v1.663a1.088,1.088,0,0,0,1.088,1.088h11.609a1.088,1.088,0,0,0,1.088-1.088v-1.663Z" transform="translate(-97.241 -277.765)" fill="#88d2ff"/>
      <path id="Trazado_902652" data-name="Trazado 902652" d="M157.264,299.656v-1.932H155.65v1.663a1.088,1.088,0,0,0,1.088,1.088h.9A1.085,1.085,0,0,1,157.264,299.656Z" transform="translate(-97.24 -277.764)" fill="#4bb3e8"/>
      <path id="Trazado_902653" data-name="Trazado 902653" d="M75.591,11.281a5.925,5.925,0,1,0-1.652,11.658,5.926,5.926,0,0,1-.575-11.091h0a6.691,6.691,0,0,1,3.225-.54h0a.967.967,0,0,0,1.034-.528A5.912,5.912,0,0,1,82.78,8.039,5.926,5.926,0,0,0,75.591,11.281Z" transform="translate(-15.631 -7.245)" fill="#b2ddea"/>
      <g id="Grupo_1106487" data-name="Grupo 1106487" transform="translate(51.423 0)">
        <path id="Trazado_902654" data-name="Trazado 902654" d="M65.624,16.182V21.6a1.594,1.594,0,0,0,1.593,1.593h7.536a.5.5,0,1,0,0-1.009H67.216a.585.585,0,0,1-.572-.466,10.314,10.314,0,0,1-.012-1.276H79.406V21.6a.584.584,0,0,1-.584.584h-2.3a.5.5,0,0,0,0,1.009h2.3A1.594,1.594,0,0,0,80.415,21.6V16.188a6.438,6.438,0,0,0,5.924-6.422s0-.009,0-.014a6.435,6.435,0,0,0-7.567-6.327A6.429,6.429,0,0,0,67.4,3.437,6.436,6.436,0,0,0,59.76,9.752s0,.009,0,.014,0,.009,0,.013A6.437,6.437,0,0,0,65.624,16.182Zm1.54-9.251a.5.5,0,0,0,.5-.5,5.42,5.42,0,0,1,10.84,0,.5.5,0,1,0,1.009,0,6.4,6.4,0,0,0-.334-2.045c.19-.026.459-.029.65-.035.049.016-.055,0,0,0a5.5,5.5,0,0,1,5.5,5.419,5.5,5.5,0,0,1-5.5,5.419c-.055,0,.049-.016,0,0a5.725,5.725,0,0,1-2.22-.5.5.5,0,1,0-.428.913,6.355,6.355,0,0,0,2.223.586v3.245H76.864V17.852a.5.5,0,1,0-1.009,0v1.581H73.418V17.852a.5.5,0,0,0-1.009,0v1.581H69.973V17.852a.5.5,0,0,0-1.009,0v1.581H66.633V16.192a6.356,6.356,0,0,0,2.283-.59.5.5,0,0,0-.428-.913,5.723,5.723,0,0,1-2.275.5c-.05-.017.055,0,0,0a5.517,5.517,0,0,1-5.443-5.418,5.5,5.5,0,0,1,5.5-5.419c.054,0-.049.016,0,0a6.84,6.84,0,0,1,.723.045,6.4,6.4,0,0,0-.33,2.035A.5.5,0,0,0,67.164,6.931Z" transform="translate(-59.201 0)" fill="#231f20"/>
        <path id="Trazado_902655" data-name="Trazado 902655" d="M78.535,326.051c-1.488-2.577-6.713-.907-6.866,2.073l-6.138,3.544-5.959-3.44.065-.113a1.594,1.594,0,0,0-.583-2.175l-4.018-2.32a.5.5,0,1,0-.5.874l4.018,2.32a.584.584,0,0,1,.214.8l-.632,1.094-4.544-2.623a.5.5,0,1,0-.5.874l4.544,2.623-.632,1.094a.585.585,0,0,1-.8.214l-4.018-2.32a.5.5,0,1,0-.5.874c4.351,2.512,4.246,2.533,4.812,2.533a1.594,1.594,0,0,0,1.382-.8l.065-.113,4.512,2.605a1.639,1.639,0,0,0,1.388,2.508c.537,0,.774-.194,1.7-.727l.879.508a1.64,1.64,0,0,0,2.212-2.281l1.817-1.012a.5.5,0,1,0-.491-.881l-2.146,1.2-1.262-.729,5.887-3.4a.5.5,0,0,0,.251-.469c-.139-2.153,3.994-3.54,4.983-1.827s-2.282,4.6-4.074,3.4a.5.5,0,0,0-.532-.017l-1.639.947a.5.5,0,0,0,.5.874l1.386-.8C75.968,332.32,80.021,328.625,78.535,326.051Zm-14.388,9.033a.63.63,0,0,1-.826-.91l1.2.694Zm3.081.084c-.216,0-.209-.024-1.444-.737l-2.268-1.309h0l-5.078-2.932.629-1.09c9.267,5.351,8.675,4.925,8.769,5.276A.629.629,0,0,1,67.228,335.169Z" transform="translate(-51.423 -301.86)" fill="#231f20"/>
      </g>
    </g>
  </g>
</svg>
