<svg xmlns="http://www.w3.org/2000/svg" width="56" height="56" viewBox="0 0 56 56">
  <g id="Grupo_1130701" data-name="Grupo 1130701" transform="translate(-180 -5476)">
    <g id="Grupo_1106431" data-name="Grupo 1106431">
      <circle id="Elipse_12298" data-name="Elipse 12298" cx="28" cy="28" r="28" transform="translate(180 5476)" fill="#faf8f2"/>
      <path id="Elipse_12298_-_Contorno" data-name="Elipse 12298 - Contorno" d="M28,2A26.007,26.007,0,0,0,17.88,51.958,26.007,26.007,0,0,0,38.12,4.042,25.835,25.835,0,0,0,28,2m0-2A28,28,0,1,1,0,28,28,28,0,0,1,28,0Z" transform="translate(180 5476)" fill="#d0b57a"/>
      <g id="edificio" transform="translate(180.814 5488)">
        <path id="Trazado_902606" data-name="Trazado 902606" d="M140.111,109.775h-3.446a.255.255,0,0,0-.255.255v2.7a.255.255,0,0,0,.255.255h3.446a.255.255,0,0,0,.255-.255v-2.7A.255.255,0,0,0,140.111,109.775Z" transform="translate(-116.474 -102.926)" fill="#ccdfed"/>
        <path id="Trazado_902607" data-name="Trazado 902607" d="M126.555,157.664H114.336a.283.283,0,0,1-.283-.283V139.51a.283.283,0,0,1,.283-.283h12.219a.283.283,0,0,1,.283.283v17.872A.283.283,0,0,1,126.555,157.664Z" transform="translate(-95.511 -130.541)" fill="#e1effb"/>
        <path id="SVGCleanerId_0" d="M147.439,297.894h-9.085a.079.079,0,0,1-.079-.079v-1.378a.079.079,0,0,1,.079-.079h9.085a.079.079,0,0,1,.079.079v1.378A.079.079,0,0,1,147.439,297.894Z" transform="translate(-118.222 -277.869)" fill="#21d8de"/>
        <path id="SVGCleanerId_1" d="M147.439,238.08h-9.085a.079.079,0,0,1-.079-.079v-1.378a.079.079,0,0,1,.079-.079h9.085a.079.079,0,0,1,.079.079V238A.079.079,0,0,1,147.439,238.08Z" transform="translate(-118.222 -221.787)" fill="#21d8de"/>
        <path id="SVGCleanerId_2" d="M147.439,178.266h-9.085a.079.079,0,0,1-.079-.079V176.81a.079.079,0,0,1,.079-.079h9.085a.079.079,0,0,1,.079.079v1.378A.079.079,0,0,1,147.439,178.266Z" transform="translate(-118.222 -165.705)" fill="#21d8de"/>
        <path id="Trazado_902608" data-name="Trazado 902608" d="M140.111,109.775h-3.446a.255.255,0,0,0-.255.255v2.7a.255.255,0,0,0,.255.255h3.446a.255.255,0,0,0,.255-.255v-2.7A.255.255,0,0,0,140.111,109.775Z" transform="translate(-116.474 -102.926)" fill="#ccdfed"/>
        <path id="Trazado_902609" data-name="Trazado 902609" d="M126.555,157.664H114.336a.283.283,0,0,1-.283-.283V139.51a.283.283,0,0,1,.283-.283h12.219a.283.283,0,0,1,.283.283v17.872A.283.283,0,0,1,126.555,157.664Z" transform="translate(-95.511 -130.541)" fill="#e1effb"/>
        <g id="Grupo_1106427" data-name="Grupo 1106427" transform="translate(20.053 18.49)">
          <path id="SVGCleanerId_0_1_" d="M147.439,297.894h-9.085a.079.079,0,0,1-.079-.079v-1.378a.079.079,0,0,1,.079-.079h9.085a.079.079,0,0,1,.079.079v1.378A.079.079,0,0,1,147.439,297.894Z" transform="translate(-138.275 -296.359)" fill="#21d8de"/>
        </g>
        <g id="Grupo_1106428" data-name="Grupo 1106428" transform="translate(20.053 14.758)">
          <path id="SVGCleanerId_1_1_" d="M147.439,238.08h-9.085a.079.079,0,0,1-.079-.079v-1.378a.079.079,0,0,1,.079-.079h9.085a.079.079,0,0,1,.079.079V238A.079.079,0,0,1,147.439,238.08Z" transform="translate(-138.275 -236.545)" fill="#21d8de"/>
        </g>
        <g id="Grupo_1106429" data-name="Grupo 1106429" transform="translate(20.053 11.026)">
          <path id="SVGCleanerId_2_1_" d="M147.439,178.266h-9.085a.079.079,0,0,1-.079-.079V176.81a.079.079,0,0,1,.079-.079h9.085a.079.079,0,0,1,.079.079v1.378A.079.079,0,0,1,147.439,178.266Z" transform="translate(-138.275 -176.731)" fill="#21d8de"/>
        </g>
        <path id="Trazado_902610" data-name="Trazado 902610" d="M147.439,357.708h-9.085a.079.079,0,0,1-.079-.079v-1.378a.079.079,0,0,1,.079-.079h9.085a.079.079,0,0,1,.079.079v1.378A.079.079,0,0,1,147.439,357.708Z" transform="translate(-118.222 -333.951)" fill="#61aff6"/>
        <rect id="Rect치ngulo_403350" data-name="Rect치ngulo 403350" width="12.205" height="26.255" transform="translate(25.742 0.868)" fill="#ccdfed"/>
        <rect id="Rect치ngulo_403351" data-name="Rect치ngulo 403351" width="2.798" height="26.255" transform="translate(35.148 0.868)" fill="#b0c8d6"/>
        <path id="Trazado_902611" data-name="Trazado 902611" d="M229.721,7.315h-13.44a.143.143,0,0,0-.143.143v1.17a.143.143,0,0,0,.143.143h13.44a.143.143,0,0,0,.143-.143V7.458A.143.143,0,0,0,229.721,7.315Z" transform="translate(-191.227 -6.859)" fill="#e1effb"/>
        <g id="Grupo_1106430" data-name="Grupo 1106430" transform="translate(27.258 4.052)">
          <path id="Trazado_902612" data-name="Trazado 902612" d="M255.684,67.344H253.89a.122.122,0,0,1-.122-.122V65.07a.122.122,0,0,1,.122-.122h1.794a.122.122,0,0,1,.122.122v2.153A.122.122,0,0,1,255.684,67.344Z" transform="translate(-253.768 -64.948)" fill="#61aff6"/>
          <path id="Trazado_902613" data-name="Trazado 902613" d="M312.857,67.344h-1.794a.122.122,0,0,1-.122-.122V65.07a.122.122,0,0,1,.122-.122h1.794a.122.122,0,0,1,.122.122v2.153A.122.122,0,0,1,312.857,67.344Z" transform="translate(-307.374 -64.948)" fill="#61aff6"/>
          <path id="Trazado_902614" data-name="Trazado 902614" d="M370.029,67.344h-1.794a.122.122,0,0,1-.122-.122V65.07a.122.122,0,0,1,.122-.122h1.794a.122.122,0,0,1,.122.122v2.153A.122.122,0,0,1,370.029,67.344Z" transform="translate(-360.979 -64.948)" fill="#61aff6"/>
          <path id="Trazado_902615" data-name="Trazado 902615" d="M255.684,153.03H253.89a.122.122,0,0,1-.122-.122v-2.153a.122.122,0,0,1,.122-.122h1.794a.122.122,0,0,1,.122.122v2.153A.122.122,0,0,1,255.684,153.03Z" transform="translate(-253.768 -145.288)" fill="#61aff6"/>
          <path id="Trazado_902616" data-name="Trazado 902616" d="M312.857,153.03h-1.794a.122.122,0,0,1-.122-.122v-2.153a.122.122,0,0,1,.122-.122h1.794a.122.122,0,0,1,.122.122v2.153A.122.122,0,0,1,312.857,153.03Z" transform="translate(-307.374 -145.288)" fill="#61aff6"/>
          <path id="Trazado_902617" data-name="Trazado 902617" d="M370.029,153.03h-1.794a.122.122,0,0,1-.122-.122v-2.153a.122.122,0,0,1,.122-.122h1.794a.122.122,0,0,1,.122.122v2.153A.121.121,0,0,1,370.029,153.03Z" transform="translate(-360.979 -145.288)" fill="#61aff6"/>
          <path id="Trazado_902618" data-name="Trazado 902618" d="M255.684,238.716H253.89a.122.122,0,0,1-.122-.122v-2.153a.122.122,0,0,1,.122-.122h1.794a.122.122,0,0,1,.122.122v2.153A.122.122,0,0,1,255.684,238.716Z" transform="translate(-253.768 -225.628)" fill="#61aff6"/>
          <path id="Trazado_902619" data-name="Trazado 902619" d="M312.857,238.716h-1.794a.122.122,0,0,1-.122-.122v-2.153a.122.122,0,0,1,.122-.122h1.794a.122.122,0,0,1,.122.122v2.153A.122.122,0,0,1,312.857,238.716Z" transform="translate(-307.374 -225.628)" fill="#61aff6"/>
          <path id="Trazado_902620" data-name="Trazado 902620" d="M370.029,238.716h-1.794a.122.122,0,0,1-.122-.122v-2.153a.122.122,0,0,1,.122-.122h1.794a.122.122,0,0,1,.122.122v2.153A.122.122,0,0,1,370.029,238.716Z" transform="translate(-360.979 -225.628)" fill="#61aff6"/>
          <path id="Trazado_902621" data-name="Trazado 902621" d="M312.857,324.4h-1.794a.122.122,0,0,1-.122-.121v-2.153a.122.122,0,0,1,.122-.122h1.794a.121.121,0,0,1,.122.122v2.153A.122.122,0,0,1,312.857,324.4Z" transform="translate(-307.374 -305.968)" fill="#61aff6"/>
          <path id="Trazado_902622" data-name="Trazado 902622" d="M255.684,324.4H253.89a.121.121,0,0,1-.122-.121v-2.153a.122.122,0,0,1,.122-.122h1.794a.122.122,0,0,1,.122.122v2.153A.122.122,0,0,1,255.684,324.4Z" transform="translate(-253.768 -305.968)" fill="#61aff6"/>
          <path id="Trazado_902623" data-name="Trazado 902623" d="M370.029,324.4h-1.794a.122.122,0,0,1-.122-.121v-2.153a.122.122,0,0,1,.122-.122h1.794a.121.121,0,0,1,.122.122v2.153A.121.121,0,0,1,370.029,324.4Z" transform="translate(-360.979 -305.968)" fill="#61aff6"/>
        </g>
        <path id="Trazado_902624" data-name="Trazado 902624" d="M67.132,320.183l-6.091,4.077-1.815-.1-.071-.715a2.319,2.319,0,0,0-1.983-2.067l-4.864-.56a8.718,8.718,0,0,1-3.18-1.107h0a8.718,8.718,0,0,0-4.4-1.193H41.218v8l9.268,3.51a2.522,2.522,0,0,0,1.078.072h.006l9.331-1.345a4.129,4.129,0,0,0,1.959-.878l6.031-5.424a1.44,1.44,0,0,0,.234-1.887h0A1.44,1.44,0,0,0,67.132,320.183Z" transform="translate(-27.221 -298.644)" fill="#fed9a8"/>
        <path id="Trazado_902625" data-name="Trazado 902625" d="M69.205,353.535l-5.961,5.018a5.1,5.1,0,0,1-2.221.878l-9.453.676h-.006a2.523,2.523,0,0,1-1.078-.072l-9.268-3.51v2.829l9.268,3.51a2.661,2.661,0,0,0,.535.094q.068,0,.136.006a2.363,2.363,0,0,0,.407-.028h.006L60.9,361.59a4.13,4.13,0,0,0,.659-.162l.128-.045a4.126,4.126,0,0,0,.612-.286l.117-.069a4.154,4.154,0,0,0,.443-.315l6.031-5.424A1.44,1.44,0,0,0,69.205,353.535Z" transform="translate(-27.221 -331.478)" fill="#f4c892"/>
        <path id="Trazado_902626" data-name="Trazado 902626" d="M22.038,301.545H20.65A1.149,1.149,0,0,1,19.5,300.4V290.127a1.149,1.149,0,0,1,1.149-1.149h1.388a1.149,1.149,0,0,1,1.149,1.149V300.4A1.149,1.149,0,0,1,22.038,301.545Z" transform="translate(-6.859 -270.948)" fill="#2d5871"/>
        <path id="Trazado_902627" data-name="Trazado 902627" d="M393.943,7.315h-2.655V8.771h2.655a.143.143,0,0,0,.143-.143V7.458A.143.143,0,0,0,393.943,7.315Z" transform="translate(-355.45 -6.859)" fill="#ccdfed"/>
        <path id="Trazado_902628" data-name="Trazado 902628" d="M49.736,288.977h-.694v12.567h.694a1.149,1.149,0,0,0,1.149-1.149V290.126A1.149,1.149,0,0,0,49.736,288.977Z" transform="translate(-34.557 -270.948)" fill="#1d4859"/>
        <path id="Trazado_902629" data-name="Trazado 902629" d="M247.032,60.942h1.794a.579.579,0,0,0,.578-.578V58.211a.579.579,0,0,0-.578-.578h-1.794a.579.579,0,0,0-.578.578v2.153A.578.578,0,0,0,247.032,60.942Zm.335-2.4h1.124v1.483h-1.124Z" transform="translate(-219.652 -54.037)"/>
        <path id="Trazado_902630" data-name="Trazado 902630" d="M304.2,60.942H306a.579.579,0,0,0,.578-.578V58.211a.579.579,0,0,0-.578-.578H304.2a.579.579,0,0,0-.578.578v2.153A.578.578,0,0,0,304.2,60.942Zm.335-2.4h1.124v1.483H304.54Z" transform="translate(-273.258 -54.037)"/>
        <path id="Trazado_902631" data-name="Trazado 902631" d="M361.377,60.942h1.794a.579.579,0,0,0,.578-.578V58.211a.579.579,0,0,0-.578-.578h-1.794a.579.579,0,0,0-.578.578v2.153A.579.579,0,0,0,361.377,60.942Zm.335-2.4h1.124v1.483h-1.124Z" transform="translate(-326.863 -54.037)"/>
        <path id="Trazado_902632" data-name="Trazado 902632" d="M247.032,146.627h1.794a.579.579,0,0,0,.578-.578V143.9a.579.579,0,0,0-.578-.578h-1.794a.579.579,0,0,0-.578.578v2.153A.578.578,0,0,0,247.032,146.627Zm.335-2.4h1.124v1.483h-1.124Z" transform="translate(-219.652 -134.376)"/>
        <path id="Trazado_902633" data-name="Trazado 902633" d="M304.2,146.627H306a.579.579,0,0,0,.578-.578V143.9a.579.579,0,0,0-.578-.578H304.2a.579.579,0,0,0-.578.578v2.153A.578.578,0,0,0,304.2,146.627Zm.335-2.4h1.124v1.483H304.54Z" transform="translate(-273.258 -134.376)"/>
        <path id="Trazado_902634" data-name="Trazado 902634" d="M361.377,146.627h1.794a.579.579,0,0,0,.578-.578V143.9a.579.579,0,0,0-.578-.578h-1.794a.579.579,0,0,0-.578.578v2.153A.579.579,0,0,0,361.377,146.627Zm.335-2.4h1.124v1.483h-1.124Z" transform="translate(-326.863 -134.376)"/>
        <path id="Trazado_902635" data-name="Trazado 902635" d="M247.032,232.314h1.794a.579.579,0,0,0,.578-.578v-2.153a.579.579,0,0,0-.578-.578h-1.794a.579.579,0,0,0-.578.578v2.153A.578.578,0,0,0,247.032,232.314Zm.335-2.4h1.124V231.4h-1.124Z" transform="translate(-219.652 -214.717)"/>
        <path id="Trazado_902636" data-name="Trazado 902636" d="M304.2,232.314H306a.579.579,0,0,0,.578-.578v-2.153a.579.579,0,0,0-.578-.578H304.2a.579.579,0,0,0-.578.578v2.153A.579.579,0,0,0,304.2,232.314Zm.335-2.4h1.124V231.4H304.54Z" transform="translate(-273.258 -214.717)"/>
        <path id="Trazado_902637" data-name="Trazado 902637" d="M361.377,232.314h1.794a.579.579,0,0,0,.578-.578v-2.153a.579.579,0,0,0-.578-.578h-1.794a.579.579,0,0,0-.578.578v2.153A.579.579,0,0,0,361.377,232.314Zm.335-2.4h1.124V231.4h-1.124Z" transform="translate(-326.863 -214.717)"/>
        <path id="Trazado_902638" data-name="Trazado 902638" d="M361.377,318h1.794a.579.579,0,0,0,.578-.578V315.27a.579.579,0,0,0-.578-.578h-1.794a.579.579,0,0,0-.578.578v2.153A.579.579,0,0,0,361.377,318Zm.335-2.4h1.124v1.483h-1.124Z" transform="translate(-326.863 -295.058)"/>
        <path id="Trazado_902639" data-name="Trazado 902639" d="M42.282,21.668a1.9,1.9,0,0,0-2.625-.508L38.4,22V2.369h.091a.6.6,0,0,0,.6-.6V.6a.6.6,0,0,0-.6-.6H35.58a.456.456,0,1,0,0,.913h2.6v.543H25.367V.913h7.355a.456.456,0,1,0,0-.913H25.054a.6.6,0,0,0-.6.6v1.17a.6.6,0,0,0,.6.6h.232V8.23h-.937V7.1a.712.712,0,0,0-.711-.711H20.191a.712.712,0,0,0-.711.711V8.23h-.656a.74.74,0,0,0-.739.739V19.435q-.29-.018-.581-.019h-.719v-.237a1.608,1.608,0,0,0-1.606-1.606H13.792a1.608,1.608,0,0,0-1.606,1.606V25.7a.456.456,0,1,0,.913,0V19.179a.694.694,0,0,1,.693-.693h1.388a.694.694,0,0,1,.693.693V29.447a.694.694,0,0,1-.693.693H13.792a.694.694,0,0,1-.693-.693v-.9a.456.456,0,0,0-.913,0v.9a1.608,1.608,0,0,0,1.606,1.606h1.388a1.608,1.608,0,0,0,1.606-1.606v-.026L23.1,31.814l.038.012a3.047,3.047,0,0,0,.83.118,2.861,2.861,0,0,0,.446-.035h0l9.327-1.345h.007a4.591,4.591,0,0,0,2.175-.975l.017-.014,6.029-5.422A1.9,1.9,0,0,0,42.282,21.668ZM26.2,20.025V2.369H37.49V22.61l-3.8,2.541L32.42,25.08l-.032-.326a2.789,2.789,0,0,0-.157-.687q-.04-.109-.088-.213a2.763,2.763,0,0,0-.683-.912h1.283a.579.579,0,0,0,.578-.578V20.212a.579.579,0,0,0-.578-.578H30.947a.579.579,0,0,0-.578.578v2.143a2.82,2.82,0,0,0-.355-.074H30l-.251-.029V20.212a.579.579,0,0,0-.578-.578H27.38a.579.579,0,0,0-.578.578v1.7l-.6-.07V20.025Zm5.084,2V20.547h1.124V22.03Zm-2.443-1.483V22.03h-1l-.123-.014V20.547ZM20.393,7.305h3.043V8.23H20.393ZM19,9.143h6.287V10.57H20.131a.536.536,0,0,0-.535.535v1.378a.536.536,0,0,0,.535.535h5.154V14.3H20.131a.536.536,0,0,0-.535.535v1.378a.536.536,0,0,0,.535.535h5.154v1.284H20.131a.536.536,0,0,0-.535.535v1.09q-.116-.027-.233-.051l-.111-.022-.13-.024L19,19.539V9.143h0Zm6.287,2.34v.623H20.509v-.623Zm0,3.732v.623H20.509v-.623Zm-4.776,4.354v-.623h4.776v.623Zm4.776.913v1.254l-.141-.016a8.31,8.31,0,0,1-.871-.172,8.2,8.2,0,0,1-1.605-.59q-.1-.05-.2-.1-.165-.087-.328-.182c-.08-.047-.16-.091-.241-.135l-.052-.028-.048-.026Zm16.08,2.99-6.022,5.416a3.677,3.677,0,0,1-1.731.773l-9.328,1.345-.013,0a2.047,2.047,0,0,1-.864-.055l-6.623-2.508V20.329H17.5a8.244,8.244,0,0,1,.987.06l.2.026.029,0q.25.037.5.089l.153.033.076.018.2.05.036.009a8.265,8.265,0,0,1,1.5.57l.043.022q.092.046.182.095l.055.03c.073.04.145.08.217.122l0,0h0q.291.17.591.318a9.124,9.124,0,0,0,2.756.847h.012l.655.075.534.061,1.231.142.305.035h0l2.133.246a1.859,1.859,0,0,1,1.587,1.66L31.5,25l-8.554-.834a.456.456,0,1,0-.089.908l9.068.884a.447.447,0,0,0,.058.007l1.815.1h.026l.027,0,.031,0,.039-.007.03-.007c.014,0,.027-.009.04-.015l.025-.01A.46.46,0,0,0,34.074,26L38.2,23.234h0l1.966-1.315a.984.984,0,0,1,1.2,1.554Z"/>
      </g>
    </g>
  </g>
</svg>
