<svg xmlns="http://www.w3.org/2000/svg" width="56" height="56" viewBox="0 0 56 56">
  <g id="Grupo_1130699" data-name="Grupo 1130699" transform="translate(-180 -6857)">
    <g id="Grupo_1106344" data-name="Grupo 1106344">
      <g id="Grupo_1106316" data-name="Grupo 1106316" transform="translate(0 826)">
        <g id="Grupo_1106301" data-name="Grupo 1106301" transform="translate(0 1454)">
          <circle id="Elipse_12284" data-name="Elipse 12284" cx="28" cy="28" r="28" transform="translate(180 4577)" fill="#faf8f2"/>
          <path id="Elipse_12284_-_Contorno" data-name="Elipse 12284 - Contorno" d="M28,2A26.007,26.007,0,0,0,17.88,51.958,26.007,26.007,0,0,0,38.12,4.042,25.835,25.835,0,0,0,28,2m0-2A28,28,0,1,1,0,28,28,28,0,0,1,28,0Z" transform="translate(180 4577)" fill="#d0b57a"/>
        </g>
      </g>
      <g id="bacterias" transform="translate(192.872 6870)">
        <path id="Trazado_902488" data-name="Trazado 902488" d="M104.99,103.652a9.656,9.656,0,0,1-9.656,9.656c-.254,0-.513-.01-.762-.03a9.656,9.656,0,0,1,0-19.25c.249-.02.508-.03.762-.03a9.655,9.655,0,0,1,9.656,9.656Zm0,0" transform="translate(-80.46 -88.399)" fill="#00695c"/>
        <path id="Trazado_902489" data-name="Trazado 902489" d="M103.392,104.133c0-5.316-3.982-9.625-8.893-9.625s-8.894,4.309-8.894,9.625,3.982,9.625,8.894,9.625S103.392,109.449,103.392,104.133Zm0,0" transform="translate(-80.386 -88.88)" fill="#009688"/>
        <path id="Trazado_902490" data-name="Trazado 902490" d="M251.808,164.295a2.033,2.033,0,1,1-2.033-2.033A2.033,2.033,0,0,1,251.808,164.295Zm0,0" transform="translate(-232.868 -152.599)" fill="#00838f"/>
        <path id="Trazado_902491" data-name="Trazado 902491" d="M148.389,197.919a1.525,1.525,0,1,1-1.524-1.525A1.524,1.524,0,0,1,148.389,197.919Zm0,0" transform="translate(-136.564 -184.699)" fill="#00838f"/>
        <path id="Trazado_902492" data-name="Trazado 902492" d="M225.19,274.72a1.525,1.525,0,1,1-1.524-1.524A1.525,1.525,0,0,1,225.19,274.72Zm0,0" transform="translate(-208.791 -256.926)" fill="#00838f"/>
        <g id="Grupo_1106343" data-name="Grupo 1106343" transform="translate(0.645 0.515)">
          <path id="Trazado_902493" data-name="Trazado 902493" d="M225.19,10.185a1.525,1.525,0,1,1-1.524-1.525A1.524,1.524,0,0,1,225.19,10.185Zm0,0" transform="translate(-209.436 -8.66)" fill="#009688"/>
          <path id="Trazado_902494" data-name="Trazado 902494" d="M48.722,55.076a2.033,2.033,0,1,1-2.033-2.033A2.033,2.033,0,0,1,48.722,55.076Zm0,0" transform="translate(-42.522 -50.4)" fill="#009688"/>
          <path id="Trazado_902495" data-name="Trazado 902495" d="M11.349,236.064a1.27,1.27,0,1,1-1.27-1.271A1.27,1.27,0,0,1,11.349,236.064Zm0,0" transform="translate(-8.809 -221.326)" fill="#009688"/>
          <path id="Trazado_902496" data-name="Trazado 902496" d="M48.722,392.978a2.033,2.033,0,1,1-2.033-2.033A2.033,2.033,0,0,1,48.722,392.978Zm0,0" transform="translate(-42.522 -368.179)" fill="#009688"/>
          <path id="Trazado_902497" data-name="Trazado 902497" d="M225.19,453.919a1.525,1.525,0,1,1-1.524-1.525A1.524,1.524,0,0,1,225.19,453.919Zm0,0" transform="translate(-209.436 -425.968)" fill="#009688"/>
        </g>
        <path id="Trazado_902498" data-name="Trazado 902498" d="M386.624,392.978a2.033,2.033,0,1,1-2.033-2.033A2.033,2.033,0,0,1,386.624,392.978Zm0,0" transform="translate(-359.655 -367.664)" fill="#00695c"/>
        <path id="Trazado_902499" data-name="Trazado 902499" d="M455.588,232.052a1.525,1.525,0,1,1-1.525-1.525A1.525,1.525,0,0,1,455.588,232.052Zm0,0" transform="translate(-425.468 -216.799)" fill="#00695c"/>
        <path id="Trazado_902500" data-name="Trazado 902500" d="M386.624,55.076a2.033,2.033,0,1,1-2.033-2.033A2.033,2.033,0,0,1,386.624,55.076Zm0,0" transform="translate(-359.655 -49.885)" fill="#00695c"/>
        <path id="Trazado_902501" data-name="Trazado 902501" d="M239.715,255.217a.508.508,0,1,0,0,1.016,8.141,8.141,0,0,0,8.131-8.131.508.508,0,1,0-1.016,0,7.122,7.122,0,0,1-7.115,7.115Zm0,0" transform="translate(-224.841 -232.85)"/>
        <path id="Trazado_902502" data-name="Trazado 902502" d="M241.748,158.809a2.541,2.541,0,1,0-2.541-2.541A2.541,2.541,0,0,0,241.748,158.809Zm0-4.066a1.525,1.525,0,1,1-1.525,1.525,1.525,1.525,0,0,1,1.525-1.525Zm0,0" transform="translate(-224.841 -144.573)"/>
        <path id="Trazado_902503" data-name="Trazado 902503" d="M138.841,187.859a2.033,2.033,0,1,0,2.033,2.033A2.033,2.033,0,0,0,138.841,187.859Zm0,3.049a1.016,1.016,0,1,1,1.016-1.016A1.016,1.016,0,0,1,138.841,190.908Zm0,0" transform="translate(-128.54 -176.672)"/>
        <path id="Trazado_902504" data-name="Trazado 902504" d="M217.671,266.693a2.033,2.033,0,1,0-2.033,2.033A2.033,2.033,0,0,0,217.671,266.693Zm-3.049,0a1.016,1.016,0,1,1,1.017,1.016A1.017,1.017,0,0,1,214.622,266.693Zm0,0" transform="translate(-200.764 -248.899)"/>
        <path id="Trazado_902505" data-name="Trazado 902505" d="M145.655,290.346a.583.583,0,0,0-.168.107.535.535,0,0,0-.147.361.511.511,0,0,0,.041.193.518.518,0,0,0,.107.167.585.585,0,0,0,.168.107.509.509,0,0,0,.193.041.535.535,0,0,0,.361-.147.521.521,0,0,0,.107-.167.507.507,0,0,0,.041-.193.534.534,0,0,0-.147-.361A.519.519,0,0,0,145.655,290.346Zm0,0" transform="translate(-136.564 -273.02)"/>
        <path id="Trazado_902506" data-name="Trazado 902506" d="M188.323,341.546a.59.59,0,0,0-.168.107.534.534,0,0,0-.147.361.507.507,0,0,0,.041.193.525.525,0,0,0,.107.168.591.591,0,0,0,.168.107.507.507,0,0,0,.193.041.534.534,0,0,0,.361-.147.521.521,0,0,0,.107-.168.511.511,0,0,0,.041-.193.534.534,0,0,0-.147-.361A.518.518,0,0,0,188.323,341.546Zm0,0" transform="translate(-176.691 -321.171)"/>
        <path id="Trazado_902507" data-name="Trazado 902507" d="M28.6,13.22a2.033,2.033,0,0,0-1.961,1.524H25.012a10.108,10.108,0,0,0-2.612-6.3l1.135-1.135a2.541,2.541,0,1,0-.719-.719L21.684,7.727a10.107,10.107,0,0,0-6.3-2.612V4a2.033,2.033,0,1,0-1.016,0V5.115a10.109,10.109,0,0,0-6.3,2.612L6.932,6.592a2.537,2.537,0,1,0-.719.719L7.349,8.446a10.109,10.109,0,0,0-2.612,6.3H3.611a1.779,1.779,0,1,0,0,1.016H4.736a10.107,10.107,0,0,0,2.612,6.3L6.214,23.2a2.541,2.541,0,1,0,.719.718l1.135-1.135a10.106,10.106,0,0,0,6.3,2.61v1.115a2.033,2.033,0,1,0,1.016,0V25.391a10.107,10.107,0,0,0,6.3-2.612l1.135,1.135a2.541,2.541,0,1,0,.719-.719L22.4,22.062a10.107,10.107,0,0,0,2.612-6.3h1.623A2.029,2.029,0,1,0,28.6,13.22ZM23.858,4.113a1.519,1.519,0,1,1-.449,1.078,1.524,1.524,0,0,1,.449-1.078Zm-10-2.073a1.016,1.016,0,1,1,1.017,1.016A1.017,1.017,0,0,1,13.858,2.04ZM3.735,6.269a1.525,1.525,0,1,1,2.156,0,1.525,1.525,0,0,1-2.156,0ZM1.915,16.015a.762.762,0,1,1,.762-.762A.762.762,0,0,1,1.915,16.015ZM5.89,26.392a1.525,1.525,0,1,1,0-2.156,1.525,1.525,0,0,1,0,2.156Zm10,2.073a1.016,1.016,0,1,1-1.016-1.016A1.016,1.016,0,0,1,15.891,28.466Zm9.046-4.675a1.525,1.525,0,1,1-1.078.446,1.525,1.525,0,0,1,1.078-.446Zm-10.062.61a9.147,9.147,0,1,1,9.147-9.147A9.147,9.147,0,0,1,14.874,24.4ZM28.6,16.269a1.016,1.016,0,1,1,1.016-1.016A1.016,1.016,0,0,1,28.6,16.269Zm0,0"/>
      </g>
    </g>
  </g>
</svg>
