<svg xmlns="http://www.w3.org/2000/svg" width="120" height="120" viewBox="0 0 120 120">
  <g id="Grupo_1130695" data-name="Grupo 1130695" transform="translate(-180 -6141)">
    <circle id="Elipse_12286" data-name="Elipse 12286" cx="60" cy="60" r="60" transform="translate(180 6141)" fill="#177a9f"/>
    <g id="humedad" transform="translate(169.069 6162)">
      <g id="Grupo_1106305" data-name="Grupo 1106305" transform="translate(38.061 1.16)">
        <path id="Trazado_902417" data-name="Trazado 902417" d="M261.232,15.142l-5.16-7.216a.835.835,0,0,0-1.358,0l-5.16,7.216a7.178,7.178,0,1,0,11.677,0Z" transform="translate(-216.994 -7.577)" fill="#e1f1ff"/>
        <path id="Trazado_902418" data-name="Trazado 902418" d="M51.907,159.688a4.619,4.619,0,0,0,6.754-.733.763.763,0,0,1,1.227,0,4.619,4.619,0,0,0,7.429,0,.763.763,0,0,1,1.227,0,4.619,4.619,0,0,0,7.429,0,.763.763,0,0,1,1.227,0,4.623,4.623,0,0,0,5.463,1.531l7.478.346L83.348,144.7l-8.923-12.48a2.522,2.522,0,0,0-4.1,0l-15.59,21.8a22.048,22.048,0,0,0-2.936,5.667Z" transform="translate(-50.651 -112.247)" fill="#e1f1ff"/>
        <path id="Trazado_902419" data-name="Trazado 902419" d="M74.576,310.887a4.612,4.612,0,0,1-3.715-1.873.763.763,0,0,0-1.227,0,4.619,4.619,0,0,1-7.429,0,.763.763,0,0,0-1.227,0,4.619,4.619,0,0,1-7.429,0,.763.763,0,0,0-1.227,0,4.619,4.619,0,0,1-6.754.733,21.709,21.709,0,1,0,41.961,10.3l-3.859-9.166-7.346-.34A4.606,4.606,0,0,1,74.576,310.887Z" transform="translate(-44.314 -262.611)" fill="#cbe2ff"/>
        <path id="Trazado_902420" data-name="Trazado 902420" d="M255.558,15.143l2.837-3.968-2.323-3.248a.835.835,0,0,0-1.358,0l-5.16,7.216a7.193,7.193,0,0,0,8.84,10.71,7.192,7.192,0,0,1-2.837-10.71Z" transform="translate(-216.994 -7.578)" fill="#bbdafc"/>
        <path id="Trazado_902421" data-name="Trazado 902421" d="M51.907,159.689a4.619,4.619,0,0,0,6.754-.733.763.763,0,0,1,1.227,0,4.614,4.614,0,0,0,4.623,1.783,21.893,21.893,0,0,1,3.268-6.716L78.9,138.473l-4.471-6.253a2.522,2.522,0,0,0-4.1,0l-15.59,21.8a22.048,22.048,0,0,0-2.936,5.667Z" transform="translate(-50.651 -112.248)" fill="#bbdafc"/>
        <path id="Trazado_902422" data-name="Trazado 902422" d="M66.035,338.686a22.011,22.011,0,0,0,6.526-.971,21.8,21.8,0,0,1-14.29-26.94,4.613,4.613,0,0,1-4.722-1.761.763.763,0,0,0-1.227,0,4.619,4.619,0,0,1-6.754.733A21.716,21.716,0,0,0,66.035,338.686Z" transform="translate(-44.313 -262.611)" fill="#9dc6fb"/>
        <circle id="Elipse_12289" data-name="Elipse 12289" cx="17.147" cy="17.147" r="17.147" transform="translate(30.491 23.722)" fill="#9dc6fb"/>
        <path id="Trazado_902423" data-name="Trazado 902423" d="M251.419,179.7a17.153,17.153,0,0,1,13.193-16.688,17.147,17.147,0,1,0,0,33.377A17.154,17.154,0,0,1,251.419,179.7Z" transform="translate(-213.019 -138.829)" fill="#80b4fb"/>
      </g>
      <g id="Grupo_1106309" data-name="Grupo 1106309" transform="translate(36.931 0)">
        <path id="Trazado_902424" data-name="Trazado 902424" d="M256.489,16.695a8.294,8.294,0,0,0-.631-8.65L250.7.829a1.984,1.984,0,0,0-3.225,0l-5.16,7.216a8.325,8.325,0,1,0,14.176,8.65ZM244.18,9.38l4.9-6.859,4.9,6.859a5.93,5.93,0,0,1,.457,6.265,6.024,6.024,0,0,1-10.724,0A5.93,5.93,0,0,1,244.18,9.38Z" transform="translate(-209.555 0)"/>
        <path id="Trazado_902425" data-name="Trazado 902425" d="M58.666,126.46a1.373,1.373,0,0,1,2.235,0l2.725,3.811a1.148,1.148,0,0,0,1.868-1.336l-2.725-3.811a3.672,3.672,0,0,0-5.97,0l-15.59,21.8c-10.7,14.965-.145,36.116,18.575,36.116a22.767,22.767,0,0,0,22.415-18.4,18.3,18.3,0,1,0,6.415-36.021,1.148,1.148,0,1,0-.363,2.267A16,16,0,1,1,69.713,147.3a16.089,16.089,0,0,1,13.536-16.426,1.148,1.148,0,0,0-.349-2.269,18.291,18.291,0,0,0-12.2,7.609L68.61,133.3a1.148,1.148,0,1,0-1.868,1.336l2.666,3.728a18.314,18.314,0,0,0-.9,14.581,3.43,3.43,0,0,1-2.972-1.4,1.911,1.911,0,0,0-3.072,0,3.47,3.47,0,0,1-5.584,0,1.91,1.91,0,0,0-3.072,0,3.469,3.469,0,0,1-5.584,0,1.911,1.911,0,0,0-3.072,0,3.459,3.459,0,0,1-4.44.989,21.255,21.255,0,0,1,2.369-4.265ZM46.684,153.288a5.771,5.771,0,0,0,8.656,0,5.771,5.771,0,0,0,8.656,0,5.787,5.787,0,0,0,5.47,1.843,18.223,18.223,0,0,0,10.507,8.938,20.563,20.563,0,1,1-40.017-9.348A5.774,5.774,0,0,0,46.684,153.288Z" transform="translate(-36.931 -104.674)"/>
        <g id="Grupo_1106306" data-name="Grupo 1106306" transform="translate(50.067 42.08)">
          <path id="Trazado_902426" data-name="Trazado 902426" d="M368.016,282.909a4,4,0,1,1,4-4A4,4,0,0,1,368.016,282.909Zm0-5.7a1.7,1.7,0,1,0,1.7,1.7A1.7,1.7,0,0,0,368.016,277.207Z" transform="translate(-364.017 -274.911)"/>
        </g>
        <g id="Grupo_1106307" data-name="Grupo 1106307" transform="translate(39.561 33.832)">
          <path id="Trazado_902427" data-name="Trazado 902427" d="M299.384,229.023a4,4,0,1,1,4-4A4,4,0,0,1,299.384,229.023Zm0-5.7a1.7,1.7,0,1,0,1.7,1.7A1.7,1.7,0,0,0,299.384,223.321Z" transform="translate(-295.385 -221.025)"/>
        </g>
        <g id="Grupo_1106308" data-name="Grupo 1106308" transform="translate(43.67 32.403)">
          <path id="Trazado_902428" data-name="Trazado 902428" d="M323.378,230.795a1.149,1.149,0,0,1-1.03-1.652l8.214-16.806a1.148,1.148,0,0,1,2.063,1.008l-8.214,16.806a1.148,1.148,0,0,1-1.032.644Z" transform="translate(-322.23 -211.692)"/>
        </g>
      </g>
    </g>
  </g>
</svg>
