<svg xmlns="http://www.w3.org/2000/svg" width="56" height="56" viewBox="0 0 56 56">
  <g id="Grupo_1130697" data-name="Grupo 1130697" transform="translate(-180 -4577)">
    <g id="Grupo_1106298" data-name="Grupo 1106298">
      <circle id="Elipse_12284" data-name="Elipse 12284" cx="28" cy="28" r="28" transform="translate(180 4577)" fill="#faf8f2"/>
      <path id="Elipse_12284_-_Contorno" data-name="Elipse 12284 - Contorno" d="M28,2A26.007,26.007,0,0,0,17.88,51.958,26.007,26.007,0,0,0,38.12,4.042,25.835,25.835,0,0,0,28,2m0-2A28,28,0,1,1,0,28,28,28,0,0,1,28,0Z" transform="translate(180 4577)" fill="#d0b57a"/>
      <g id="Layer_x0020_1" transform="translate(190 4556.5)">
        <path id="Trazado_902388" data-name="Trazado 902388" d="M27.7,50.581a.793.793,0,0,1-.794-.794v-1.17a4.889,4.889,0,0,1-2.068-1.232c-.4.731-.648,1.441-1.274,1.441a.807.807,0,0,1-.689-1.212l.961-1.671a5.426,5.426,0,0,1-.313-.877A4.634,4.634,0,0,1,22,45.255l-.794,1.4a.8.8,0,0,1-1.4-.794l.543-.94a5.038,5.038,0,0,1-1.922-1.358,5.638,5.638,0,0,1-1.546.773.812.812,0,0,1-.4-1.5l1.107-.627a4.98,4.98,0,0,1-.313-2.59l-1.587-.439a.8.8,0,0,1,.418-1.546l1.671.46a4.92,4.92,0,0,1,1.232-1.546l-.627-2.36a.791.791,0,0,1,1.525-.418l.543,1.963a4.647,4.647,0,0,1,1.859-.313V33.328a.794.794,0,0,1,1.587,0v2.423a3.143,3.143,0,0,1,.71.334,3.041,3.041,0,0,1,.71-.752v-3.05a.794.794,0,0,1,1.587,0V34.6a3.763,3.763,0,0,1,1.671.1l1.3-2.214a.8.8,0,0,1,1.379.794l-1.3,2.235a3.074,3.074,0,0,1,.752.961l1.713-1a.8.8,0,0,1,.815,1.379L31.1,38.09a3.615,3.615,0,0,1-.334,1.546,1.4,1.4,0,0,1,.23.146l2.026-1.191a.8.8,0,0,1,.815,1.379l-1.629.94a4.663,4.663,0,0,1,.856,1.775l1.587-.418a.8.8,0,0,1,.4,1.546l-1.838.5a4.774,4.774,0,0,1-.856,2.36l.836.836a.8.8,0,0,1-1.128,1.128l-.794-.815a4.884,4.884,0,0,1-2.757,1v.961A.811.811,0,0,1,27.7,50.581Zm-3.509-7.436a.8.8,0,0,1,.794.773,3.326,3.326,0,1,0,4.366-3.175.807.807,0,0,1-.334-1.3,1.983,1.983,0,1,0-3.363-1.943.812.812,0,0,1-1.3.355A3.33,3.33,0,1,0,21.7,43.646C23.06,43.855,23.645,43.145,24.188,43.145Zm4.3,2.757a1.951,1.951,0,0,1-1.671-2.924,1.981,1.981,0,0,1,2.653-.71A1.957,1.957,0,0,1,28.491,45.9Zm0-2.3a.351.351,0,0,0-.167.648C28.825,44.545,29.076,43.6,28.491,43.6Zm-6.225-1.316a1.938,1.938,0,1,1,.961-3.614A1.955,1.955,0,0,1,22.267,42.289Zm0-2.277a.348.348,0,0,0-.167.648C22.6,40.952,22.851,40.012,22.267,40.012ZM10.924,60.357a6.317,6.317,0,0,1-3.05-1.274l-.188.209a2,2,0,1,1-1.128-1.128l.188-.209a6.217,6.217,0,0,1-1.253-3.029H3.822a2,2,0,1,1,0-1.608H5.494a6.217,6.217,0,0,1,1.253-3.029l-.188-.209a2,2,0,1,1,1.128-1.128l.188.209a6.291,6.291,0,0,1,3.05-1.253V46.236a1.994,1.994,0,1,1,1.587,0v1.671a6.217,6.217,0,0,1,3.029,1.253l.209-.209a2,2,0,1,1,1.128,1.128l-.209.209a6.244,6.244,0,0,1,1.274,3.029h1.671a2,2,0,1,1,0,1.608H17.943a6.244,6.244,0,0,1-1.274,3.029l.209.209a2,2,0,1,1-1.128,1.128l-.209-.209a6.244,6.244,0,0,1-3.029,1.274v1.671a1.994,1.994,0,1,1-1.587,0Zm.794-10.9A4.679,4.679,0,1,0,16.4,54.132,4.671,4.671,0,0,0,11.718,49.453Zm-.355,4.574a2.078,2.078,0,1,1,2.089-2.089A2.091,2.091,0,0,1,11.363,54.028Zm0-2.548a.47.47,0,0,0,0,.94A.47.47,0,1,0,11.363,51.479Zm.689,6.893A2.068,2.068,0,1,1,14.141,56.3,2.086,2.086,0,0,1,12.052,58.372Zm0-2.548a.481.481,0,0,0,0,.961A.481.481,0,0,0,12.052,55.824ZM6.1,48.513c.355-.355-.188-.94-.564-.564A.4.4,0,0,0,6.1,48.513ZM5.828,59.626a.4.4,0,0,0,0,.794A.4.4,0,0,0,5.828,59.626Zm11.781,0a.4.4,0,0,0,0,.794A.4.4,0,0,0,17.609,59.626Zm0-11.8a.408.408,0,0,0,0,.815A.408.408,0,0,0,17.609,47.824Zm-15.6,5.911a.4.4,0,0,0,0,.794A.4.4,0,0,0,2.005,53.735Zm9.713,9.713a.4.4,0,0,0,0,.794A.4.4,0,0,0,11.718,63.448Zm9.713-9.713a.4.4,0,0,0,0,.794A.4.4,0,0,0,21.431,53.735ZM11.718,44a.4.4,0,0,0,0,.794A.4.4,0,0,0,11.718,44Z" transform="translate(0 0)" fill="#000002" fill-rule="evenodd"/>
        <g id="Grupo_1106297" data-name="Grupo 1106297" transform="translate(1.614 44.001)">
          <path id="Trazado_902389" data-name="Trazado 902389" d="M825.007,813.815a.408.408,0,0,0,0-.815A.408.408,0,0,0,825.007,813.815Z" transform="translate(-809.012 -809.177)" fill="#ed3237" fill-rule="evenodd"/>
          <path id="Trazado_902390" data-name="Trazado 902390" d="M542.642,630.794a.4.4,0,0,0,0-.794A.4.4,0,0,0,542.642,630.794Z" transform="translate(-532.537 -630)" fill="#ed3237" fill-rule="evenodd"/>
          <path id="Trazado_902391" data-name="Trazado 902391" d="M260.153,813.872c.355-.355-.188-.94-.564-.564A.4.4,0,0,0,260.153,813.872Z" transform="translate(-255.667 -809.36)" fill="#ed3237" fill-rule="evenodd"/>
          <path id="Trazado_902392" data-name="Trazado 902392" d="M77.642,1096.794a.4.4,0,0,0,0-.794A.4.4,0,0,0,77.642,1096.794Z" transform="translate(-77.25 -1086.266)" fill="#ed3237" fill-rule="evenodd"/>
          <path id="Trazado_902393" data-name="Trazado 902393" d="M260.642,1378a.4.4,0,0,0,0,.794A.4.4,0,0,0,260.642,1378Z" transform="translate(-256.428 -1362.376)" fill="#ed3237" fill-rule="evenodd"/>
          <path id="Trazado_902394" data-name="Trazado 902394" d="M542.642,1561a.4.4,0,0,0,0,.794A.4.4,0,0,0,542.642,1561Z" transform="translate(-532.537 -1541.553)" fill="#ed3237" fill-rule="evenodd"/>
          <path id="Trazado_902395" data-name="Trazado 902395" d="M825.376,1378a.4.4,0,0,0,0,.794A.4.4,0,0,0,825.376,1378Z" transform="translate(-809.381 -1362.376)" fill="#ed3237" fill-rule="evenodd"/>
          <path id="Trazado_902396" data-name="Trazado 902396" d="M1008.376,1096a.4.4,0,0,0,0,.794A.4.4,0,0,0,1008.376,1096Z" transform="translate(-988.559 -1086.266)" fill="#ed3237" fill-rule="evenodd"/>
          <path id="Trazado_902397" data-name="Trazado 902397" d="M555.7,1196.961a.481.481,0,0,0,0-.961A.481.481,0,0,0,555.7,1196.961Z" transform="translate(-545.266 -1184.177)" fill="#ed3237" fill-rule="evenodd"/>
          <path id="Trazado_902398" data-name="Trazado 902398" d="M522.7,988.94a.47.47,0,0,0,0-.94A.47.47,0,0,0,522.7,988.94Z" transform="translate(-512.955 -980.522)" fill="#ed3237" fill-rule="evenodd"/>
          <path id="Trazado_902399" data-name="Trazado 902399" d="M343.413,893.486a2.078,2.078,0,1,1-2.089-2.068A2.095,2.095,0,0,1,343.413,893.486Zm2.945,2.193a4.679,4.679,0,1,0-4.679,4.679A4.685,4.685,0,0,0,346.358,895.679Zm-4.345.1a2.068,2.068,0,1,1-2.068,2.068A2.077,2.077,0,0,1,342.013,895.783Z" transform="translate(-331.574 -885.548)" fill="#ed3237" fill-rule="evenodd"/>
        </g>
        <path id="Trazado_902400" data-name="Trazado 902400" d="M1050.056,439a.348.348,0,0,0-.167.648C1050.39,439.94,1050.641,439,1050.056,439Z" transform="translate(-1027.79 -398.988)" fill="#9c3" fill-rule="evenodd"/>
        <path id="Trazado_902401" data-name="Trazado 902401" d="M1348.484,611a.351.351,0,0,0-.167.648C1348.818,611.94,1349.068,611,1348.484,611Z" transform="translate(-1319.992 -567.395)" fill="#9c3" fill-rule="evenodd"/>
        <path id="Trazado_902402" data-name="Trazado 902402" d="M908.76,260.83a1.981,1.981,0,0,1,2.653-.71,1.947,1.947,0,1,1-2.653.71Zm-1.838.94a3.326,3.326,0,1,0,4.366-3.175.807.807,0,0,1-.334-1.3,1.983,1.983,0,1,0-3.363-1.943.812.812,0,0,1-1.3.355,3.33,3.33,0,1,0-2.653,5.786c1.358.209,1.943-.5,2.486-.5A.8.8,0,0,1,906.922,261.77Zm-1.755-5.243a1.938,1.938,0,1,1-2.653.71A1.972,1.972,0,0,1,905.168,256.527Z" transform="translate(-881.94 -217.852)" fill="#9c3" fill-rule="evenodd"/>
      </g>
    </g>
  </g>
</svg>
