<svg xmlns="http://www.w3.org/2000/svg" width="56" height="56" viewBox="0 0 56 56">
  <g id="Grupo_1106391" data-name="Grupo 1106391" transform="translate(-180 -3969)">
    <circle id="Elipse_12294" data-name="Elipse 12294" cx="28" cy="28" r="28" transform="translate(180 3969)" fill="#faf8f2"/>
    <path id="Elipse_12294_-_Contorno" data-name="Elipse 12294 - Contorno" d="M28,2A26.007,26.007,0,0,0,17.88,51.958,26.007,26.007,0,0,0,38.12,4.042,25.835,25.835,0,0,0,28,2m0-2A28,28,0,1,1,0,28,28,28,0,0,1,28,0Z" transform="translate(180 3969)" fill="#d0b57a"/>
    <g id="humano" transform="translate(192 3981)">
      <g id="Grupo_1106389" data-name="Grupo 1106389" transform="translate(1.487 1.487)">
        <g id="Grupo_1106345" data-name="Grupo 1106345" transform="translate(3.948 2.924)">
          <path id="Trazado_902508" data-name="Trazado 902508" d="M14.876,9.95H10.1a2.437,2.437,0,0,1,4.776,0Z" transform="translate(-10.1 -8)" fill="#656d78"/>
        </g>
        <g id="Grupo_1106346" data-name="Grupo 1106346" transform="translate(12.233)">
          <path id="Trazado_902509" data-name="Trazado 902509" d="M31.876,3.95H27.1a2.437,2.437,0,0,1,4.776,0Z" transform="translate(-27.1 -2)" fill="#b27946"/>
        </g>
        <g id="Grupo_1106347" data-name="Grupo 1106347" transform="translate(20.519 2.924)">
          <path id="Trazado_902510" data-name="Trazado 902510" d="M47.18,8.1a2.44,2.44,0,0,1,1.7,1.852H44.1A2.437,2.437,0,0,1,46.488,8,2.5,2.5,0,0,1,47.18,8.1Z" transform="translate(-44.1 -8)" fill="#e6e9ed"/>
        </g>
        <g id="Grupo_1106348" data-name="Grupo 1106348" transform="translate(23.599 1.95)">
          <path id="Trazado_902511" data-name="Trazado 902511" d="M54.114,7.95A1.949,1.949,0,0,1,52.165,9.9h-.049a2.461,2.461,0,0,0,0-.975,2.44,2.44,0,0,0-1.7-1.852,1.952,1.952,0,0,1,3.694.877Z" transform="translate(-50.42 -6)" fill="#e6e9ed"/>
        </g>
        <g id="Grupo_1106349" data-name="Grupo 1106349" transform="translate(2.973 7.847)">
          <path id="Trazado_902512" data-name="Trazado 902512" d="M10,18.539A1.46,1.46,0,0,0,11.463,20H8.1A2.435,2.435,0,0,1,10,18.1Z" transform="translate(-8.1 -18.1)" fill="#b4dd7f"/>
        </g>
        <g id="Grupo_1106350" data-name="Grupo 1106350" transform="translate(6.336 7.847)">
          <path id="Trazado_902513" data-name="Trazado 902513" d="M18.4,20.23a5.175,5.175,0,0,0-.38,1.223A2.936,2.936,0,0,0,15.487,20H15a1.464,1.464,0,0,0,1.462-1.462V18.1A2.44,2.44,0,0,1,18.4,20.23Z" transform="translate(-15 -18.1)" fill="#b4dd7f"/>
        </g>
        <g id="Grupo_1106351" data-name="Grupo 1106351" transform="translate(22.907 7.847)">
          <path id="Trazado_902514" data-name="Trazado 902514" d="M52.412,20.488v.468A3.271,3.271,0,0,0,50.1,20H49a1.464,1.464,0,0,0,1.462-1.462V18.1A2.437,2.437,0,0,1,52.412,20.488Z" transform="translate(-49 -18.1)" fill="#b4dd7f"/>
        </g>
        <g id="Grupo_1106352" data-name="Grupo 1106352" transform="translate(19.51 7.847)">
          <path id="Trazado_902515" data-name="Trazado 902515" d="M45.427,20h-.122a3.28,3.28,0,0,0-2.856,1.662h0a5.274,5.274,0,0,0-.414-1.433,2.44,2.44,0,0,1,1.935-2.13v.439A1.46,1.46,0,0,0,45.427,20Z" transform="translate(-42.03 -18.1)" fill="#b4dd7f"/>
        </g>
        <g id="Grupo_1106353" data-name="Grupo 1106353" transform="translate(11.21 4.922)">
          <path id="Trazado_902516" data-name="Trazado 902516" d="M26.95,12.539A1.46,1.46,0,0,0,28.412,14,5.337,5.337,0,0,0,25,15.224v-.736A2.437,2.437,0,0,1,26.95,12.1Z" transform="translate(-25 -12.1)" fill="#ff826e"/>
        </g>
        <g id="Grupo_1106354" data-name="Grupo 1106354" transform="translate(14.621 4.922)">
          <path id="Trazado_902517" data-name="Trazado 902517" d="M35.412,14.488v.736A5.337,5.337,0,0,0,32,14a1.464,1.464,0,0,0,1.462-1.462V12.1a2.427,2.427,0,0,1,1.95,2.388Z" transform="translate(-32 -12.1)" fill="#ff826e"/>
        </g>
        <g id="Grupo_1106355" data-name="Grupo 1106355" transform="translate(0 19.363)">
          <path id="Trazado_902518" data-name="Trazado 902518" d="M5.572,43.485,6.713,45.6l1.136,2.11v3.9H2V45A3.349,3.349,0,0,1,3.34,42.32a3.3,3.3,0,0,1,1.287-.59Z" transform="translate(-2 -41.73)" fill="#ff826e"/>
        </g>
        <g id="Grupo_1106356" data-name="Grupo 1106356" transform="translate(5.849 23.535)">
          <path id="Trazado_902519" data-name="Trazado 902519" d="M15.95,52.1V56H14V52.1l.975-1.808v1.321a.489.489,0,0,0,.487.487Z" transform="translate(-14 -50.29)" fill="#ff826e"/>
        </g>
        <g id="Grupo_1106357" data-name="Grupo 1106357" transform="translate(4.713 21.932)">
          <path id="Trazado_902520" data-name="Trazado 902520" d="M12.318,47h1.623a5.08,5.08,0,0,0-.161,1.257V48.6l-.975,1.808L11.67,48.3Z" transform="translate(-11.67 -47)" fill="#e6e9ed"/>
        </g>
        <g id="Grupo_1106358" data-name="Grupo 1106358" transform="translate(4.874 19.982)">
          <path id="Trazado_902521" data-name="Trazado 902521" d="M12.975,43l1.608.8a4.716,4.716,0,0,0-.468,1.145H12.487L12,43.487Z" transform="translate(-12 -43)" fill="#ccd1d9"/>
        </g>
        <g id="Grupo_1106359" data-name="Grupo 1106359" transform="translate(3.572 20.47)">
          <path id="Trazado_902522" data-name="Trazado 902522" d="M11.119,45.462l-.648,1.3L9.33,44.648l1.3-.648Z" transform="translate(-9.33 -44)" fill="#fcd770"/>
        </g>
        <g id="Grupo_1106360" data-name="Grupo 1106360" transform="translate(5.849 19.008)">
          <path id="Trazado_902523" data-name="Trazado 902523" d="M15.462,41l1.452.292a4.773,4.773,0,0,0-1.306,1.486L14,41.975Z" transform="translate(-14 -41)" fill="#ffc729"/>
        </g>
        <g id="Grupo_1106361" data-name="Grupo 1106361" transform="translate(2.627 19.008)">
          <path id="Trazado_902524" data-name="Trazado 902524" d="M10.612,41.975l-.975.487-1.3.648L7.39,41.356a.359.359,0,0,1,.068-.019L9.149,41Z" transform="translate(-7.39 -41)" fill="#ffc729"/>
        </g>
        <g id="Grupo_1106362" data-name="Grupo 1106362" transform="translate(1.95 9.748)">
          <path id="Trazado_902525" data-name="Trazado 902525" d="M13.311,27.137a3.655,3.655,0,0,1-.677.868l-.346.331a2.3,2.3,0,0,0,.049-.487v-.916a1.954,1.954,0,0,0-1.477-1.891l-.322-.078,0,0a1.665,1.665,0,0,1-1.106.658L8.3,25.777a.979.979,0,0,0-.838.965v1.106a2.3,2.3,0,0,0,.049.487L7.165,28A3.723,3.723,0,0,1,6,25.29V22.975A.978.978,0,0,1,6.975,22h3.9A2.936,2.936,0,0,1,13.4,23.452a5.069,5.069,0,0,0-.093.984Z" transform="translate(-6 -22)" fill="#b27946"/>
        </g>
        <g id="Grupo_1106363" data-name="Grupo 1106363" transform="translate(19.924 9.748)">
          <path id="Trazado_902526" data-name="Trazado 902526" d="M48.787,26.742a.979.979,0,0,0-.838-.965l-1.126-.161a1.665,1.665,0,0,1-1.106-.658l0,0-.322.078a1.954,1.954,0,0,0-1.477,1.891v.916a2.3,2.3,0,0,0,.049.487L43.616,28a3.655,3.655,0,0,1-.677-.868v-2.7a5.09,5.09,0,0,0-.058-.775h0A3.28,3.28,0,0,1,45.741,22h1.218a3.295,3.295,0,0,1,3.29,3.29A3.723,3.723,0,0,1,49.084,28l-.346.331a2.3,2.3,0,0,0,.049-.487Z" transform="translate(-42.88 -22)" fill="#b27946"/>
        </g>
        <g id="Grupo_1106364" data-name="Grupo 1106364" transform="translate(23.394 19.363)">
          <path id="Trazado_902527" data-name="Trazado 902527" d="M53.9,51.609H50v-3.9l1.136-2.11,1.14-2.115.946-1.755A3.341,3.341,0,0,1,55.493,43.5a3.369,3.369,0,0,1,.356,1.5v6.609Z" transform="translate(-50 -41.73)" fill="#e6e9ed"/>
        </g>
        <g id="Grupo_1106365" data-name="Grupo 1106365" transform="translate(21.445 23.535)">
          <path id="Trazado_902528" data-name="Trazado 902528" d="M47.95,52.1V56H46V52.1h.487a.489.489,0,0,0,.487-.487V50.29Z" transform="translate(-46 -50.29)" fill="#e6e9ed"/>
        </g>
        <g id="Grupo_1106366" data-name="Grupo 1106366" transform="translate(22.258 21.932)">
          <path id="Trazado_902529" data-name="Trazado 902529" d="M49.293,47l.648,1.3-1.136,2.11L47.831,48.6v-.346A5.08,5.08,0,0,0,47.67,47Z" transform="translate(-47.67 -47)" fill="#fcd770"/>
        </g>
        <g id="Grupo_1106367" data-name="Grupo 1106367" transform="translate(21.786 19.982)">
          <path id="Trazado_902530" data-name="Trazado 902530" d="M49.283,43.487,48.8,44.95H47.168A4.716,4.716,0,0,0,46.7,43.8l1.608-.8Z" transform="translate(-46.7 -43)" fill="#ffc729"/>
        </g>
        <g id="Grupo_1106368" data-name="Grupo 1106368" transform="translate(23.881 20.47)">
          <path id="Trazado_902531" data-name="Trazado 902531" d="M52.789,44.648l-1.14,2.115L51,45.462,51.487,44Z" transform="translate(-51 -44)" fill="#ff826e"/>
        </g>
        <g id="Grupo_1106369" data-name="Grupo 1106369" transform="translate(23.394 19.008)">
          <path id="Trazado_902532" data-name="Trazado 902532" d="M53.222,41.356l-.946,1.755-1.3-.648L50,41.975,51.462,41l1.691.336A.359.359,0,0,1,53.222,41.356Z" transform="translate(-50 -41)" fill="#fc6e51"/>
        </g>
        <g id="Grupo_1106370" data-name="Grupo 1106370" transform="translate(20.48 19.008)">
          <path id="Trazado_902533" data-name="Trazado 902533" d="M46.935,41.975l-1.608.8a4.773,4.773,0,0,0-1.306-1.486L45.472,41Z" transform="translate(-44.02 -41)" fill="#fc6e51"/>
        </g>
        <g id="Grupo_1106371" data-name="Grupo 1106371" transform="translate(7.798 25.344)">
          <path id="Trazado_902534" data-name="Trazado 902534" d="M20.924,56.437V57.9H18V54h2.052a5.849,5.849,0,0,0,.292.984Z" transform="translate(-18 -54)" fill="#f0d0b4"/>
        </g>
        <g id="Grupo_1106372" data-name="Grupo 1106372" transform="translate(18.52 25.344)">
          <path id="Trazado_902535" data-name="Trazado 902535" d="M42.924,54v3.9H40V56.437l.58-1.452A5.849,5.849,0,0,0,40.872,54Z" transform="translate(-40 -54)" fill="#f0d0b4"/>
        </g>
        <g id="Grupo_1106373" data-name="Grupo 1106373" transform="translate(6.823 18.311)">
          <path id="Trazado_902536" data-name="Trazado 902536" d="M19.027,46.6H16.487A.489.489,0,0,1,16,46.115V44.449a5.08,5.08,0,0,1,.161-1.257h0a4.716,4.716,0,0,1,.468-1.145,4.773,4.773,0,0,1,1.306-1.486,3.408,3.408,0,0,1,.5-.327,4.9,4.9,0,0,1,1.691-.6l.4-.063,1.423,2.646L23.8,45.628V50.5H19.9V49.04l-.58-1.452a5.849,5.849,0,0,1-.292-.984Z" transform="translate(-16 -39.57)" fill="#b4dd7f"/>
        </g>
        <g id="Grupo_1106374" data-name="Grupo 1106374" transform="translate(14.621 18.311)">
          <path id="Trazado_902537" data-name="Trazado 902537" d="M36.771,46.6a5.849,5.849,0,0,1-.292.985L35.9,49.04V50.5H32V45.628l1.837-3.412,1.423-2.646.4.063a4.9,4.9,0,0,1,1.691.6,3.408,3.408,0,0,1,.5.327,4.773,4.773,0,0,1,1.306,1.486,4.716,4.716,0,0,1,.468,1.145h0a5.08,5.08,0,0,1,.161,1.257v1.667a.489.489,0,0,1-.487.487H36.771Z" transform="translate(-32 -39.57)" fill="#b4dd7f"/>
        </g>
        <g id="Grupo_1106375" data-name="Grupo 1106375" transform="translate(12.784 20.957)">
          <path id="Trazado_902538" data-name="Trazado 902538" d="M31.9,45l-1.837,3.412L28.23,45Z" transform="translate(-28.23 -45)" fill="#ffeaa7"/>
        </g>
        <g id="Grupo_1106376" data-name="Grupo 1106376" transform="translate(9.26 6.823)">
          <path id="Trazado_902539" data-name="Trazado 902539" d="M26.361,18.924a4.255,4.255,0,0,1-2.7,1.808l-.712.141v1.95A3.413,3.413,0,0,0,24.9,25.9v.054A1.458,1.458,0,0,1,23.661,27.4l-.56.088-.4.063a4.9,4.9,0,0,0-1.691.6l0,0V21.361a5.069,5.069,0,0,1,.093-.984,5.175,5.175,0,0,1,.38-1.223,5.367,5.367,0,0,1,8.3-1.93,5.072,5.072,0,0,1,.38.346,5.36,5.36,0,0,1,1.1,1.584,5.274,5.274,0,0,1,.414,1.433,5.089,5.089,0,0,1,.058.775v6.784l0,0a4.9,4.9,0,0,0-1.691-.6l-.4-.063-.56-.088a1.458,1.458,0,0,1-1.238-1.443v-.015a3.313,3.313,0,0,0,1.95-3.017V20.874l-.712-.141a4.272,4.272,0,0,1-2.7-1.808Z" transform="translate(-21 -16)" fill="#656d78"/>
        </g>
        <g id="Grupo_1106377" data-name="Grupo 1106377" transform="translate(4.874 7.798)">
          <path id="Trazado_902540" data-name="Trazado 902540" d="M14.924,18.049v.439a1.462,1.462,0,0,1-2.924,0v-.439A2.3,2.3,0,0,1,12.487,18h1.95A2.3,2.3,0,0,1,14.924,18.049Z" transform="translate(-12 -18)" fill="#f0d0b4"/>
        </g>
        <g id="Grupo_1106378" data-name="Grupo 1106378" transform="translate(3.899 4.874)">
          <path id="Trazado_902541" data-name="Trazado 902541" d="M14.825,12a2.3,2.3,0,0,1,.049.487,2.437,2.437,0,0,1-4.874,0A2.3,2.3,0,0,1,10.049,12Z" transform="translate(-10 -12)" fill="#f0d0b4"/>
        </g>
        <g id="Grupo_1106379" data-name="Grupo 1106379" transform="translate(13.159 4.874)">
          <path id="Trazado_902542" data-name="Trazado 902542" d="M31.924,12.049v.439a1.462,1.462,0,0,1-2.924,0v-.439A2.3,2.3,0,0,1,29.487,12h1.949A2.3,2.3,0,0,1,31.924,12.049Z" transform="translate(-29 -12)" fill="#f0d0b4"/>
        </g>
        <g id="Grupo_1106380" data-name="Grupo 1106380" transform="translate(12.184 1.95)">
          <path id="Trazado_902543" data-name="Trazado 902543" d="M31.825,6a2.3,2.3,0,0,1,.049.487,2.437,2.437,0,0,1-4.874,0A2.3,2.3,0,0,1,27.049,6Z" transform="translate(-27 -6)" fill="#f0d0b4"/>
        </g>
        <g id="Grupo_1106381" data-name="Grupo 1106381" transform="translate(21.445 7.798)">
          <path id="Trazado_902544" data-name="Trazado 902544" d="M48.924,18.049v.439a1.462,1.462,0,0,1-2.924,0v-.439A2.3,2.3,0,0,1,46.487,18h1.95A2.3,2.3,0,0,1,48.924,18.049Z" transform="translate(-46 -18)" fill="#f0d0b4"/>
        </g>
        <g id="Grupo_1106382" data-name="Grupo 1106382" transform="translate(20.47 4.874)">
          <path id="Trazado_902545" data-name="Trazado 902545" d="M48.825,12.975A2.437,2.437,0,0,1,44,12.487,2.3,2.3,0,0,1,44.049,12h4.776a2.461,2.461,0,0,1,0,.975Z" transform="translate(-44 -12)" fill="#f0d0b4"/>
        </g>
        <g id="Grupo_1106383" data-name="Grupo 1106383" transform="translate(21.932 17.745)">
          <path id="Trazado_902546" data-name="Trazado 902546" d="M48.462,38.7a2.391,2.391,0,0,0,1.145-.288l.317,1.262-1.462.975L47,39.672l.317-1.262Z" transform="translate(-47 -38.41)" fill="#f0d0b4"/>
        </g>
        <g id="Grupo_1106384" data-name="Grupo 1106384" transform="translate(20.957 12.706)">
          <path id="Trazado_902547" data-name="Trazado 902547" d="M46.8,28.07a1.665,1.665,0,0,0,1.106.658l1.126.161a.979.979,0,0,1,.838.965V30.96a2.3,2.3,0,0,1-.049.487,2.428,2.428,0,0,1-1.243,1.662,2.391,2.391,0,0,1-1.145.288l-1.145-.288a2.367,2.367,0,0,1-.58-.424,2.459,2.459,0,0,1-.663-1.238A2.3,2.3,0,0,1,45,30.96v-.916a1.954,1.954,0,0,1,1.477-1.891l.322-.078Z" transform="translate(-45 -28.07)" fill="#f0d0b4"/>
        </g>
        <g id="Grupo_1106385" data-name="Grupo 1106385" transform="translate(4.386 17.745)">
          <path id="Trazado_902548" data-name="Trazado 902548" d="M13.924,39.672l-1.462.975L11,39.672l.317-1.262a2.391,2.391,0,0,0,1.145.288l1.145-.288Z" transform="translate(-11 -38.41)" fill="#f0d0b4"/>
        </g>
        <g id="Grupo_1106386" data-name="Grupo 1106386" transform="translate(3.412 12.706)">
          <path id="Trazado_902549" data-name="Trazado 902549" d="M12.4,28.153a1.954,1.954,0,0,1,1.477,1.891v.916a2.3,2.3,0,0,1-.049.487,2.459,2.459,0,0,1-.663,1.238,2.367,2.367,0,0,1-.58.424l-1.145.288a2.391,2.391,0,0,1-1.145-.288,2.428,2.428,0,0,1-1.243-1.662A2.3,2.3,0,0,1,9,30.96V29.854a.979.979,0,0,1,.838-.965l1.126-.161a1.665,1.665,0,0,0,1.106-.658l0,0Z" transform="translate(-9 -28.07)" fill="#f0d0b4"/>
        </g>
        <g id="Grupo_1106387" data-name="Grupo 1106387" transform="translate(11.361 16.727)">
          <path id="Trazado_902550" data-name="Trazado 902550" d="M31.831,37.9,30.408,40.55H26.733L25.31,37.9l.56-.088a1.458,1.458,0,0,0,1.238-1.443V36.32a3.4,3.4,0,0,0,1.477.331h.088a3.258,3.258,0,0,0,1.36-.292v.015a1.458,1.458,0,0,0,1.238,1.443Z" transform="translate(-25.31 -36.32)" fill="#f0d0b4"/>
        </g>
        <g id="Grupo_1106388" data-name="Grupo 1106388" transform="translate(11.21 9.748)">
          <path id="Trazado_902551" data-name="Trazado 902551" d="M31.823,23.95V26a3.313,3.313,0,0,1-1.95,3.017,3.258,3.258,0,0,1-1.36.292h-.088A3.418,3.418,0,0,1,25,25.9v-1.95l.712-.141A4.255,4.255,0,0,0,28.412,22a4.272,4.272,0,0,0,2.7,1.808Z" transform="translate(-25 -22)" fill="#f0d0b4"/>
        </g>
      </g>
      <g id="Grupo_1106390" data-name="Grupo 1106390" transform="translate(1 1)">
        <path id="Trazado_902552" data-name="Trazado 902552" d="M29.682,21.049a3.871,3.871,0,0,0-1.551-.694l-1.389-.278-.155-.623a2.929,2.929,0,0,0,1.12-1.626l.248-.236a4.234,4.234,0,0,0,1.314-3.067A3.758,3.758,0,0,0,28.293,12v-.279a2.926,2.926,0,0,0-1.908-2.738A2.929,2.929,0,0,0,27.16,7.79a2.432,2.432,0,1,0-2.306-3.826A2.918,2.918,0,0,0,22.4,8.983a2.907,2.907,0,0,0-1.528,1.31,5.9,5.9,0,0,0-.866-.968V8.8A2.926,2.926,0,0,0,18.1,6.06a2.924,2.924,0,1,0-3.983,0A2.926,2.926,0,0,0,12.21,8.8v.527a5.9,5.9,0,0,0-.866.967,2.91,2.91,0,0,0-1.528-1.31,2.924,2.924,0,1,0-3.983,0,2.931,2.931,0,0,0-1.745,1.8A1.463,1.463,0,0,0,2.95,12.21v2.316a4.236,4.236,0,0,0,1.314,3.066l.248.236a2.931,2.931,0,0,0,1.12,1.626l-.155.623-1.389.278A3.841,3.841,0,0,0,1,24.121v7.1H31.217v-7.1a3.86,3.86,0,0,0-1.536-3.072ZM10.16,17.829l.1-.1V20.18c-.044.028-.089.055-.132.084L9.2,20.078l-.155-.623a2.931,2.931,0,0,0,1.12-1.626ZM8.9,21.013l.307.061a5.234,5.234,0,0,0-.446.564l-.456-.228ZM7.2,22.932,6.957,22.2l.379-.19.951.475q-.1.216-.173.442H7.2Zm-1.123-.288.246.737-.139.279-.454-.843ZM7.15,23.907h.733a5.489,5.489,0,0,0-.059.77V24.9l-.487.905L6.748,24.71Zm.674,3.047.1-.187a.973.973,0,0,0,.874.552v2.924H7.823Zm1.95.365h1.183a6.039,6.039,0,0,0,.22.676l.547,1.367v.881H9.773Zm2.308.314a5.01,5.01,0,0,1-.1-3.442l.206-.617-.924-.309-.206.617a5.987,5.987,0,0,0-.307,1.892q0,.287.027.571H8.8V24.676a4.363,4.363,0,0,1,3.72-4.336l.062-.01,3.041,5.648v4.264H12.7V29.174Zm4.028-15.6a4.694,4.694,0,0,0,2.6,1.488l.322.064v1.652a2.826,2.826,0,0,1-2.822,2.822h-.086a2.936,2.936,0,0,1-2.941-2.925V13.584l.322-.064a4.694,4.694,0,0,0,2.6-1.488Zm-1.077,6.844a3.93,3.93,0,0,0,1.093.157h.086a3.791,3.791,0,0,0,.981-.133,1.929,1.929,0,0,0,1.428,1.264l-.965,1.793H14.563L13.6,20.164A1.927,1.927,0,0,0,15.032,18.875Zm1.077,5.953-1.021-1.9H17.13Zm.487,1.151,3.042-5.648.062.01a4.363,4.363,0,0,1,3.719,4.335v1.667H21.443q.026-.284.027-.571a5.974,5.974,0,0,0-.307-1.892l-.206-.617-.924.309.205.616a5.007,5.007,0,0,1-.1,3.443l-.617,1.542v1.068H16.6Zm5.361-8.246.1.1a2.931,2.931,0,0,0,1.12,1.626l-.155.623-.932.186c-.043-.03-.088-.056-.132-.084Zm3.06,5.2H24.1q-.077-.226-.173-.442l.951-.476.379.19Zm-1.562-1.294a5.357,5.357,0,0,0-.446-.564l.307-.061.6.4ZM20.5,29.361l.547-1.367a5.909,5.909,0,0,0,.22-.676h1.183v2.924H20.5Zm2.924-2.043a.973.973,0,0,0,.874-.552l.1.187v3.289h-.975ZM24.881,25.8l-.487-.905v-.221a5.416,5.416,0,0,0-.059-.77h.733l.4.8Zm1.153-2.142-.139-.279.246-.737.348.174ZM27.362,21.2l-.411.764-1.1-.55.6-.4Zm-1.575-.916-.906.6-.906-.6.1-.388a2.868,2.868,0,0,0,1.618,0Zm1.043-3.2a1.95,1.95,0,1,1-3.9,0v-.915A1.46,1.46,0,0,1,24.04,14.75l.04-.01a2.161,2.161,0,0,0,1.205.6l1.127.161a.489.489,0,0,1,.419.482Zm1.295-1.526a3.258,3.258,0,0,1-.32.678v-.256a1.469,1.469,0,0,0-1.255-1.447l-1.127-.161a1.2,1.2,0,0,1-1.029-1.186h-.975a2.153,2.153,0,0,0,.118.7,2.433,2.433,0,0,0-1.58,2.281v-2.5a5.839,5.839,0,0,0-.039-.656,2.809,2.809,0,0,1,2.355-1.293H25.49a2.807,2.807,0,0,1,2.8,2.8,3.249,3.249,0,0,1-.167,1.031ZM25.369,9.773a.975.975,0,1,1-1.95,0Zm1.862,1.4a3.746,3.746,0,0,0-1.183-.383,1.928,1.928,0,0,0,.27-.764A1.945,1.945,0,0,1,27.231,11.176ZM24.394,8.8a1.951,1.951,0,0,1-1.95-1.95h3.9A1.951,1.951,0,0,1,24.394,8.8Zm2.437-4.874a1.455,1.455,0,0,1,.483,2.83,2.923,2.923,0,0,0-1.471-2.443A1.454,1.454,0,0,1,26.831,3.924ZM24.394,4.9a1.943,1.943,0,0,1,1.679.975H22.716A1.942,1.942,0,0,1,24.394,4.9ZM22.47,10.024a1.93,1.93,0,0,0,.431.987,3.8,3.8,0,0,0-1.252.8c-.046-.136-.093-.272-.148-.4a1.936,1.936,0,0,1,.969-1.386ZM19.013,8.6a5.813,5.813,0,0,0-1.369-.568,1.926,1.926,0,0,0,.387-.929A1.94,1.94,0,0,1,19.013,8.6ZM15.134,6.849h1.95a.975.975,0,0,1-1.95,0Zm.975-.975a1.951,1.951,0,0,1-1.95-1.95h3.9A1.951,1.951,0,0,1,16.109,5.874Zm0-3.9a1.943,1.943,0,0,1,1.679.975H14.431A1.942,1.942,0,0,1,16.109,1.975ZM14.185,7.105a1.926,1.926,0,0,0,.387.929A5.813,5.813,0,0,0,13.2,8.6a1.941,1.941,0,0,1,.981-1.5ZM16.109,8.8a4.879,4.879,0,0,1,4.874,4.874v6.013a5.432,5.432,0,0,0-1.134-.307l-.964-.148a.967.967,0,0,1-.788-.7,3.8,3.8,0,0,0,1.911-3.291V12.785L18.9,12.563A3.722,3.722,0,0,1,16.6,11.075v-1.3h-.975v1.3a3.725,3.725,0,0,1-2.306,1.488l-1.105.221v2.348a3.9,3.9,0,0,0,1.923,3.351.967.967,0,0,1-.8.746l-.964.148a5.432,5.432,0,0,0-1.134.307V13.672A4.879,4.879,0,0,1,16.109,8.8ZM10.716,11.41c-.035.082-.061.167-.092.251a3.429,3.429,0,0,0-1.24-.731,1.928,1.928,0,0,0,.364-.906,1.933,1.933,0,0,1,.969,1.386ZM6.849,9.773H8.8a.975.975,0,1,1-1.95,0ZM7.823,8.8a1.951,1.951,0,0,1-1.95-1.95h3.9A1.951,1.951,0,0,1,7.823,8.8Zm0-3.9A1.943,1.943,0,0,1,9.5,5.874H6.145A1.942,1.942,0,0,1,7.823,4.9ZM5.9,10.022a1.925,1.925,0,0,0,.246.725H5.164A1.956,1.956,0,0,1,5.9,10.022ZM4.091,15.556a3.243,3.243,0,0,1-.167-1.031V12.21a.488.488,0,0,1,.487-.487h3.9a2.445,2.445,0,0,1,2.021,1.084,5.892,5.892,0,0,0-.071.866v2.5a2.433,2.433,0,0,0-1.58-2.281,2.153,2.153,0,0,0,.118-.7H7.823a1.2,1.2,0,0,1-1.029,1.187l-1.127.161a1.468,1.468,0,0,0-1.255,1.447v.256a3.262,3.262,0,0,1-.32-.679Zm1.295.423A.49.49,0,0,1,5.8,15.5l1.127-.161a2.166,2.166,0,0,0,1.205-.6l.04.01a1.461,1.461,0,0,1,1.108,1.419v.915a1.95,1.95,0,1,1-3.9,0Zm1.95,4.029a2.9,2.9,0,0,0,.809-.116l.1.388-.906.6-.906-.6.1-.388A2.9,2.9,0,0,0,7.336,20.008Zm-1.564,1,.6.4-1.1.55L4.855,21.2Zm-3.8,3.108a2.844,2.844,0,0,1,1.9-2.693l2.975,5.526v3.288H3.924V24.881H2.95v5.361H1.975Zm28.268,6.122h-.975V24.881h-.975v5.361H25.369V26.954l2.975-5.526a2.842,2.842,0,0,1,1.9,2.692Z" transform="translate(-1 -1)"/>
        <path id="Trazado_902553" data-name="Trazado 902553" d="M30,32.232a2.053,2.053,0,0,0,1.847-1.141l.051-.1-.872-.436-.051.1a1.09,1.09,0,0,1-1.95,0l-.051-.1-.872.436.051.1A2.053,2.053,0,0,0,30,32.232Z" transform="translate(-14.895 -16.149)"/>
      </g>
    </g>
  </g>
</svg>
