<svg xmlns="http://www.w3.org/2000/svg" xmlns:xlink="http://www.w3.org/1999/xlink" width="56" height="56" viewBox="0 0 56 56">
  <defs>
    <clipPath id="clip-path">
      <rect id="Rectángulo_403329" data-name="Rectángulo 403329" width="29.82" height="35.342" transform="translate(0 0)" fill="none"/>
    </clipPath>
  </defs>
  <g id="Grupo_1130698" data-name="Grupo 1130698" transform="translate(-180 -6031)">
    <g id="Grupo_1106304" data-name="Grupo 1106304">
      <g id="Grupo_1106301" data-name="Grupo 1106301" transform="translate(0 1454)">
        <circle id="Elipse_12284" data-name="Elipse 12284" cx="28" cy="28" r="28" transform="translate(180 4577)" fill="#faf8f2"/>
        <path id="Elipse_12284_-_Contorno" data-name="Elipse 12284 - Contorno" d="M28,2A26.007,26.007,0,0,0,17.88,51.958,26.007,26.007,0,0,0,38.12,4.042,25.835,25.835,0,0,0,28,2m0-2A28,28,0,1,1,0,28,28,28,0,0,1,28,0Z" transform="translate(180 4577)" fill="#d0b57a"/>
      </g>
      <g id="Grupo_1106303" data-name="Grupo 1106303" transform="translate(193 6041)">
        <g id="Grupo_1106302" data-name="Grupo 1106302" clip-path="url(#clip-path)">
          <path id="Trazado_902403" data-name="Trazado 902403" d="M7.489,15.875c.658,4.373,3.73,7.682,7.421,7.682s6.763-3.309,7.421-7.682a11.873,11.873,0,0,0,.13-1.755V9.747c0-5.211-3.381-7.883-7.551-7.883S7.359,4.536,7.359,9.747V14.12a11.873,11.873,0,0,0,.13,1.755m7.421,5.611c-3.617,0-5.48-4.234-5.48-7.366V9.747c0-3.5,1.912-5.812,5.48-5.812s5.48,2.307,5.48,5.812V14.12c0,3.132-1.863,7.366-5.48,7.366" fill="#ffef8a" fill-rule="evenodd"/>
          <path id="Trazado_902404" data-name="Trazado 902404" d="M9.43,14.12c0,3.132,1.863,7.366,5.48,7.366s5.481-4.234,5.481-7.366V9.747c0-3.5-1.913-5.813-5.481-5.813S9.43,6.242,9.43,9.747Zm5.177-3.338a1.553,1.553,0,1,1-1.553-1.553,1.553,1.553,0,0,1,1.553,1.553m.588,5.488c.607-.606,1.426-.77,1.83-.366s.241,1.224-.366,1.83-1.426.771-1.83.366-.24-1.223.366-1.83" fill="#8ae897" fill-rule="evenodd"/>
          <path id="Trazado_902405" data-name="Trazado 902405" d="M13.054,9.229A1.553,1.553,0,1,1,11.5,10.782a1.553,1.553,0,0,1,1.553-1.553" fill="#ffc45d" fill-rule="evenodd"/>
          <path id="Trazado_902406" data-name="Trazado 902406" d="M15.195,16.27c-.607.607-.77,1.426-.366,1.83s1.224.241,1.83-.366.771-1.426.366-1.83-1.223-.241-1.83.366" fill="#ffc45d" fill-rule="evenodd"/>
          <path id="Trazado_902407" data-name="Trazado 902407" d="M2.071,10.941A1.553,1.553,0,1,0,.518,9.388a1.553,1.553,0,0,0,1.553,1.553M24.125,24.919a1.553,1.553,0,1,0,1.553-1.553,1.553,1.553,0,0,0-1.553,1.553" fill="#ffc45d" fill-rule="evenodd"/>
          <path id="Trazado_902408" data-name="Trazado 902408" d="M26.2,9.388a1.554,1.554,0,1,0,1.553-1.553A1.553,1.553,0,0,0,26.2,9.388M4.142,23.366A1.553,1.553,0,1,0,5.7,24.919a1.553,1.553,0,0,0-1.553-1.553" fill="#8ae897" fill-rule="evenodd"/>
          <path id="Trazado_902409" data-name="Trazado 902409" d="M15.686,3.973c-3.068.315-4.7,2.532-4.7,5.774V14.12c0,2.9,1.6,6.742,4.7,7.3a4.361,4.361,0,0,1-.777.069c-3.617,0-5.48-4.234-5.48-7.366V9.747c0-3.5,1.913-5.813,5.48-5.813a7.483,7.483,0,0,1,.777.039" fill="#00d43d" fill-rule="evenodd"/>
          <path id="Trazado_902410" data-name="Trazado 902410" d="M7.489,15.875c.658,4.373,3.73,7.682,7.421,7.682a6.044,6.044,0,0,0,.776-.05c-3.338-.426-6.033-3.57-6.644-7.632a11.873,11.873,0,0,1-.13-1.755V9.747c0-4.884,2.969-7.537,6.774-7.852q-.383-.032-.776-.031c-4.171,0-7.551,2.672-7.551,7.883V14.12a11.739,11.739,0,0,0,.13,1.755" fill="#ffe300" fill-rule="evenodd"/>
          <path id="Trazado_902411" data-name="Trazado 902411" d="M17.495,7.424H16.46V6.39h1.035Z" fill="#fff"/>
          <path id="Trazado_902412" data-name="Trazado 902412" d="M14.91,24.074a7.344,7.344,0,0,1-5.744-2.958,11.193,11.193,0,0,1-2.325-7V9.747A8.451,8.451,0,0,1,9.211,3.479a8.109,8.109,0,0,1,5.7-2.133,8.109,8.109,0,0,1,5.7,2.133,8.451,8.451,0,0,1,2.37,6.268v4.374a11.193,11.193,0,0,1-2.325,7A7.344,7.344,0,0,1,14.91,24.074Zm0-21.693c-4.273,0-7.034,2.891-7.034,7.365v4.374c0,4.918,3.155,8.918,7.034,8.918s7.034-4,7.034-8.918V9.747C21.944,5.273,19.183,2.381,14.91,2.381ZM14.91,22a5.358,5.358,0,0,1-4.534-2.749A9.985,9.985,0,0,1,8.911,14.12V9.747a6.91,6.91,0,0,1,1.151-4.088l.843.6a5.987,5.987,0,0,0-.959,3.488V14.12a8.907,8.907,0,0,0,1.3,4.581,4.371,4.371,0,0,0,3.66,2.267A4.37,4.37,0,0,0,18.569,18.7a8.909,8.909,0,0,0,1.3-4.581V9.747c0-3.365-1.809-5.294-4.962-5.294a4.964,4.964,0,0,0-3.37,1.1l-.681-.78a5.962,5.962,0,0,1,4.05-1.359,5.827,5.827,0,0,1,4.46,1.761,6.644,6.644,0,0,1,1.537,4.568V14.12a9.987,9.987,0,0,1-1.464,5.135A5.357,5.357,0,0,1,14.91,22Z"/>
          <path id="Trazado_902413" data-name="Trazado 902413" d="M15.427,35.342H14.392V32.753h1.035Zm5.294-.505-.827-.394A4.451,4.451,0,0,1,17.8,32.555a2.781,2.781,0,0,1-.287-1.972,1.14,1.14,0,0,1,1.145-.967c1.005.083,1.7,1.614,1.969,4.31ZM18.6,30.661a.972.972,0,0,0-.118.62,2.468,2.468,0,0,0,.98,1.681C19.187,31.319,18.764,30.761,18.6,30.661ZM9.1,34.837l.089-.911c.265-2.7.964-4.226,1.969-4.31a1.14,1.14,0,0,1,1.145.967,2.781,2.781,0,0,1-.287,1.972,4.451,4.451,0,0,1-2.091,1.888Zm2.12-4.176c-.162.1-.586.658-.861,2.3a2.468,2.468,0,0,0,.98-1.681A.972.972,0,0,0,11.218,30.661Zm11,.424-.952-1.55a7.23,7.23,0,0,1-1-2.458,2.2,2.2,0,0,1,.182-1.612.66.66,0,0,1,.749-.22c.86.306,1.034,2.356,1.028,4.021Zm-14.607,0L7.6,29.266c-.006-1.665.168-3.715,1.028-4.021a.66.66,0,0,1,.749.22,2.2,2.2,0,0,1,.182,1.612,7.23,7.23,0,0,1-1,2.458Z"/>
          <path id="Elipse_12285" data-name="Elipse 12285" d="M1.553-.518A2.071,2.071,0,1,1-.518,1.553,2.073,2.073,0,0,1,1.553-.518Zm0,3.106A1.035,1.035,0,1,0,.517,1.553,1.037,1.037,0,0,0,1.553,2.588Z" transform="translate(11.501 9.229)"/>
          <path id="Trazado_902414" data-name="Trazado 902414" d="M16.435,15.165a1.279,1.279,0,0,1,1.329,1.328,2.552,2.552,0,0,1-2.346,2.347,1.315,1.315,0,0,1-.956-.374,1.848,1.848,0,0,1,.366-2.561A2.343,2.343,0,0,1,16.435,15.165ZM15.418,17.8a1.543,1.543,0,0,0,1.311-1.311.254.254,0,0,0-.294-.294,1.335,1.335,0,0,0-.875.436,1.5,1.5,0,0,0-.421.727.426.426,0,0,0,.055.372A.32.32,0,0,0,15.418,17.8Z"/>
          <path id="Trazado_902415" data-name="Trazado 902415" d="M5.586,12.352l-.011-1.035L7.25,11.3l.011,1.035Z"/>
          <path id="Trazado_902416" data-name="Trazado 902416" d="M2.071,7.317A2.071,2.071,0,1,1,0,9.388,2.073,2.073,0,0,1,2.071,7.317Zm0,3.106A1.036,1.036,0,1,0,1.035,9.388,1.037,1.037,0,0,0,2.071,10.424ZM27.749,7.317a2.071,2.071,0,1,1-2.071,2.071A2.073,2.073,0,0,1,27.749,7.317Zm0,3.106a1.036,1.036,0,1,0-1.036-1.035A1.037,1.037,0,0,0,27.749,10.424ZM4.141,22.848a2.071,2.071,0,1,1-2.071,2.07A2.073,2.073,0,0,1,4.141,22.848Zm0,3.106a1.035,1.035,0,1,0-1.036-1.035A1.037,1.037,0,0,0,4.141,25.954Zm21.537-3.106a2.071,2.071,0,1,1-2.07,2.07A2.073,2.073,0,0,1,25.678,22.848Zm0,3.106a1.035,1.035,0,1,0-1.035-1.035A1.037,1.037,0,0,0,25.678,25.954Z"/>
        </g>
      </g>
    </g>
  </g>
</svg>
