<svg xmlns="http://www.w3.org/2000/svg" width="56" height="56" viewBox="0 0 56 56">
  <g id="Grupo_1106528" data-name="Grupo 1106528" transform="translate(-180 -1394)">
    <circle id="Elipse_12322" data-name="Elipse 12322" cx="28" cy="28" r="28" transform="translate(180 1394)" fill="#faf8f2"/>
    <path id="Elipse_12322_-_Contorno" data-name="Elipse 12322 - Contorno" d="M28,2A26.007,26.007,0,0,0,17.88,51.958,26.007,26.007,0,0,0,38.12,4.042,25.835,25.835,0,0,0,28,2m0-2A28,28,0,1,1,0,28,28,28,0,0,1,28,0Z" transform="translate(180 1394)" fill="#d0b57a"/>
    <g id="conservar" transform="translate(133.727 1408)">
      <path id="Trazado_902792" data-name="Trazado 902792" d="M87.841,61.332H79.657a6.184,6.184,0,0,0-6.184,6.184V82.437a3.692,3.692,0,0,0,3.692,3.692H90.333a3.692,3.692,0,0,0,3.692-3.692V67.516A6.184,6.184,0,0,0,87.841,61.332Z" transform="translate(-9.626 -57.879)" fill="#86dfd8"/>
      <rect id="Rectángulo_403429" data-name="Rectángulo 403429" width="12.317" height="8.737" transform="translate(63.847 11.575)" fill="#008379"/>
      <path id="Trazado_902793" data-name="Trazado 902793" d="M125.111,10.2H112.792a2.016,2.016,0,0,0-2.016,2.016v.862h16.351v-.862A2.016,2.016,0,0,0,125.111,10.2Z" transform="translate(-44.829 -9.625)" fill="#ccc"/>
      <g id="Grupo_1106527" data-name="Grupo 1106527" transform="translate(63.273)">
        <path id="Trazado_902794" data-name="Trazado 902794" d="M63.273,24.558a4.271,4.271,0,0,0,4.266,4.266H80.707a4.271,4.271,0,0,0,4.266-4.266V9.637a6.757,6.757,0,0,0-2.993-5.61H82.3a.574.574,0,0,0,.574-.574V2.591A2.594,2.594,0,0,0,80.282,0H67.964a2.594,2.594,0,0,0-2.591,2.591v.862a.574.574,0,0,0,.574.574h.319a6.757,6.757,0,0,0-2.993,5.61S63.273,24.558,63.273,24.558ZM66.521,2.879V2.591a1.444,1.444,0,0,1,1.442-1.442H80.282a1.444,1.444,0,0,1,1.442,1.442v.288Zm-2.1,9.271H75.591v7.588H64.421Zm19.4,12.409a3.121,3.121,0,0,1-3.118,3.118H67.539a3.121,3.121,0,0,1-3.118-3.118V20.886H76.165a.574.574,0,0,0,.574-.574V11.575A.574.574,0,0,0,76.165,11H64.421V9.637a5.616,5.616,0,0,1,5.61-5.61h8.184a5.616,5.616,0,0,1,5.61,5.61V24.558Z" transform="translate(-63.273)" fill="#12263f"/>
        <path id="Trazado_902795" data-name="Trazado 902795" d="M396.636,315.458a.574.574,0,0,0-.574.574v6.153a.574.574,0,1,0,1.148,0v-6.153A.574.574,0,0,0,396.636,315.458Z" transform="translate(-377.327 -297.699)" fill="#12263f"/>
        <path id="Trazado_902796" data-name="Trazado 902796" d="M396.062,275.592v.369a.574.574,0,0,0,1.148,0v-.369a.574.574,0,1,0-1.148,0Z" transform="translate(-377.327 -259.535)" fill="#12263f"/>
        <path id="Trazado_902797" data-name="Trazado 902797" d="M109.961,250.148h-6.592a.574.574,0,1,0,0,1.148h6.592a.574.574,0,1,0,0-1.148Z" transform="translate(-100.569 -236.065)" fill="#12263f"/>
        <path id="Trazado_902798" data-name="Trazado 902798" d="M109.961,289.526h-6.592a.574.574,0,0,0,0,1.148h6.592a.574.574,0,0,0,0-1.148Z" transform="translate(-100.569 -273.227)" fill="#12263f"/>
      </g>
    </g>
  </g>
</svg>
