<svg xmlns="http://www.w3.org/2000/svg" xmlns:xlink="http://www.w3.org/1999/xlink" width="120" height="120" viewBox="0 0 120 120">
  <defs>
    <clipPath id="clip-path">
      <rect id="Rectángulo_403333" data-name="Rectángulo 403333" width="72.957" height="68.119" transform="translate(0 0)" fill="none"/>
    </clipPath>
  </defs>
  <g id="Grupo_1130696" data-name="Grupo 1130696" transform="translate(-180 -6318)">
    <circle id="Elipse_12287" data-name="Elipse 12287" cx="60" cy="60" r="60" transform="translate(180 6318)" fill="#177a9f"/>
    <g id="Grupo_1106311" data-name="Grupo 1106311" transform="translate(204 6344)">
      <g id="Grupo_1106310" data-name="Grupo 1106310" clip-path="url(#clip-path)">
        <path id="Trazado_902429" data-name="Trazado 902429" d="M62.169,24.451a2.127,2.127,0,0,1-1.292-1.764,18.434,18.434,0,0,0-35.518-5.075A2.118,2.118,0,0,1,23.1,18.951a12.274,12.274,0,0,0-1.748-.125A12.451,12.451,0,0,0,9,30.079,2.665,2.665,0,0,1,7.556,32.2,11.876,11.876,0,0,0,12.95,54.657H56.055a15.72,15.72,0,0,0,6.114-30.206" fill="#e6f8fc"/>
        <path id="Trazado_902430" data-name="Trazado 902430" d="M23.759,42.774h0A11.914,11.914,0,0,1,30.247,32.2a2.665,2.665,0,0,0,1.447-2.119A12.45,12.45,0,0,1,44.048,18.825a12.3,12.3,0,0,1,1.748.125,2.119,2.119,0,0,0,2.254-1.338,18.6,18.6,0,0,1,5.809-7.764A18.32,18.32,0,0,0,42.514,5.913a18.509,18.509,0,0,0-17.155,11.7,2.116,2.116,0,0,1-2.253,1.338,12.3,12.3,0,0,0-1.748-.125A12.452,12.452,0,0,0,9,30.078,2.661,2.661,0,0,1,7.557,32.2a11.876,11.876,0,0,0,5.394,22.459h22.69A11.917,11.917,0,0,1,23.759,42.774" fill="#c2eafb"/>
        <path id="Trazado_902431" data-name="Trazado 902431" d="M13.713,1.069A12.644,12.644,0,1,1,1.068,13.714,12.645,12.645,0,0,1,13.713,1.069" fill="#f5fbfc"/>
        <path id="Trazado_902432" data-name="Trazado 902432" d="M11.613,13.713a12.648,12.648,0,0,1,7.372-11.5,12.645,12.645,0,1,0,0,22.992,12.648,12.648,0,0,1-7.372-11.5" fill="#d9f5ff"/>
        <path id="Trazado_902433" data-name="Trazado 902433" d="M33.176,45.051A10.971,10.971,0,1,1,44.148,34.08,10.983,10.983,0,0,1,33.176,45.051m0-16.243a5.272,5.272,0,1,0,5.272,5.272,5.278,5.278,0,0,0-5.272-5.272" fill="#93bce8"/>
        <path id="Trazado_902434" data-name="Trazado 902434" d="M22.2,34.08a10.906,10.906,0,0,0,1.847,6.084,11.919,11.919,0,0,1,3.863-6.4,5.283,5.283,0,0,1,3.933-4.789A12.388,12.388,0,0,1,34.61,23.2,10.951,10.951,0,0,0,22.2,34.08" fill="#68a2df"/>
        <path id="Trazado_902435" data-name="Trazado 902435" d="M61.181,42.774a10.733,10.733,0,0,0-10.668,9.347,1.077,1.077,0,0,1-1.158.937c-.184-.014-.369-.022-.556-.022a7.007,7.007,0,1,0,6.086,10.479,1.078,1.078,0,0,1,1.428-.428,10.734,10.734,0,1,0,4.868-20.313" fill="#f5fbfc"/>
        <path id="Trazado_902436" data-name="Trazado 902436" d="M52.052,60.068a7.007,7.007,0,0,1,7.007-7.031c.187,0,.372.008.556.022a1.077,1.077,0,0,0,1.158-.937,10.738,10.738,0,0,1,5.5-8.036,10.623,10.623,0,0,0-5.09-1.311,10.732,10.732,0,0,0-10.668,9.347,1.077,1.077,0,0,1-1.158.937c-.183-.014-.369-.022-.556-.022a7.007,7.007,0,1,0,5.139,11.768,6.981,6.981,0,0,1-1.886-4.737" fill="#d9f5ff"/>
        <path id="Trazado_902437" data-name="Trazado 902437" d="M50.752,43.584s-3.46.043-3.623-.011.262-.343,2.531-3.584a4.578,4.578,0,0,0,.755-1.544l.036-.275a1.82,1.82,0,0,0-3.6-.352" fill="none" stroke="#000" stroke-linecap="round" stroke-linejoin="round" stroke-width="2.137"/>
        <path id="Trazado_902438" data-name="Trazado 902438" d="M10.069,26.1A12.275,12.275,0,0,0,9,30.078,2.665,2.665,0,0,1,7.557,32.2a11.876,11.876,0,0,0,5.394,22.46H44" fill="none" stroke="#000" stroke-linecap="round" stroke-linejoin="round" stroke-width="2.137"/>
        <path id="Trazado_902439" data-name="Trazado 902439" d="M69.745,46.647a15.59,15.59,0,0,0,2.037-7.717A15.779,15.779,0,0,0,62.17,24.451a2.129,2.129,0,0,1-1.293-1.764A18.427,18.427,0,0,0,26.411,15.4" fill="none" stroke="#000" stroke-linecap="round" stroke-linejoin="round" stroke-width="2.137"/>
        <path id="Trazado_902440" data-name="Trazado 902440" d="M13.713,1.069A12.644,12.644,0,1,1,1.068,13.714,12.645,12.645,0,0,1,13.713,1.069Z" fill="none" stroke="#000" stroke-linecap="round" stroke-linejoin="round" stroke-width="2.137"/>
        <path id="Trazado_902441" data-name="Trazado 902441" d="M27.046,24.985a10.977,10.977,0,1,1-3.018,3.043m9.148.78a5.272,5.272,0,1,0,5.272,5.272A5.278,5.278,0,0,0,33.176,28.808Z" fill="none" stroke="#000" stroke-linecap="round" stroke-linejoin="round" stroke-width="2.137"/>
        <path id="Trazado_902442" data-name="Trazado 902442" d="M69.213,60.6a10.733,10.733,0,1,0-18.7-8.477,1.077,1.077,0,0,1-1.158.937c-.183-.014-.369-.022-.556-.022a7.007,7.007,0,1,0,6.086,10.478,1.078,1.078,0,0,1,1.428-.427,10.748,10.748,0,0,0,9.472.107" fill="none" stroke="#000" stroke-linecap="round" stroke-linejoin="round" stroke-width="2.137"/>
      </g>
    </g>
  </g>
</svg>
