<svg xmlns="http://www.w3.org/2000/svg" width="56" height="56" viewBox="0 0 56 56">
  <g id="Grupo_1106530" data-name="Grupo 1106530" transform="translate(-180 -3798)">
    <circle id="Elipse_12297" data-name="Elipse 12297" cx="28" cy="28" r="28" transform="translate(180 3798)" fill="#faf8f2"/>
    <path id="Elipse_12297_-_Contorno" data-name="Elipse 12297 - Contorno" d="M28,2A26.007,26.007,0,0,0,17.88,51.958,26.007,26.007,0,0,0,38.12,4.042,25.835,25.835,0,0,0,28,2m0-2A28,28,0,1,1,0,28,28,28,0,0,1,28,0Z" transform="translate(180 3798)" fill="#d0b57a"/>
    <g id="cucaracha" transform="translate(153.918 3810)">
      <g id="Grupo_1106529" data-name="Grupo 1106529" transform="translate(49.271 5.603)">
        <circle id="Elipse_12323" data-name="Elipse 12323" cx="2.562" cy="2.562" r="2.562" transform="translate(2.049)" fill="#6e4848"/>
        <ellipse id="Elipse_12324" data-name="Elipse 12324" cx="4.611" cy="11.271" rx="4.611" ry="11.271" transform="translate(0 2.049)" fill="#d19a6e"/>
        <path id="Trazado_902799" data-name="Trazado 902799" d="M185.394,131c0-5.585,1.662-10.218,3.842-11.113a2.014,2.014,0,0,0-.768-.159c-2.547,0-4.611,5.046-4.611,11.271s2.064,11.271,4.611,11.271a2.015,2.015,0,0,0,.768-.159C187.056,141.217,185.394,136.584,185.394,131Z" transform="translate(-183.857 -117.679)" fill="#c38c66"/>
        <path id="Trazado_902800" data-name="Trazado 902800" d="M195.867,126.9a8.668,8.668,0,0,0,4.106-1.029c-.764-3.646-2.315-6.144-4.106-6.144s-3.342,2.5-4.106,6.144A8.668,8.668,0,0,0,195.867,126.9Z" transform="translate(-191.256 -117.678)" fill="#966a5b"/>
        <path id="Trazado_902801" data-name="Trazado 902801" d="M193.185,126.476c.614-3.416,1.9-5.949,3.448-6.588a2.013,2.013,0,0,0-.765-.161c-1.791,0-3.342,2.5-4.106,6.144A8.691,8.691,0,0,0,193.185,126.476Z" transform="translate(-191.257 -117.678)" fill="#785353"/>
      </g>
      <path id="Trazado_902802" data-name="Trazado 902802" d="M67.2,17.419h-2.95a1.051,1.051,0,0,1-.748-.31L61.094,14.7a1.506,1.506,0,0,0-2.127,0l-.279.279a19.61,19.61,0,0,0-.814-3.437l4.993-3.5a.479.479,0,0,0-.55-.785l-4.8,3.357a9.788,9.788,0,0,0-.763-1.465A3.035,3.035,0,0,0,56.544,6.7a23.087,23.087,0,0,1,7.021-4.8A12.509,12.509,0,0,1,66.739.956a.479.479,0,0,0-.1-.954,13.062,13.062,0,0,0-3.4,1,23.971,23.971,0,0,0-7.289,4.94,3.033,3.033,0,0,0-4.136,0A23.972,23.972,0,0,0,44.525,1a13.066,13.066,0,0,0-3.4-1,.479.479,0,0,0-.1.954c.049,0,4.851.54,10.194,5.74a3.035,3.035,0,0,0-.214,2.455,9.782,9.782,0,0,0-.763,1.465l-4.8-3.357a.479.479,0,0,0-.55.785l4.993,3.5a19.609,19.609,0,0,0-.814,3.437L48.8,14.7a1.506,1.506,0,0,0-2.127,0l-2.412,2.412a1.051,1.051,0,0,1-.748.31h-2.95a.479.479,0,1,0,0,.959h2.95a2,2,0,0,0,1.426-.591l2.412-2.412a.546.546,0,0,1,.771,0l.807.807c-.089.887-.135,1.806-.135,2.741q0,.794.044,1.57h-1.1a1.506,1.506,0,0,0-1.5,1.5v3.618a5.142,5.142,0,0,1-.31,1.762l-1.71,4.7a.479.479,0,1,0,.9.328l1.71-4.7a6.1,6.1,0,0,0,.368-2.09V22a.546.546,0,0,1,.545-.545h1.172a19.924,19.924,0,0,0,1.272,5.623c.949,2.321,2.265,3.6,3.7,3.6s2.755-1.278,3.7-3.6a19.924,19.924,0,0,0,1.272-5.623H60.03a.546.546,0,0,1,.545.545v3.618a6.1,6.1,0,0,0,.368,2.09l1.71,4.7a.479.479,0,1,0,.9-.328l-1.71-4.7a5.141,5.141,0,0,1-.31-1.762V22a1.506,1.506,0,0,0-1.5-1.5h-1.1q.043-.775.044-1.57c0-.935-.046-1.854-.135-2.741l.807-.807a.546.546,0,0,1,.771,0l2.412,2.412a2,2,0,0,0,1.426.591H67.2a.479.479,0,1,0,0-.959ZM53.882,6.082a2.084,2.084,0,0,1,2.082,2.066,2.709,2.709,0,0,0-4.164,0A2.085,2.085,0,0,1,53.882,6.082ZM56.7,26.712c-.781,1.909-1.808,3-2.817,3s-2.036-1.095-2.817-3a21.262,21.262,0,0,1-1.315-7.789,25.282,25.282,0,0,1,.393-4.525,8.164,8.164,0,0,0,3.259.891V28.145a.479.479,0,1,0,.959,0V15.289c.2-.012.408-.03.609-.057a.479.479,0,1,0-.127-.95,7.311,7.311,0,0,1-.961.064,7.2,7.2,0,0,1-3.534-.926,15.391,15.391,0,0,1,.717-2.285c.781-1.909,1.808-3,2.817-3s2.036,1.095,2.817,3a15.394,15.394,0,0,1,.717,2.285,7.207,7.207,0,0,1-.652.326.479.479,0,1,0,.384.878c.16-.07.317-.146.473-.226a25.277,25.277,0,0,1,.393,4.525A21.262,21.262,0,0,1,56.7,26.712Z" transform="translate(0 0)"/>
    </g>
  </g>
</svg>
