<svg xmlns="http://www.w3.org/2000/svg" width="56" height="56" viewBox="0 0 56 56">
  <g id="Grupo_1106422" data-name="Grupo 1106422" transform="translate(-180 -4647)">
    <circle id="Elipse_12296" data-name="Elipse 12296" cx="28" cy="28" r="28" transform="translate(180 4647)" fill="#faf8f2"/>
    <path id="Elipse_12296_-_Contorno" data-name="Elipse 12296 - Contorno" d="M28,2A26.007,26.007,0,0,0,17.88,51.958,26.007,26.007,0,0,0,38.12,4.042,25.835,25.835,0,0,0,28,2m0-2A28,28,0,1,1,0,28,28,28,0,0,1,28,0Z" transform="translate(180 4647)" fill="#d0b57a"/>
    <g id="Grupo_1106421" data-name="Grupo 1106421" transform="translate(185.33 4655.998)">
      <g id="Grupo_1106419" data-name="Grupo 1106419" transform="translate(9.139 7.104)">
        <path id="Trazado_902581" data-name="Trazado 902581" d="M92.7,33.306H90.427V31.031a.587.587,0,0,0-.587-.587H87.2a.587.587,0,0,0-.587.587v2.276H84.335a.587.587,0,0,0-.587.587v2.643a.587.587,0,0,0,.587.587H86.61V39.4a.587.587,0,0,0,.587.587H89.84a.587.587,0,0,0,.587-.587V37.123H92.7a.587.587,0,0,0,.587-.587V33.893A.587.587,0,0,0,92.7,33.306Z" transform="translate(-75.41 -30.444)" fill="#44c7b6"/>
        <g id="Grupo_1106412" data-name="Grupo 1106412" transform="translate(8.338 0)">
          <path id="Trazado_902582" data-name="Trazado 902582" d="M85.5,55.429v2.644a.587.587,0,0,0,.587.587h-1.76a.587.587,0,0,1-.587-.587V55.429a.587.587,0,0,1,.587-.587h1.76A.587.587,0,0,0,85.5,55.429Z" transform="translate(-83.744 -51.98)" fill="#4bdbc3"/>
          <path id="Trazado_902583" data-name="Trazado 902583" d="M110.49,90.244h-1.76a.587.587,0,0,1-.587-.587V87.382h1.76v2.276A.587.587,0,0,0,110.49,90.244Z" transform="translate(-105.282 -80.702)" fill="#4bdbc3"/>
          <path id="Trazado_902584" data-name="Trazado 902584" d="M109.9,33.3h-1.76V31.029a.587.587,0,0,1,.587-.587h1.76a.587.587,0,0,0-.587.587Z" transform="translate(-105.282 -30.442)" fill="#4bdbc3"/>
        </g>
        <g id="Grupo_1106418" data-name="Grupo 1106418" transform="translate(0 13.566)">
          <g id="Grupo_1106417" data-name="Grupo 1106417">
            <g id="Grupo_1106416" data-name="Grupo 1106416">
              <g id="Grupo_1106415" data-name="Grupo 1106415">
                <g id="Grupo_1106414" data-name="Grupo 1106414">
                  <g id="Grupo_1106413" data-name="Grupo 1106413">
                    <path id="XMLID_103_" d="M48.4,148.553l5.351,2.618,8.954-4.858a1.717,1.717,0,0,1,2.344.634,1.823,1.823,0,0,1-.634,2.342L55.56,157.4l-.016.014a3.166,3.166,0,0,1-3.036.419l-7.154-2.7a5.013,5.013,0,0,0-3.765.232v-7.1A8.512,8.512,0,0,1,48.4,148.553Z" transform="translate(-38.197 -146.085)" fill="#ffbb98"/>
                    <path id="Trazado_902585" data-name="Trazado 902585" d="M12.67,150.4v8.9a.614.614,0,0,0,.614.614h2.164a.614.614,0,0,0,.614-.614v-8.9a.615.615,0,0,0-.614-.614H13.284A.615.615,0,0,0,12.67,150.4Z" transform="translate(-12.67 -149.352)" fill="#4bdbc3"/>
                    <path id="Trazado_902586" data-name="Trazado 902586" d="M12.67,150.4v8.9a.614.614,0,0,0,.614.614h.482a.614.614,0,0,0,.614-.614v-8.9a.615.615,0,0,0-.614-.614h-.482A.615.615,0,0,0,12.67,150.4Z" transform="translate(-12.67 -149.352)" fill="#3bb2a0"/>
                    <path id="XMLID_102_" d="M48.4,160.6l5.351,2.618.848.415a1.592,1.592,0,0,1,.875,1.422,1.576,1.576,0,0,1-.171.717,1.592,1.592,0,0,1-2.139.706l-6.569-3.213a9.771,9.771,0,0,0-4.238-.69l-.765.061v-2.331a8.512,8.512,0,0,1,6.808.3Z" transform="translate(-38.197 -158.136)" fill="#ffcaa6"/>
                  </g>
                </g>
              </g>
            </g>
          </g>
        </g>
      </g>
      <g id="Grupo_1106420" data-name="Grupo 1106420" transform="translate(8.67 4.002)">
        <path id="Trazado_902587" data-name="Trazado 902587" d="M90.661,212.494l-1.087-.441a.469.469,0,0,0-.353.869l1.087.441a.469.469,0,1,0,.353-.869Z" transform="translate(-79.513 -187.616)" fill="#12263f"/>
        <path id="Trazado_902588" data-name="Trazado 902588" d="M74.761,206.036l-.122-.049a.469.469,0,1,0-.353.869l.122.049a.469.469,0,1,0,.353-.869Z" transform="translate(-66.33 -182.262)" fill="#12263f"/>
        <path id="Trazado_902589" data-name="Trazado 902589" d="M36.392,143.2a2.189,2.189,0,0,0-2.974-.812l-8.741,4.743-5.131-2.511A8.989,8.989,0,0,0,13,144.088v-.47a1.085,1.085,0,0,0-1.084-1.084H9.754a1.085,1.085,0,0,0-1.084,1.084v8.9A1.085,1.085,0,0,0,9.754,153.6h2.164A1.085,1.085,0,0,0,13,152.521v-.369a4.516,4.516,0,0,1,3.137-.1l7.146,2.7a3.653,3.653,0,0,0,3.484-.484c.043-.033,8.565-7.843,8.893-8.143A2.273,2.273,0,0,0,36.392,143.2Zm-24.33,9.324a.145.145,0,0,1-.145.145H9.754a.145.145,0,0,1-.145-.145v-8.9a.145.145,0,0,1,.145-.145h2.164a.145.145,0,0,1,.145.145Zm22.99-7.109-.018.016c-.078.072-8.457,7.748-8.849,8.107a2.711,2.711,0,0,1-2.57.341l-7.17-2.707A5.443,5.443,0,0,0,13,151.153v-6.081a8.05,8.05,0,0,1,6.132.386l6.194,3.03a1.123,1.123,0,1,1-1.017,2l-6.7-3.276a.469.469,0,0,0-.412.843l6.691,3.273a2.062,2.062,0,1,0,1.852-3.685l-.032-.015,8.163-4.429a1.251,1.251,0,0,1,1.7.461A1.391,1.391,0,0,1,35.052,145.411Z" transform="translate(-8.67 -125.899)" fill="#12263f"/>
        <path id="Trazado_902590" data-name="Trazado 902590" d="M80.8,34.061h1.807v1.807a1.057,1.057,0,0,0,1.056,1.056h2.643a1.057,1.057,0,0,0,1.056-1.056V34.061h1.807a1.057,1.057,0,0,0,1.056-1.056V30.362a1.057,1.057,0,0,0-1.056-1.056H87.364V27.5a1.057,1.057,0,0,0-1.056-1.056H83.665A1.057,1.057,0,0,0,82.609,27.5v1.807H80.8a1.057,1.057,0,0,0-1.056,1.056v2.643A1.057,1.057,0,0,0,80.8,34.061Zm-.117-3.7a.117.117,0,0,1,.117-.117h2.276a.469.469,0,0,0,.469-.469V27.5a.117.117,0,0,1,.117-.117h2.643a.117.117,0,0,1,.117.117v2.276a.469.469,0,0,0,.469.469h2.276a.117.117,0,0,1,.117.117v2.643a.117.117,0,0,1-.117.117H86.895a.469.469,0,0,0-.469.469v2.276a.117.117,0,0,1-.117.117H83.665a.117.117,0,0,1-.117-.117V33.592a.469.469,0,0,0-.469-.469H80.8a.117.117,0,0,1-.117-.117Z" transform="translate(-71.409 -23.811)" fill="#12263f"/>
        <path id="Trazado_902591" data-name="Trazado 902591" d="M172.5,6.537h1.127V7.664a.469.469,0,1,0,.938,0V6.537h1.127a.469.469,0,1,0,0-.938h-1.127V4.471a.469.469,0,1,0-.938,0V5.6H172.5a.469.469,0,1,0,0,.938Z" transform="translate(-152.865 -4.002)" fill="#12263f"/>
        <path id="Trazado_902592" data-name="Trazado 902592" d="M29.522,42.428h1.127v1.127a.469.469,0,1,0,.938,0V42.428h1.127a.469.469,0,1,0,0-.938H31.588V40.362a.469.469,0,1,0-.938,0v1.127H29.522a.469.469,0,1,0,0,.938Z" transform="translate(-26.662 -35.683)" fill="#12263f"/>
        <path id="Trazado_902593" data-name="Trazado 902593" d="M149.538,117.056a.469.469,0,0,0,.469-.469V115.46h1.127a.469.469,0,1,0,0-.938h-1.127v-1.127a.469.469,0,1,0-.938,0v1.127h-1.127a.469.469,0,0,0,0,.938h1.127v1.127A.469.469,0,0,0,149.538,117.056Z" transform="translate(-131.189 -100.147)" fill="#12263f"/>
      </g>
    </g>
  </g>
</svg>
